  0
SECTION
  2
HEADER
  9
$ACADVER
  1
AC1027
  9
$ACADMAINTVER
 70
   125
  9
$DWGCODEPAGE
  3
ANSI_1252
  9
$LASTSAVEDBY
  1
Erick
  9
$REQUIREDVERSIONS
160
                 0
  9
$INSBASE
 10
0.0
 20
0.0
 30
0.0
  9
$EXTMIN
 10
-31.64894086958267
 20
-81.83685488465615
 30
0.0
  9
$EXTMAX
 10
103.26106134993
 20
29.30943690607032
 30
0.0
  9
$LIMMIN
 10
0.0
 20
0.0
  9
$LIMMAX
 10
12.0
 20
9.0
  9
$ORTHOMODE
 70
     0
  9
$REGENMODE
 70
     1
  9
$FILLMODE
 70
     0
  9
$QTEXTMODE
 70
     0
  9
$MIRRTEXT
 70
     0
  9
$LTSCALE
 40
1.0
  9
$ATTMODE
 70
     1
  9
$TEXTSIZE
 40
0.2
  9
$TRACEWID
 40
0.05
  9
$TEXTSTYLE
  7
Standard
  9
$CLAYER
  8
0
  9
$CELTYPE
  6
Continuous
  9
$CECOLOR
 62
     1
  9
$CELTSCALE
 40
1.0
  9
$DISPSILH
 70
     0
  9
$DIMSCALE
 40
1.0
  9
$DIMASZ
 40
0.18
  9
$DIMEXO
 40
0.0625
  9
$DIMDLI
 40
0.38
  9
$DIMRND
 40
0.0
  9
$DIMDLE
 40
0.0
  9
$DIMEXE
 40
0.18
  9
$DIMTP
 40
0.0
  9
$DIMTM
 40
0.0
  9
$DIMTXT
 40
0.18
  9
$DIMCEN
 40
0.09
  9
$DIMTSZ
 40
0.0
  9
$DIMTOL
 70
     0
  9
$DIMLIM
 70
     0
  9
$DIMTIH
 70
     1
  9
$DIMTOH
 70
     1
  9
$DIMSE1
 70
     0
  9
$DIMSE2
 70
     0
  9
$DIMTAD
 70
     0
  9
$DIMZIN
 70
     0
  9
$DIMBLK
  1

  9
$DIMASO
 70
     1
  9
$DIMSHO
 70
     1
  9
$DIMPOST
  1

  9
$DIMAPOST
  1

  9
$DIMALT
 70
     0
  9
$DIMALTD
 70
     2
  9
$DIMALTF
 40
25.4
  9
$DIMLFAC
 40
1.0
  9
$DIMTOFL
 70
     0
  9
$DIMTVP
 40
0.0
  9
$DIMTIX
 70
     0
  9
$DIMSOXD
 70
     0
  9
$DIMSAH
 70
     0
  9
$DIMBLK1
  1

  9
$DIMBLK2
  1

  9
$DIMSTYLE
  2
Standard
  9
$DIMCLRD
 70
     0
  9
$DIMCLRE
 70
     0
  9
$DIMCLRT
 70
     0
  9
$DIMTFAC
 40
1.0
  9
$DIMGAP
 40
0.09
  9
$DIMJUST
 70
     0
  9
$DIMSD1
 70
     0
  9
$DIMSD2
 70
     0
  9
$DIMTOLJ
 70
     1
  9
$DIMTZIN
 70
     0
  9
$DIMALTZ
 70
     0
  9
$DIMALTTZ
 70
     0
  9
$DIMUPT
 70
     0
  9
$DIMDEC
 70
     4
  9
$DIMTDEC
 70
     4
  9
$DIMALTU
 70
     2
  9
$DIMALTTD
 70
     2
  9
$DIMTXSTY
  7
Standard
  9
$DIMAUNIT
 70
     0
  9
$DIMADEC
 70
     0
  9
$DIMALTRND
 40
0.0
  9
$DIMAZIN
 70
     0
  9
$DIMDSEP
 70
    46
  9
$DIMATFIT
 70
     3
  9
$DIMFRAC
 70
     0
  9
$DIMLDRBLK
  1

  9
$DIMLUNIT
 70
     2
  9
$DIMLWD
 70
    -2
  9
$DIMLWE
 70
    -2
  9
$DIMTMOVE
 70
     0
  9
$DIMFXL
 40
1.0
  9
$DIMFXLON
 70
     0
  9
$DIMJOGANG
 40
0.7853981633974483
  9
$DIMTFILL
 70
     0
  9
$DIMTFILLCLR
 70
     0
  9
$DIMARCSYM
 70
     0
  9
$DIMLTYPE
  6

  9
$DIMLTEX1
  6

  9
$DIMLTEX2
  6

  9
$DIMTXTDIRECTION
 70
     0
  9
$LUNITS
 70
     2
  9
$LUPREC
 70
     4
  9
$SKETCHINC
 40
0.1
  9
$FILLETRAD
 40
0.0
  9
$AUNITS
 70
     0
  9
$AUPREC
 70
     0
  9
$MENU
  1
.
  9
$ELEVATION
 40
0.0
  9
$PELEVATION
 40
0.0
  9
$THICKNESS
 40
0.0
  9
$LIMCHECK
 70
     0
  9
$CHAMFERA
 40
0.0
  9
$CHAMFERB
 40
0.0
  9
$CHAMFERC
 40
0.0
  9
$CHAMFERD
 40
0.0
  9
$SKPOLY
 70
     0
  9
$TDCREATE
 40
2457938.513263889
  9
$TDUCREATE
 40
2457938.721597222
  9
$TDUPDATE
 40
2457938.544317129
  9
$TDUUPDATE
 40
2457938.752650463
  9
$TDINDWG
 40
0.0310532407
  9
$TDUSRTIMER
 40
0.0310532407
  9
$USRTIMER
 70
     1
  9
$ANGBASE
 50
0.0
  9
$ANGDIR
 70
     0
  9
$PDMODE
 70
     0
  9
$PDSIZE
 40
0.0
  9
$PLINEWID
 40
0.0
  9
$SPLFRAME
 70
     1
  9
$SPLINETYPE
 70
     6
  9
$SPLINESEGS
 70
     8
  9
$HANDSEED
  5
2FC
  9
$SURFTAB1
 70
     6
  9
$SURFTAB2
 70
     6
  9
$SURFTYPE
 70
     6
  9
$SURFU
 70
     6
  9
$SURFV
 70
     6
  9
$UCSBASE
  2

  9
$UCSNAME
  2

  9
$UCSORG
 10
0.0
 20
0.0
 30
0.0
  9
$UCSXDIR
 10
1.0
 20
0.0
 30
0.0
  9
$UCSYDIR
 10
0.0
 20
1.0
 30
0.0
  9
$UCSORTHOREF
  2

  9
$UCSORTHOVIEW
 70
     0
  9
$UCSORGTOP
 10
0.0
 20
0.0
 30
0.0
  9
$UCSORGBOTTOM
 10
0.0
 20
0.0
 30
0.0
  9
$UCSORGLEFT
 10
0.0
 20
0.0
 30
0.0
  9
$UCSORGRIGHT
 10
0.0
 20
0.0
 30
0.0
  9
$UCSORGFRONT
 10
0.0
 20
0.0
 30
0.0
  9
$UCSORGBACK
 10
0.0
 20
0.0
 30
0.0
  9
$PUCSBASE
  2

  9
$PUCSNAME
  2

  9
$PUCSORG
 10
0.0
 20
0.0
 30
0.0
  9
$PUCSXDIR
 10
1.0
 20
0.0
 30
0.0
  9
$PUCSYDIR
 10
0.0
 20
1.0
 30
0.0
  9
$PUCSORTHOREF
  2

  9
$PUCSORTHOVIEW
 70
     0
  9
$PUCSORGTOP
 10
0.0
 20
0.0
 30
0.0
  9
$PUCSORGBOTTOM
 10
0.0
 20
0.0
 30
0.0
  9
$PUCSORGLEFT
 10
0.0
 20
0.0
 30
0.0
  9
$PUCSORGRIGHT
 10
0.0
 20
0.0
 30
0.0
  9
$PUCSORGFRONT
 10
0.0
 20
0.0
 30
0.0
  9
$PUCSORGBACK
 10
0.0
 20
0.0
 30
0.0
  9
$USERI1
 70
     0
  9
$USERI2
 70
     0
  9
$USERI3
 70
     0
  9
$USERI4
 70
     0
  9
$USERI5
 70
     0
  9
$USERR1
 40
0.0
  9
$USERR2
 40
0.0
  9
$USERR3
 40
0.0
  9
$USERR4
 40
0.0
  9
$USERR5
 40
0.0
  9
$WORLDVIEW
 70
     1
  9
$SHADEDGE
 70
     3
  9
$SHADEDIF
 70
    70
  9
$TILEMODE
 70
     1
  9
$MAXACTVP
 70
    64
  9
$PINSBASE
 10
0.0
 20
0.0
 30
0.0
  9
$PLIMCHECK
 70
     0
  9
$PEXTMIN
 10
1.000000000000000E+20
 20
1.000000000000000E+20
 30
1.000000000000000E+20
  9
$PEXTMAX
 10
-1.000000000000000E+20
 20
-1.000000000000000E+20
 30
-1.000000000000000E+20
  9
$PLIMMIN
 10
0.0
 20
0.0
  9
$PLIMMAX
 10
12.0
 20
9.0
  9
$UNITMODE
 70
     0
  9
$VISRETAIN
 70
     1
  9
$PLINEGEN
 70
     0
  9
$PSLTSCALE
 70
     1
  9
$TREEDEPTH
 70
  3020
  9
$CMLSTYLE
  2
Standard
  9
$CMLJUST
 70
     0
  9
$CMLSCALE
 40
1.0
  9
$PROXYGRAPHICS
 70
     1
  9
$MEASUREMENT
 70
     0
  9
$CELWEIGHT
370
    -1
  9
$ENDCAPS
280
     0
  9
$JOINSTYLE
280
     0
  9
$LWDISPLAY
290
     0
  9
$INSUNITS
 70
     4
  9
$HYPERLINKBASE
  1

  9
$STYLESHEET
  1

  9
$XEDIT
290
     1
  9
$CEPSNTYPE
380
     0
  9
$PSTYLEMODE
290
     1
  9
$FINGERPRINTGUID
  2
{31D97E0F-DEC8-5046-BF7E-92F57A134544}
  9
$VERSIONGUID
  2
{378300EA-20F8-0142-947F-9358FDA4BCB4}
  9
$EXTNAMES
290
     1
  9
$PSVPSCALE
 40
0.0
  9
$OLESTARTUP
290
     0
  9
$SORTENTS
280
   127
  9
$INDEXCTL
280
     0
  9
$HIDETEXT
280
     0
  9
$XCLIPFRAME
280
     2
  9
$HALOGAP
280
     0
  9
$OBSCOLOR
 70
   257
  9
$OBSLTYPE
280
     0
  9
$INTERSECTIONDISPLAY
280
     0
  9
$INTERSECTIONCOLOR
 70
   257
  9
$DIMASSOC
280
     1
  9
$PROJECTNAME
  1

  9
$CAMERADISPLAY
290
     0
  9
$LENSLENGTH
 40
50.0
  9
$CAMERAHEIGHT
 40
0.0
  9
$STEPSPERSEC
 40
2.0
  9
$STEPSIZE
 40
6.0
  9
$3DDWFPREC
 40
2.0
  9
$PSOLWIDTH
 40
0.25
  9
$PSOLHEIGHT
 40
4.0
  9
$LOFTANG1
 40
1.570796326794896
  9
$LOFTANG2
 40
1.570796326794896
  9
$LOFTMAG1
 40
0.0
  9
$LOFTMAG2
 40
0.0
  9
$LOFTPARAM
 70
     7
  9
$LOFTNORMALS
280
     1
  9
$LATITUDE
 40
37.795
  9
$LONGITUDE
 40
-122.394
  9
$NORTHDIRECTION
 40
0.0
  9
$TIMEZONE
 70
 -8000
  9
$LIGHTGLYPHDISPLAY
280
     1
  9
$TILEMODELIGHTSYNCH
280
     1
  9
$CMATERIAL
347
11
  9
$SOLIDHIST
280
     0
  9
$SHOWHIST
280
     1
  9
$DWFFRAME
280
     2
  9
$DGNFRAME
280
     0
  9
$REALWORLDSCALE
290
     1
  9
$INTERFERECOLOR
 62
     1
  9
$INTERFEREOBJVS
345
33
  9
$INTERFEREVPVS
346
30
  9
$CSHADOW
280
     0
  9
$SHADOWPLANELOCATION
 40
0.0
  0
ENDSEC
  0
SECTION
  2
CLASSES
  0
CLASS
  1
ACDBDICTIONARYWDFLT
  2
AcDbDictionaryWithDefault
  3
ObjectDBX Classes
 90
        0
 91
        1
280
     0
281
     0
  0
CLASS
  1
MATERIAL
  2
AcDbMaterial
  3
ObjectDBX Classes
 90
     1153
 91
        3
280
     0
281
     0
  0
CLASS
  1
VISUALSTYLE
  2
AcDbVisualStyle
  3
ObjectDBX Classes
 90
     4095
 91
       24
280
     0
281
     0
  0
CLASS
  1
SCALE
  2
AcDbScale
  3
ObjectDBX Classes
 90
     1153
 91
       17
280
     0
281
     0
  0
CLASS
  1
TABLESTYLE
  2
AcDbTableStyle
  3
ObjectDBX Classes
 90
     4095
 91
        1
280
     0
281
     0
  0
CLASS
  1
MLEADERSTYLE
  2
AcDbMLeaderStyle
  3
ACDB_MLEADERSTYLE_CLASS
 90
     4095
 91
        1
280
     0
281
     0
  0
CLASS
  1
ACDBSECTIONVIEWSTYLE
  2
AcDbSectionViewStyle
  3
ObjectDBX Classes
 90
     1025
 91
        1
280
     0
281
     0
  0
CLASS
  1
ACDBDETAILVIEWSTYLE
  2
AcDbDetailViewStyle
  3
ObjectDBX Classes
 90
     1025
 91
        1
280
     0
281
     0
  0
CLASS
  1
DICTIONARYVAR
  2
AcDbDictionaryVar
  3
ObjectDBX Classes
 90
        0
 91
       54
280
     0
281
     0
  0
CLASS
  1
CELLSTYLEMAP
  2
AcDbCellStyleMap
  3
ObjectDBX Classes
 90
     1152
 91
        1
280
     0
281
     0
  0
ENDSEC
  0
SECTION
  2
TABLES
  0
TABLE
  2
VPORT
  5
8
330
0
100
AcDbSymbolTable
 70
     1
1001
ACAD
1000
DbSaveVer
1071
        5
  0
VPORT
  5
74
330
8
100
AcDbSymbolTableRecord
100
AcDbViewportTableRecord
  2
*Active
 70
     0
 10
0.0
 20
0.0
 11
1.0
 21
1.0
 12
20.7505002085727
 22
6.097852951521076
 13
0.0
 23
0.0
 14
1.0
 24
1.0
 15
0.0
 25
0.0
 16
0.0
 26
0.0
 36
1.0
 17
0.0
 27
0.0
 37
0.0
 40
137.6315710383803
 41
2.199265381083562
 42
50.0
 43
0.0
 44
0.0
 50
0.0
 51
0.0
 71
     0
 72
   100
 73
     1
 74
     1
 75
     0
 76
     0
 77
     0
 78
     0
281
     0
 65
     1
110
0.0
120
0.0
130
0.0
111
1.0
121
0.0
131
0.0
112
0.0
122
1.0
132
0.0
 79
     0
146
0.0
348
2F
 60
     3
 61
     5
292
     1
282
     1
141
0.0
142
0.0
 63
   250
421
  3355443
1001
ACAD_NAV_VCDISPLAY
1070
     3
  0
ENDTAB
  0
TABLE
  2
LTYPE
  5
5
330
0
100
AcDbSymbolTable
 70
     2
  0
LTYPE
  5
5A
330
5
100
AcDbSymbolTableRecord
100
AcDbLinetypeTableRecord
  2
ByBlock
 70
     0
  3

 72
    65
 73
     0
 40
0.0
  0
LTYPE
  5
5B
330
5
100
AcDbSymbolTableRecord
100
AcDbLinetypeTableRecord
  2
ByLayer
 70
     0
  3

 72
    65
 73
     0
 40
0.0
  0
LTYPE
  5
5C
330
5
100
AcDbSymbolTableRecord
100
AcDbLinetypeTableRecord
  2
Continuous
 70
     0
  3
Solid line
 72
    65
 73
     0
 40
0.0
  0
ENDTAB
  0
TABLE
  2
LAYER
  5
2
102
{ACAD_XDICTIONARY
360
21F
102
}
330
0
100
AcDbSymbolTable
 70
     1
  0
LAYER
  5
54
102
{ACAD_XDICTIONARY
360
241
102
}
330
2
100
AcDbSymbolTableRecord
100
AcDbLayerTableRecord
  2
0
 70
     0
 62
     7
  6
Continuous
370
    -3
390
F
347
21
348
0
  0
ENDTAB
  0
TABLE
  2
STYLE
  5
3
330
0
100
AcDbSymbolTable
 70
     2
  0
STYLE
  5
55
330
3
100
AcDbSymbolTableRecord
100
AcDbTextStyleTableRecord
  2
Standard
 70
     0
 40
0.0
 41
1.0
 50
0.0
 71
     0
 42
0.2
  3
txt
  4

  0
STYLE
  5
59
330
3
100
AcDbSymbolTableRecord
100
AcDbTextStyleTableRecord
  2
Annotative
 70
     0
 40
0.0
 41
1.0
 50
0.0
 71
     0
 42
0.2
  3
txt
  4

1001
AcadAnnotative
1000
AnnotativeData
1002
{
1070
     1
1070
     1
1002
}
  0
ENDTAB
  0
TABLE
  2
VIEW
  5
6
330
0
100
AcDbSymbolTable
 70
     1
  0
ENDTAB
  0
TABLE
  2
UCS
  5
7
330
0
100
AcDbSymbolTable
 70
     0
  0
ENDTAB
  0
TABLE
  2
APPID
  5
9
330
0
100
AcDbSymbolTable
 70
     3
  0
APPID
  5
56
330
9
100
AcDbSymbolTableRecord
100
AcDbRegAppTableRecord
  2
ACAD
 70
     0
  0
APPID
  5
5D
330
9
100
AcDbSymbolTableRecord
100
AcDbRegAppTableRecord
  2
AcadAnnotative
 70
     0
  0
APPID
  5
20F
330
9
100
AcDbSymbolTableRecord
100
AcDbRegAppTableRecord
  2
ACAD_NAV_VCDISPLAY
 70
     0
  0
ENDTAB
  0
TABLE
  2
DIMSTYLE
  5
A
330
0
100
AcDbSymbolTable
 70
     3
100
AcDbDimStyleTable
 71
     1
340
57
  0
DIMSTYLE
105
57
330
A
100
AcDbSymbolTableRecord
100
AcDbDimStyleTableRecord
  2
Standard
 70
     0
340
55
  0
DIMSTYLE
105
58
330
A
100
AcDbSymbolTableRecord
100
AcDbDimStyleTableRecord
  2
Annotative
 70
     0
340
55
1001
AcadAnnotative
1000
AnnotativeData
1002
{
1070
     1
1070
     1
1002
}
  0
ENDTAB
  0
TABLE
  2
BLOCK_RECORD
  5
1
330
0
100
AcDbSymbolTable
 70
     5
  0
BLOCK_RECORD
  5
6F
330
1
100
AcDbSymbolTableRecord
100
AcDbBlockTableRecord
  2
*Model_Space
340
72
 70
     0
280
     1
281
     0
  0
BLOCK_RECORD
  5
6B
330
1
100
AcDbSymbolTableRecord
100
AcDbBlockTableRecord
  2
*Paper_Space
340
6E
 70
     0
280
     1
281
     0
  0
ENDTAB
  0
ENDSEC
  0
SECTION
  2
BLOCKS
  0
BLOCK
  5
70
330
6F
100
AcDbEntity
  8
0
100
AcDbBlockBegin
  2
*Model_Space
 70
     0
 10
0.0
 20
0.0
 30
0.0
  3
*Model_Space
  1

  0
ENDBLK
  5
71
330
6F
100
AcDbEntity
  8
0
100
AcDbBlockEnd
  0
BLOCK
  5
6C
330
6B
100
AcDbEntity
 67
     1
  8
0
100
AcDbBlockBegin
  2
*Paper_Space
 70
     0
 10
0.0
 20
0.0
 30
0.0
  3
*Paper_Space
  1

  0
ENDBLK
  5
6D
330
6B
100
AcDbEntity
 67
     1
  8
0
100
AcDbBlockEnd
  0
ENDSEC
  0
SECTION
  2
ENTITIES
  0
LWPOLYLINE
  5
75
330
6F
100
AcDbEntity
  8
0
100
AcDbPolyline
 90
      128
 70
     1
 43
0.0
 10
-6.255404987121869
 20
8.298149882537625
 10
-6.255404987121869
 20
8.298149882537625
 10
-6.239189548491869
 20
8.412145112048088
 10
-6.180173703177541
 20
8.73798495610668
 10
-6.064299431422404
 20
9.253399284406114
 10
-5.876951960212292
 20
9.934934865966516
 10
-5.604003675633522
 20
10.75990400553734
 10
-5.231048587143559
 20
11.70541022539638
 10
-4.743193545099401
 20
12.74827867119263
 10
-4.126241341430151
 20
13.86582164767552
 10
-3.365785985593273
 20
15.03479470633682
 10
-2.447143110417398
 20
16.23278852855481
 10
-1.356393884460469
 20
17.43655866582126
 10
-0.0789931288655326
 20
18.62327823457119
 10
1.399952306010411
 20
19.76991156876798
 10
3.094082874980589
 20
20.8531446257462
 10
5.018918075102883
 20
21.8510552459846
 10
6.637191012713836
 20
22.54129009719629
 10
7.188167955347728
 20
22.73956385108842
 10
7.188167955347728
 20
22.73956385108842
 10
7.322484678763593
 20
22.7765879427243
 10
7.711724800040771
 20
22.86984411338609
 10
8.3332702180859
 20
22.99441765479251
 10
9.164363643491226
 20
23.12581142360554
 10
10.18301332257829
 20
23.23869314660064
 10
11.36674034256817
 20
23.30780014471046
 10
12.69355294978241
 20
23.30856568043978
 10
14.14111141975652
 20
23.21565748056403
 10
15.68644968061109
 20
23.00423043095916
 10
17.3078543552965
 20
22.64930022918667
 10
18.98312490766269
 20
22.12518663123594
 10
20.68929526583024
 20
21.40787965286945
 10
22.4042344878063
 20
20.47149026760495
 10
24.10636838485566
 20
19.29117336131837
 10
25.77224372599845
 20
17.84208381988564
 10
27.00315558457691
 20
16.5552182589101
 10
27.38070388744275
 20
16.09923734086826
 10
27.38070388744275
 20
16.09923734086826
 10
27.51063617895437
 20
16.11169469500891
 10
27.88247776092897
 20
16.13765331564835
 10
28.469574071155
 20
16.15999304011285
 10
29.24589689483582
 20
16.161036952471
 10
30.18381735155895
 20
16.12443042577839
 10
31.2571680382133
 20
16.03228776163196
 10
32.43901601595851
 20
15.86811514477288
 10
33.70312428752628
 20
15.61395728264088
 10
35.02235113160462
 20
15.25345954829156
 10
36.36997239182472
 20
14.76901461995071
 10
37.71982066507559
 20
14.14329355247297
 10
39.0451022008312
 20
13.35952415397064
 10
40.31853608946515
 20
12.40009910266953
 10
41.51402452202357
 20
11.2485245833108
 10
42.60442577719445
 20
9.886984491648624
 10
43.35082311327484
 20
8.709381757493247
 10
43.56385082849555
 20
8.298149882537625
 10
43.77527787810042
 20
7.889632179713199
 10
44.34949926924256
 20
6.630813064093416
 10
44.95065359922507
 20
5.04573653947177
 10
45.38561708178941
 20
3.54674798731926
 10
45.67255379196744
 20
2.137257521339186
 10
45.83039334052038
 20
0.8206752552348504
 10
45.87757817910897
 20
-0.3996582914476429
 10
45.83227238276506
 20
-1.520193816690575
 10
45.71333596809266
 20
-2.537451612633436
 10
45.53928098090972
 20
-3.447743188944073
 10
45.32820190209091
 20
-4.24821518517687
 10
45.0989587482402
 20
-4.934691951899203
 10
44.8697851885467
 20
-5.504389722822666
 10
44.6594716454572
 20
-5.953341630986269
 10
44.48625178816079
 20
-6.27841593931555
 10
44.36884644494702
 20
-6.475854563321153
 10
44.32569806747664
 20
-6.542664954243034
 10
44.32569806747664
 20
-6.542664954243034
 10
44.32569806747664
 20
-6.542664954243034
 10
44.28686452775329
 20
-6.625829972109335
 10
44.16799770723812
 20
-6.862102135838279
 10
43.96401723245474
 20
-7.232134269725412
 10
43.67067785981335
 20
-7.717344733795578
 10
43.28324718662364
 20
-8.297342439986163
 10
42.79657524525206
 20
-8.953476154164812
 10
42.20676476289483
 20
-9.665981135683795
 10
41.50908333686163
 20
-10.41585817962471
 10
40.69845059367614
 20
-11.18348173365425
 10
39.77027331896245
 20
-11.94954637856227
 10
38.72072383407402
 20
-12.69488588345307
 10
37.54416501227679
 20
-13.40018091028507
 10
36.23662998660979
 20
-14.04583374438785
 10
34.79317757191112
 20
-14.61256680421415
 10
33.20928414796203
 20
-15.08114426471106
 10
31.91573754789431
 20
-15.36318154622149
 10
31.48077406532999
 20
-15.43228158491559
 10
-7.0716748570414
 20
-15.43228158491559
 10
-7.0716748570414
 20
-15.43228158491559
 10
-7.195900427661775
 20
-15.42925423907694
 10
-7.546654980001656
 20
-15.40774268508324
 10
-8.09150763680104
 20
-15.34846238197151
 10
-8.798305897428782
 20
-15.23179473682418
 10
-9.634618884624877
 20
-15.03847608692543
 10
-10.56766775034328
 20
-14.74888087994195
 10
-11.56592634136773
 20
-14.34374545315795
 10
-12.59633743302333
 20
-13.80380614385761
 10
-13.6266998087689
 20
-13.10945131853907
 10
-14.62501407511911
 20
-12.24141731448652
 10
-15.55798638726459
 20
-11.18007161995094
 10
-16.39432025270785
 20
-9.906150572216519
 10
-17.10113243216702
 20
-8.4003417926574
 10
-17.64597117013497
 20
-6.643089323097489
 10
-17.99673268189057
 20
-4.615185176146748
 10
-18.12056852523057
 20
-2.876514346561988
 10
-18.12056852523057
 20
-2.297351770257924
 10
-18.12056852523057
 20
-2.297351770257924
 10
-18.10584936098059
 20
-2.177162660755747
 10
-18.05298563916365
 20
-1.838239115141616
 10
-17.94915811602162
 20
-1.311411345059696
 10
-17.78226436761561
 20
-0.6288318511411376
 10
-17.5394851501875
 20
0.1784603724982683
 10
-17.20798034173199
 20
1.079356737585515
 10
-16.77566143714165
 20
2.041774337646666
 10
-16.22931250596224
 20
3.034465396094288
 10
-15.55685896191778
 20
4.026251730498184
 10
-14.74545372358725
 20
4.985676781799289
 10
-13.78263943683
 20
5.880936020152503
 10
-12.65597962575256
 20
6.680990451442033
 10
-11.35220268457492
 20
7.354244328294418
 10
-9.859338418256918
 20
7.869241091650588
 10
-8.164720690186268
 20
8.19424580582266
 10
-6.732612123112853
 20
8.302325531970241
 10
-6.255404987121869
 20
8.298149882537625
  0
LWPOLYLINE
  5
F7
330
6F
100
AcDbEntity
  8
0
100
AcDbPolyline
 90
      134
 70
     1
 43
0.0
 10
38.91816245807961
 20
-12.52119974530334
 10
38.91816245807961
 20
-12.52119974530334
 10
39.09221744526257
 20
-12.42000288130385
 10
39.56343948373346
 20
-12.12172928291626
 10
40.25478784146052
 20
-11.63164026842565
 10
41.08998732214124
 20
-10.95653518699148
 10
41.9916492229578
 20
-10.1021277189207
 10
42.88377672423656
 20
-9.075474711754457
 10
43.68884193484524
 20
-7.882004509755131
 10
44.20035899034089
 20
-6.877621632896179
 10
44.33105681758182
 20
-6.528398152014924
 10
37.03334389835325
 20
-3.821950972263822
 10
37.03334389835325
 20
-3.821950972263822
 10
36.97704222517012
 20
-3.800376783528631
 10
36.81544459212782
 20
-3.750964931909324
 10
36.55794621044974
 20
-3.694315287940144
 10
36.21470782708855
 20
-3.652767576085599
 10
35.79519424742491
 20
-3.647060855194356
 10
35.31047094245522
 20
-3.699534849730917
 10
34.76902839935914
 20
-3.830998212701161
 10
34.3239041698421
 20
-3.995588394503503
 10
34.18186249497589
 20
-4.063581886097962
 10
29.68726303986351
 20
-2.202912498923555
 10
29.68726303986351
 20
-2.202912498923555
 10
29.73027222901946
 20
-2.07193629505378
 10
29.84176206887036
 20
-1.694666368816781
 10
29.99194626013017
 20
-1.093512038834268
 10
30.15277835744316
 20
-0.2923441010293667
 10
30.29551597388147
 20
0.686358531818987
 10
30.39218225824657
 20
1.819768976145828
 10
30.41375644698176
 20
3.084990754228964
 10
30.33142655900198
 20
4.458640229245735
 10
30.1172853372659
 20
5.918377676731638
 10
29.7419640474308
 20
7.44033230076355
 10
29.17797299739859
 20
9.002373159348582
 10
28.39601304698372
 20
10.58097742734967
 10
27.36748099757279
 20
12.15387497445951
 10
26.06412162133842
 20
13.69740378722662
 10
24.45719253135274
 20
15.18887617040041
 10
23.02118669147555
 20
16.27927742557129
 10
22.51871687641723
 20
16.60511726962988
 10
22.51871687641723
 20
16.60511726962988
 10
22.40005883837367
 20
16.67874788795838
 10
22.05542857186831
 20
16.87625610612119
 10
21.50152867463158
 20
17.16388875787133
 10
20.75387864372139
 20
17.50907577763439
 10
19.8296682359687
 20
17.87715927511963
 10
18.74483451337464
 20
18.23466446070891
 10
17.51580169704087
 20
18.54853410972733
 10
16.15920279054061
 20
18.78411033188418
 10
14.69090526171784
 20
18.9086838732906
 10
13.12809886740349
 20
18.88829278522798
 10
11.4859551338694
 20
18.68897511897771
 10
9.782011788732578
 20
18.27739527323602
 10
8.032345082308584
 20
17.61966089344155
 10
6.252892076598595
 20
16.68250597244773
 10
4.460146586861434
 20
15.43196856153597
 10
3.09450043992385
 20
14.2577759410839
 10
2.671228775770844
 20
13.83450427693089
 10
2.671228775770844
 20
13.83450427693089
 10
2.574144926462481
 20
13.7358893561639
 10
2.307947275133114
 20
13.44561212643977
 10
1.907432900387872
 20
12.97132794505162
 10
1.408929952290539
 20
12.32229283490843
 10
0.8479314510183645
 20
11.50637093577494
 10
0.2600696050630149
 20
10.53149598157315
 10
-0.3188145946122045
 20
9.406645618583182
 10
-0.8526713745723659
 20
8.139544798255368
 10
-1.306494873740692
 20
6.739171166869842
 10
-1.644026536210615
 20
5.213458458348581
 10
-1.829773341804886
 20
3.570201218299128
 10
-1.827963893717417
 20
1.818585875473254
 10
-1.602548418513275
 20
-0.0333842420498668
 10
-1.118451460958477
 20
-1.977844994505467
 10
-0.3391360885176113
 20
-4.005749141456208
 10
0.464328456475224
 20
-5.600638442244503
 10
0.7705427482005196
 20
-6.10965010808059
 10
0.7705427482005196
 20
-6.10965010808059
 10
0.8180755575751486
 20
-6.196434022121823
 10
0.9642232877167664
 20
-6.442240585388581
 10
1.212604834800301
 20
-6.823268596114939
 10
1.567187065786746
 20
-7.315925635006606
 10
2.031588876851034
 20
-7.897454412655817
 10
2.610403482369047
 20
-8.544192915611077
 10
3.306623431100822
 20
-9.232548724578089
 10
4.125259502365505
 20
-9.939346985205828
 10
5.069234650765928
 20
-10.6416216256149
 10
6.142585337420279
 20
-11.31522347325333
 10
7.350043965018874
 20
-11.93708902442163
 10
8.694603082321741
 20
-12.48419653191463
 10
10.18071671539035
 20
-12.93312756183107
 10
11.81221254287126
 20
-13.26010179065219
 10
13.59284864925383
 20
-13.44209051175711
 10
15.0443043920317
 20
-13.47419429647822
 10
15.52680068397067
 20
-13.455689210076
 10
15.52680068397067
 20
-13.455689210076
 10
15.60683396476251
 20
-13.455689210076
 10
15.83872169658721
 20
-13.44813128460296
 10
16.20868423631713
 20
-13.42208219155915
 10
16.70489057722652
 20
-13.36582923428607
 10
17.31314351124448
 20
-13.26879410088776
 10
18.02105527838759
 20
-13.11889524567251
 10
18.81512461215704
 20
-12.90594408402473
 10
19.68310294088382
 20
-12.61785907025272
 10
20.6112106214403
 20
-12.24330331614692
 10
21.58678151721419
 20
-11.77209519650747
 10
22.59652314417833
 20
-11.19176343836227
 10
23.62804774234931
 20
-10.49213337592719
 10
24.66743648028504
 20
-9.661109544679076
 10
25.70230159800211
 20
-8.688044038564752
 10
26.71921142315892
 20
-7.561384227487311
 10
27.47242898664592
 20
-6.602376741129467
 10
27.70577819577203
 20
-6.270482205393578
 10
32.34541187451068
 20
-8.203668704381108
 10
32.34541187451068
 20
-8.203668704381108
 10
32.33824367631802
 20
-8.267068981599688
 10
32.34005312440547
 20
-8.444882053271985
 10
32.3861940506359
 20
-8.715672918977238
 10
32.51035002709907
 20
-9.059607243910511
 10
32.7478748856578
 20
-9.455319621808238
 10
33.13370489323167
 20
-9.882349370450599
 10
33.70201078101092
 20
-10.32072296671823
 10
34.28493144180434
 20
-10.65595802200022
 10
34.48807678670118
 20
-10.74928378681922
 10
34.70778554101408
 20
-10.85005612645973
 10
35.37206177158632
 20
-11.14416103483043
 10
36.19960589497393
 20
-11.49495734366463
 10
36.95136198115952
 20
-11.79814428955127
 10
37.609096360954
 20
-12.05187066790857
 10
38.15360104696733
 20
-12.25349886017823
 10
38.56552886349508
 20
-12.40037732897055
 10
38.82685492381972
 20
-12.49061311320941
 10
38.91816245807961
 20
-12.52119974530334
 10
38.91816245807961
 20
-12.52119974530334
  0
LWPOLYLINE
  5
17F
330
6F
100
AcDbEntity
  8
0
100
AcDbPolyline
 90
      134
 70
     1
 43
0.0966586290078045
 10
38.91816245807961
 20
-12.52119974530334
 10
38.91816245807961
 20
-12.52119974530334
 10
39.09221744526257
 20
-12.42000288130385
 10
39.56343948373346
 20
-12.12172928291626
 10
40.25478784146052
 20
-11.63164026842565
 10
41.08998732214124
 20
-10.95653518699148
 10
41.9916492229578
 20
-10.1021277189207
 10
42.88377672423656
 20
-9.075474711754457
 10
43.68884193484524
 20
-7.882004509755131
 10
44.20035899034089
 20
-6.877621632896179
 10
44.33105681758182
 20
-6.528398152014924
 10
37.03334389835325
 20
-3.821950972263822
 10
37.03334389835325
 20
-3.821950972263822
 10
36.97704222517012
 20
-3.800376783528631
 10
36.81544459212782
 20
-3.750964931909324
 10
36.55794621044974
 20
-3.694315287940144
 10
36.21470782708855
 20
-3.652767576085599
 10
35.79519424742491
 20
-3.647060855194356
 10
35.31047094245522
 20
-3.699534849730917
 10
34.76902839935914
 20
-3.830998212701161
 10
34.3239041698421
 20
-3.995588394503503
 10
34.18186249497589
 20
-4.063581886097962
 10
29.68726303986351
 20
-2.202912498923555
 10
29.68726303986351
 20
-2.202912498923555
 10
29.73027222901946
 20
-2.07193629505378
 10
29.84176206887036
 20
-1.694666368816781
 10
29.99194626013017
 20
-1.093512038834268
 10
30.15277835744316
 20
-0.2923441010293667
 10
30.29551597388147
 20
0.686358531818987
 10
30.39218225824657
 20
1.819768976145828
 10
30.41375644698176
 20
3.084990754228964
 10
30.33142655900198
 20
4.458640229245735
 10
30.1172853372659
 20
5.918377676731638
 10
29.7419640474308
 20
7.44033230076355
 10
29.17797299739859
 20
9.002373159348582
 10
28.39601304698372
 20
10.58097742734967
 10
27.36748099757279
 20
12.15387497445951
 10
26.06412162133842
 20
13.69740378722662
 10
24.45719253135274
 20
15.18887617040041
 10
23.02118669147555
 20
16.27927742557129
 10
22.51871687641723
 20
16.60511726962988
 10
22.51871687641723
 20
16.60511726962988
 10
22.40005883837367
 20
16.67874788795838
 10
22.05542857186831
 20
16.87625610612119
 10
21.50152867463158
 20
17.16388875787133
 10
20.75387864372139
 20
17.50907577763439
 10
19.8296682359687
 20
17.87715927511963
 10
18.74483451337464
 20
18.23466446070891
 10
17.51580169704087
 20
18.54853410972733
 10
16.15920279054061
 20
18.78411033188418
 10
14.69090526171784
 20
18.9086838732906
 10
13.12809886740349
 20
18.88829278522798
 10
11.4859551338694
 20
18.68897511897771
 10
9.782011788732578
 20
18.27739527323602
 10
8.032345082308584
 20
17.61966089344155
 10
6.252892076598595
 20
16.68250597244773
 10
4.460146586861434
 20
15.43196856153597
 10
3.09450043992385
 20
14.2577759410839
 10
2.671228775770844
 20
13.83450427693089
 10
2.671228775770844
 20
13.83450427693089
 10
2.574144926462481
 20
13.7358893561639
 10
2.307947275133114
 20
13.44561212643977
 10
1.907432900387872
 20
12.97132794505162
 10
1.408929952290539
 20
12.32229283490843
 10
0.8479314510183645
 20
11.50637093577494
 10
0.2600696050630149
 20
10.53149598157315
 10
-0.3188145946122045
 20
9.406645618583182
 10
-0.8526713745723659
 20
8.139544798255368
 10
-1.306494873740692
 20
6.739171166869842
 10
-1.644026536210615
 20
5.213458458348581
 10
-1.829773341804886
 20
3.570201218299128
 10
-1.827963893717417
 20
1.818585875473254
 10
-1.602548418513275
 20
-0.0333842420498668
 10
-1.118451460958477
 20
-1.977844994505467
 10
-0.3391360885176113
 20
-4.005749141456208
 10
0.464328456475224
 20
-5.600638442244503
 10
0.7705427482005196
 20
-6.10965010808059
 10
0.7705427482005196
 20
-6.10965010808059
 10
0.8180755575751486
 20
-6.196434022121823
 10
0.9642232877167664
 20
-6.442240585388581
 10
1.212604834800301
 20
-6.823268596114939
 10
1.567187065786746
 20
-7.315925635006606
 10
2.031588876851034
 20
-7.897454412655817
 10
2.610403482369047
 20
-8.544192915611077
 10
3.306623431100822
 20
-9.232548724578089
 10
4.125259502365505
 20
-9.939346985205828
 10
5.069234650765928
 20
-10.6416216256149
 10
6.142585337420279
 20
-11.31522347325333
 10
7.350043965018874
 20
-11.93708902442163
 10
8.694603082321741
 20
-12.48419653191463
 10
10.18071671539035
 20
-12.93312756183107
 10
11.81221254287126
 20
-13.26010179065219
 10
13.59284864925383
 20
-13.44209051175711
 10
15.0443043920317
 20
-13.47419429647822
 10
15.52680068397067
 20
-13.455689210076
 10
15.52680068397067
 20
-13.455689210076
 10
15.60683396476251
 20
-13.455689210076
 10
15.83872169658721
 20
-13.44813128460296
 10
16.20868423631713
 20
-13.42208219155915
 10
16.70489057722652
 20
-13.36582923428607
 10
17.31314351124448
 20
-13.26879410088776
 10
18.02105527838759
 20
-13.11889524567251
 10
18.81512461215704
 20
-12.90594408402473
 10
19.68310294088382
 20
-12.61785907025272
 10
20.6112106214403
 20
-12.24330331614692
 10
21.58678151721419
 20
-11.77209519650747
 10
22.59652314417833
 20
-11.19176343836227
 10
23.62804774234931
 20
-10.49213337592719
 10
24.66743648028504
 20
-9.661109544679076
 10
25.70230159800211
 20
-8.688044038564752
 10
26.71921142315892
 20
-7.561384227487311
 10
27.47242898664592
 20
-6.602376741129467
 10
27.70577819577203
 20
-6.270482205393578
 10
32.34541187451068
 20
-8.203668704381108
 10
32.34541187451068
 20
-8.203668704381108
 10
32.33824367631802
 20
-8.267068981599688
 10
32.34005312440547
 20
-8.444882053271985
 10
32.3861940506359
 20
-8.715672918977238
 10
32.51035002709907
 20
-9.059607243910511
 10
32.7478748856578
 20
-9.455319621808238
 10
33.13370489323167
 20
-9.882349370450599
 10
33.70201078101092
 20
-10.32072296671823
 10
34.28493144180434
 20
-10.65595802200022
 10
34.48807678670118
 20
-10.74928378681922
 10
34.70778554101408
 20
-10.85005612645973
 10
35.37206177158632
 20
-11.14416103483043
 10
36.19960589497393
 20
-11.49495734366463
 10
36.95136198115952
 20
-11.79814428955127
 10
37.609096360954
 20
-12.05187066790857
 10
38.15360104696733
 20
-12.25349886017823
 10
38.56552886349508
 20
-12.40037732897055
 10
38.82685492381972
 20
-12.49061311320941
 10
38.91816245807961
 20
-12.52119974530334
 10
38.91816245807961
 20
-12.52119974530334
  0
LWPOLYLINE
  5
233
330
6F
100
AcDbEntity
  8
0
100
AcDbPolyline
 90
        5
 70
     1
 43
0.0984431543045021
 10
-14.03908318550749
 20
-20.31380353040344
 10
-14.00676235494292
 20
-20.31380353040344
 10
-13.39231217914374
 20
-22.52650460181868
 10
-14.69662780205949
 20
-22.52650460181868
 10
-14.03908318550749
 20
-20.31380353040344
  0
LWPOLYLINE
  5
234
330
6F
100
AcDbEntity
  8
0
100
AcDbPolyline
 90
       41
 70
     1
 43
0.0984431543045021
 10
-15.46183764147898
 20
-18.35881855533212
 10
-17.69339253072356
 20
-25.15788801127129
 10
-17.70607987430052
 20
-25.19169730113823
 10
-17.72876115890726
 20
-25.34323663391687
 10
-17.69757439257299
 20
-25.46940127954185
 10
-17.68297331560743
 20
-25.49087762090386
 10
-17.6687975127282
 20
-25.51242484128022
 10
-17.56992128764576
 20
-25.58741483851128
 10
-17.44418191610717
 20
-25.61973566907582
 10
-17.40229241859915
 20
-25.61973566907582
 10
-15.76371136379165
 20
-25.61973566907582
 10
-15.68723290725832
 20
-25.61973566907582
 10
-15.45687611047126
 20
-25.53092426403761
 10
-15.30576205177898
 20
-25.32438281608754
 10
-15.28960163649666
 20
-25.26555323413888
 10
-15.06307230648691
 20
-24.43846601515159
 10
-13.00382430123915
 20
-24.43846601515159
 10
-12.76694663512759
 20
-25.26555323413888
 10
-12.75078621984526
 20
-25.32438281608754
 10
-12.59974304016739
 20
-25.53092426403761
 10
-12.36938624338024
 20
-25.61973566907582
 10
-12.29248251276056
 20
-25.61973566907582
 10
-10.65390145795308
 20
-25.61973566907582
 10
-10.6124372345315
 20
-25.61973566907582
 10
-10.4870522580649
 20
-25.58741483851128
 10
-10.38817603298238
 20
-25.51242484128022
 10
-10.37364583503122
 20
-25.49087762090386
 10
-10.3593282741232
 20
-25.46940127954185
 10
-10.3278579917314
 20
-25.34323663391687
 10
-10.35046839732372
 20
-25.19169730113823
 10
-10.36280134582865
 20
-25.15788801127129
 10
-12.59428535605882
 20
-18.35881855533212
 10
-12.61427323811847
 20
-18.30147743268575
 10
-12.769710916689
 20
-18.10074806391622
 10
-12.98582103158252
 20
-18.0150553355114
 10
-13.05769235218005
 20
-18.0150553355114
 10
-14.99850152437216
 20
-18.0150553355114
 10
-15.07079811905613
 20
-18.0150553355114
 10
-15.28690823394967
 20
-18.10074806391622
 10
-15.44227503350568
 20
-18.30147743268575
 10
-15.46183764147898
 20
-18.35881855533212
  0
LWPOLYLINE
  5
235
330
6F
100
AcDbEntity
  8
0
100
AcDbPolyline
 90
       45
 70
     1
 43
0.0984431543045021
 10
-5.198768993977054
 20
-25.61973566907582
 10
-3.624829600298875
 20
-25.61973566907582
 10
-3.552178610542881
 20
-25.61973566907582
 10
-3.334154762260736
 20
-25.52284405639641
 10
-3.23690875450938
 20
-25.30552899825821
 10
-3.23690875450938
 20
-25.23323240357429
 10
-3.23690875450938
 20
-18.4018421170705
 10
-3.23690875450938
 20
-18.32919112731458
 10
-3.334154762260736
 20
-18.11187606917637
 10
-3.552178610542881
 20
-18.01540973058339
 10
-3.624829600298875
 20
-18.01540973058339
 10
-5.198768993977054
 20
-18.01540973058339
 10
-5.271916136833798
 20
-18.01540973058339
 10
-5.489869106101558
 20
-18.11187606917637
 10
-5.58683159779537
 20
-18.32919112731458
 10
-5.58683159779537
 20
-18.4018421170705
 10
-5.58683159779537
 20
-20.73255674745516
 10
-7.311814171151485
 20
-20.73255674745516
 10
-7.311814171151485
 20
-18.4018421170705
 10
-7.311814171151485
 20
-18.32919112731458
 10
-7.409131057917257
 20
-18.11187606917637
 10
-7.627154906199471
 20
-18.01540973058339
 10
-7.699876774969812
 20
-18.01540973058339
 10
-9.273816168648052
 20
-18.01540973058339
 10
-9.346892432490321
 20
-18.01540973058339
 10
-9.565270675844489
 20
-18.11187606917637
 10
-9.662162288523909
 20
-18.32919112731458
 10
-9.662162288523909
 20
-18.4018421170705
 10
-9.662162288523909
 20
-25.23323240357429
 10
-9.662162288523909
 20
-25.30552899825821
 10
-9.565270675844489
 20
-25.52284405639641
 10
-9.346892432490321
 20
-25.61973566907582
 10
-9.273816168648052
 20
-25.61973566907582
 10
-7.699876774969812
 20
-25.61973566907582
 10
-7.627154906199471
 20
-25.61973566907582
 10
-7.409131057917257
 20
-25.52284405639641
 10
-7.311814171151485
 20
-25.30552899825821
 10
-7.311814171151485
 20
-25.23323240357429
 10
-7.311814171151485
 20
-22.79485255032205
 10
-5.58683159779537
 20
-22.79485255032205
 10
-5.58683159779537
 20
-25.23323240357429
 10
-5.58683159779537
 20
-25.30552899825821
 10
-5.489869106101558
 20
-25.52284405639641
 10
-5.271916136833798
 20
-25.61973566907582
 10
-5.198768993977054
 20
-25.61973566907582
  0
LWPOLYLINE
  5
236
330
6F
100
AcDbEntity
  8
0
100
AcDbPolyline
 90
       49
 70
     1
 43
0.0984431543045021
 10
-2.309740367194894
 20
-21.81736006278641
 10
-2.309740367194894
 20
-22.05189872142286
 10
-2.252044849476567
 20
-22.75608172944743
 10
-2.078249506177503
 20
-23.56438600961974
 10
-1.788708732369668
 20
-24.24113883907302
 10
-1.499876748705807
 20
-24.66605853037722
 10
-1.382642858894805
 20
-24.78761604006645
 10
-1.268740282760431
 20
-24.90527520396384
 10
-0.8734480194737443
 20
-25.20785771642051
 10
-0.2723939773954014
 20
-25.50824297943083
 10
0.420590146354601
 20
-25.68855919205437
 10
1.008885965841593
 20
-25.74894811231975
 10
1.20493731966106
 20
-25.74894811231975
 10
1.400776036437235
 20
-25.74894811231975
 10
1.988646581837933
 20
-25.68855919205437
 10
2.681276310515928
 20
-25.50824297943083
 10
3.282330352594263
 20
-25.20785771642051
 10
3.678047889967322
 20
-24.90562959903578
 10
3.792233982159296
 20
-24.78761604006645
 10
3.909113476898351
 20
-24.66605853037722
 10
4.197520186475783
 20
-24.24113883907302
 10
4.487415355355542
 20
-23.56438600961974
 10
4.661281577669042
 20
-22.75608172944743
 10
4.71940236947378
 20
-22.05189872142286
 10
4.71940236947378
 20
-21.81736006278641
 10
4.71940236947378
 20
-21.58239613006353
 10
4.661281577669042
 20
-20.8783548800678
 10
4.487415355355542
 20
-20.07040499496747
 10
4.197520186475783
 20
-19.39365216551415
 10
3.909113476898351
 20
-18.96866159519558
 10
3.792233982159296
 20
-18.84752935959274
 10
3.678047889967322
 20
-18.72944492160892
 10
3.282330352594263
 20
-18.42679153013793
 10
2.681276310515928
 20
-18.12647714614197
 10
1.988646581837933
 20
-17.94609005450406
 10
1.400776036437235
 20
-17.88619728733939
 10
1.20493731966106
 20
-17.88619728733939
 10
1.008885965841593
 20
-17.88619728733939
 10
0.420590146354601
 20
-17.94609005450406
 10
-0.2723939773954014
 20
-18.12647714614197
 10
-0.8734480194737443
 20
-18.42679153013793
 10
-1.268740282760431
 20
-18.72944492160892
 10
-1.382642858894805
 20
-18.84752935959274
 10
-1.499876748705807
 20
-18.96866159519558
 10
-1.788708732369668
 20
-19.39365216551415
 10
-2.078249506177503
 20
-20.07040499496747
 10
-2.252044849476567
 20
-20.8783548800678
 10
-2.309740367194894
 20
-21.58239613006353
 10
-2.309740367194894
 20
-21.81736006278641
  0
LWPOLYLINE
  5
237
330
6F
100
AcDbEntity
  8
0
100
AcDbPolyline
 90
       41
 70
     1
 43
0.0984431543045021
 10
0.072857701727634
 20
-21.81736006278641
 10
0.072857701727634
 20
-21.69736189141392
 10
0.0902230602546828
 20
-21.33786353039727
 10
0.1428861679509519
 20
-20.93137238283606
 10
0.2305635087587938
 20
-20.59682343488678
 10
0.3151221729332805
 20
-20.3960940661172
 10
0.3532550826782856
 20
-20.33535075077981
 10
0.3998225951365677
 20
-20.2599354794624
 10
0.7062325743705362
 20
-19.99661994098116
 10
1.080048496295236
 20
-19.88385142907711
 10
1.20493731966106
 20
-19.88385142907711
 10
1.329613505983669
 20
-19.88385142907711
 10
1.703358548893867
 20
-19.99661994098116
 10
2.009414133055966
 20
-20.2599354794624
 10
2.056406919600532
 20
-20.33535075077981
 10
2.094114555259185
 20
-20.3960940661172
 10
2.178673219433681
 20
-20.59682343488678
 10
2.266350560241591
 20
-20.93137238283606
 10
2.319013667937861
 20
-21.33786353039727
 10
2.336733421536866
 20
-21.69736189141392
 10
2.336733421536866
 20
-21.81736006278641
 10
2.336733421536866
 20
-21.93700383908685
 10
2.319013667937861
 20
-22.29650220010359
 10
2.266350560241591
 20
-22.70334774273681
 10
2.178673219433681
 20
-23.03789669068604
 10
2.094114555259185
 20
-23.23862605945562
 10
2.056406919600532
 20
-23.29972376986498
 10
2.009414133055966
 20
-23.37478464611039
 10
1.703358548893867
 20
-23.63781666853405
 10
1.329613505983669
 20
-23.7507978174813
 10
1.20493731966106
 20
-23.7507978174813
 10
1.080048496295236
 20
-23.7507978174813
 10
0.7062325743705362
 20
-23.63781666853405
 10
0.3998225951365677
 20
-23.37478464611039
 10
0.3532550826782856
 20
-23.29972376986498
 10
0.3151221729332805
 20
-23.23862605945562
 10
0.2305635087587938
 20
-23.03789669068604
 10
0.1428861679509519
 20
-22.70334774273681
 10
0.0902230602546828
 20
-22.29650220010359
 10
0.072857701727634
 20
-21.93700383908685
 10
0.072857701727634
 20
-21.81736006278641
  0
LWPOLYLINE
  5
238
330
6F
100
AcDbEntity
  8
0
100
AcDbPolyline
 90
       20
 70
     1
 43
0.0984431543045021
 10
7.974875500683383
 20
-19.94842221119191
 10
8.751284224377565
 20
-19.94842221119191
 10
8.861642849792124
 20
-19.94842221119191
 10
9.193144000122389
 20
-19.99002819264233
 10
9.448095814904885
 20
-20.08727420039368
 10
9.484244112246878
 20
-20.11498789502256
 10
9.519967135502513
 20
-20.14270158965139
 10
9.645777386055437
 20
-20.35533863283951
 10
9.699928953053969
 20
-20.64601347087761
 10
9.699928953053969
 20
-20.74340123665773
 10
9.699928953053969
 20
-20.83178736760961
 10
9.644572442810716
 20
-21.09751279258028
 10
9.51535999956674
 20
-21.3124888432435
 10
9.478786428138402
 20
-21.34473879479366
 10
9.441858461638098
 20
-21.3766343512719
 10
9.186197856711618
 20
-21.48975725824795
 10
8.85972911640343
 20
-21.53823850409485
 10
8.751284224377565
 20
-21.53823850409485
 10
7.974875500683383
 20
-21.53823850409485
 10
7.974875500683383
 20
-19.94842221119191
  0
LWPOLYLINE
  5
239
330
6F
100
AcDbEntity
  8
0
100
AcDbPolyline
 90
       49
 70
     1
 43
0.0984431543045021
 10
5.646499877773869
 20
-18.4018421170705
 10
5.646499877773869
 20
-25.23323240357429
 10
5.646499877773869
 20
-25.30552899825821
 10
5.74339149045328
 20
-25.52284405639641
 10
5.961415338735376
 20
-25.61973566907582
 10
6.034491602577721
 20
-25.61973566907582
 10
7.586954654893956
 20
-25.61973566907582
 10
7.659605644649863
 20
-25.61973566907582
 10
7.877629492932104
 20
-25.52284405639641
 10
7.974875500683383
 20
-25.30552899825821
 10
7.974875500683383
 20
-25.23323240357429
 10
7.974875500683383
 20
-23.3640110359222
 10
8.524825773382222
 20
-23.3640110359222
 10
9.634932896852866
 20
-25.30822240080525
 10
9.665339994028759
 20
-25.3601767183576
 10
9.861036952776204
 20
-25.54169787422583
 10
10.09564649042702
 20
-25.61973566907582
 10
10.17410955936345
 20
-25.61973566907582
 10
11.7480489530417
 20
-25.61973566907582
 10
11.79036372463615
 20
-25.61973566907582
 10
11.91766243449143
 20
-25.58323297666189
 10
12.00682823460164
 20
-25.498603433473
 10
12.01753096577539
 20
-25.47478808463593
 10
12.02837545497796
 20
-25.45054746171248
 10
12.03603038853279
 20
-25.31750755169116
 10
11.9833672808365
 20
-25.16866162145952
 10
11.96380467286319
 20
-25.13634079089488
 10
10.67019178112128
 20
-23.00982860098519
 10
10.83052011168514
 20
-22.93483860375424
 10
11.27351395166029
 20
-22.62608961704511
 10
11.70502539130329
 20
-22.12079312341579
 10
11.96337939877685
 20
-21.49323032995333
 10
12.04992267535438
 20
-20.93059271367763
 10
12.04992267535438
 20
-20.74340123665773
 10
12.04992267535438
 20
-20.57215753787696
 10
11.99839363188843
 20
-20.05998577985121
 10
11.84486968670662
 20
-19.48239269153799
 10
11.5888546867082
 20
-19.01019669763167
 10
11.33078419529232
 20
-18.7203015287519
 10
11.23041951090746
 20
-18.64332691911777
 10
11.09397740819509
 20
-18.53835509879727
 10
10.20869851838877
 20
-18.1718397153554
 10
9.139701223267818
 20
-18.0150553355114
 10
8.783605054942144
 20
-18.0150553355114
 10
6.034491602577721
 20
-18.0150553355114
 10
5.961415338735376
 20
-18.0150553355114
 10
5.74339149045328
 20
-18.11152167410437
 10
5.646499877773869
 20
-18.32919112731458
 10
5.646499877773869
 20
-18.4018421170705
  0
LWPOLYLINE
  5
23A
330
6F
100
AcDbEntity
  8
0
100
AcDbPolyline
 90
       20
 70
     1
 43
0.0984431543045021
 10
15.28391946520205
 20
-19.94842221119191
 10
16.06032818889613
 20
-19.94842221119191
 10
16.17068681431078
 20
-19.94842221119191
 10
16.50211708562662
 20
-19.99002819264233
 10
16.75706890040915
 20
-20.08727420039368
 10
16.79321719775114
 20
-20.11498789502256
 10
16.82894022100667
 20
-20.14270158965139
 10
16.95475047155962
 20
-20.35533863283951
 10
17.00904379658704
 20
-20.64601347087761
 10
17.00904379658704
 20
-20.74340123665773
 10
17.00904379658704
 20
-20.83178736760961
 10
16.9536164073293
 20
-21.09751279258028
 10
16.82440396408537
 20
-21.3124888432435
 10
16.78783039265695
 20
-21.34473879479366
 10
16.75090242615669
 20
-21.3766343512719
 10
16.49524182123019
 20
-21.48975725824795
 10
16.16870220190768
 20
-21.53823850409485
 10
16.06032818889613
 20
-21.53823850409485
 10
15.28391946520205
 20
-21.53823850409485
 10
15.28391946520205
 20
-19.94842221119191
  0
LWPOLYLINE
  5
23B
330
6F
100
AcDbEntity
  8
0
100
AcDbPolyline
 90
       49
 70
     1
 43
0.0984431543045021
 10
12.95554384229246
 20
-18.4018421170705
 10
12.95554384229246
 20
-25.23323240357429
 10
12.95554384229246
 20
-25.30552899825821
 10
13.05236457595746
 20
-25.52284405639641
 10
13.27045930325402
 20
-25.61973566907582
 10
13.34346468808195
 20
-25.61973566907582
 10
14.89592774039822
 20
-25.61973566907582
 10
14.96857873015413
 20
-25.61973566907582
 10
15.18660257843627
 20
-25.52284405639641
 10
15.28391946520205
 20
-25.30552899825821
 10
15.28391946520205
 20
-25.23323240357429
 10
15.28391946520205
 20
-23.3640110359222
 10
15.83379885888646
 20
-23.3640110359222
 10
16.94433125644349
 20
-25.30822240080525
 10
16.97473835361937
 20
-25.3601767183576
 10
17.17043531236679
 20
-25.54169787422583
 10
17.40504485001763
 20
-25.61973566907582
 10
17.48350791895405
 20
-25.61973566907582
 10
19.05744731263231
 20
-25.61973566907582
 10
19.09976208422668
 20
-25.61973566907582
 10
19.22706079408196
 20
-25.58323297666189
 10
19.31580132010578
 20
-25.498603433473
 10
19.32657493029405
 20
-25.47478808463593
 10
19.33741941949662
 20
-25.45054746171248
 10
19.34542874812338
 20
-25.31750755169116
 10
19.29276564042713
 20
-25.16866162145952
 10
19.27320303245382
 20
-25.13634079089488
 10
17.97916486662546
 20
-23.00982860098519
 10
18.13956407620371
 20
-22.93483860375424
 10
18.58291231125088
 20
-22.62608961704511
 10
19.01399847680755
 20
-22.12079312341579
 10
19.27277775836746
 20
-21.49323032995333
 10
19.35932103494497
 20
-20.93059271367763
 10
19.35932103494497
 20
-20.74340123665773
 10
19.35932103494497
 20
-20.57215753787696
 10
19.30779199147904
 20
-20.05998577985121
 10
19.15426804629723
 20
-19.48239269153799
 10
18.89825304629879
 20
-19.01019669763167
 10
18.64018255488285
 20
-18.7203015287519
 10
18.53981787049805
 20
-18.64332691911777
 10
18.40295049369934
 20
-18.53835509879727
 10
17.51809687797929
 20
-18.1718397153554
 10
16.44867430877199
 20
-18.0150553355114
 10
16.09257814044631
 20
-18.0150553355114
 10
13.34346468808195
 20
-18.0150553355114
 10
13.27045930325402
 20
-18.0150553355114
 10
13.05236457595746
 20
-18.11152167410437
 10
12.95554384229246
 20
-18.32919112731458
 10
12.95554384229246
 20
-18.4018421170705
  0
LWPOLYLINE
  5
23C
330
6F
100
AcDbEntity
  8
0
100
AcDbPolyline
 90
        5
 70
     1
 43
0.0984431543045021
 10
23.54196255346906
 20
-20.31380353040344
 10
23.57428338403365
 20
-20.31380353040344
 10
24.18873355983282
 20
-22.52650460181868
 10
22.88441793691714
 20
-22.52650460181868
 10
23.54196255346906
 20
-20.31380353040344
  0
LWPOLYLINE
  5
23D
330
6F
100
AcDbEntity
  8
0
100
AcDbPolyline
 90
       41
 70
     1
 43
0.0984431543045021
 10
22.11920809749756
 20
-18.35881855533212
 10
19.88729881318096
 20
-25.15788801127129
 10
19.87461146960409
 20
-25.19169730113823
 10
19.85185930598295
 20
-25.34323663391687
 10
19.88347134640364
 20
-25.46940127954185
 10
19.8980015443548
 20
-25.49087762090386
 10
19.91231910526283
 20
-25.51242484128022
 10
20.01112445133088
 20
-25.58741483851128
 10
20.13643854878305
 20
-25.61973566907582
 10
20.17839892530546
 20
-25.61973566907582
 10
21.81726349617049
 20
-25.61973566907582
 10
21.89388371073262
 20
-25.61973566907582
 10
22.1240987494909
 20
-25.53092426403761
 10
22.27535456621206
 20
-25.32438281608754
 10
22.2914441024799
 20
-25.26555323413888
 10
22.51790255347525
 20
-24.43846601515159
 10
24.57715055872308
 20
-24.43846601515159
 10
24.81409910384905
 20
-25.26555323413888
 10
24.83018864011699
 20
-25.32438281608754
 10
24.98094830373732
 20
-25.53092426403761
 10
25.21165949559633
 20
-25.61973566907582
 10
25.28856322621609
 20
-25.61973566907582
 10
26.92714428102349
 20
-25.61973566907582
 10
26.96860850444514
 20
-25.61973566907582
 10
27.09399348091171
 20
-25.58741483851128
 10
27.19286970599425
 20
-25.51242484128022
 10
27.20739990394542
 20
-25.49087762090386
 10
27.22171746485338
 20
-25.46940127954185
 10
27.25318774724525
 20
-25.34323663391687
 10
27.23057734165291
 20
-25.19169730113823
 10
27.21824439314799
 20
-25.15788801127129
 10
24.98676038291782
 20
-18.35881855533212
 10
24.96663074282936
 20
-18.30147743268575
 10
24.81133482228758
 20
-18.10074806391622
 10
24.59487031232216
 20
-18.0150553355114
 10
24.52299899172456
 20
-18.0150553355114
 10
22.58254421460448
 20
-18.0150553355114
 10
22.5101767409061
 20
-18.0150553355114
 10
22.29371223094062
 20
-18.10074806391622
 10
22.13877070547087
 20
-18.30147743268575
 10
22.11920809749756
 20
-18.35881855533212
  0
LWPOLYLINE
  5
275
330
6F
100
AcDbEntity
  8
0
100
AcDbPolyline
 90
       33
 70
     1
 43
0.0984431543045021
 10
61.30951163523488
 20
-19.72434512655891
 10
62.68959692454
 20
-19.72434512655891
 10
62.68959692454
 20
-24.87987199668295
 10
62.68959692454
 20
-24.95216859136687
 10
62.78655941623373
 20
-25.16948364950506
 10
63.00465414353029
 20
-25.26637526218447
 10
63.07765952835822
 20
-25.26637526218447
 10
64.65159892203648
 20
-25.26637526218447
 10
64.7242499117924
 20
-25.26637526218447
 10
64.94227376007455
 20
-25.16948364950506
 10
65.03959064684031
 20
-24.95216859136687
 10
65.03959064684031
 20
-24.87987199668295
 10
65.03959064684031
 20
-19.72434512655891
 10
66.41974681515982
 20
-19.72434512655891
 10
66.49239780491574
 20
-19.72434512655891
 10
66.710421653198
 20
-19.62738263486512
 10
66.80766766094925
 20
-19.40971318165493
 10
66.80766766094925
 20
-19.33748746598536
 10
66.80766766094925
 20
-18.04848171017916
 10
66.80766766094925
 20
-17.97583072042324
 10
66.710421653198
 20
-17.75851566228503
 10
66.49239780491574
 20
-17.66204932369204
 10
66.41974681515982
 20
-17.66204932369204
 10
61.30951163523488
 20
-17.66204932369204
 10
61.23650625040695
 20
-17.66204932369204
 10
61.01848240212479
 20
-17.75851566228503
 10
60.92144903141655
 20
-17.97583072042324
 10
60.92144903141655
 20
-18.04848171017916
 10
60.92144903141655
 20
-19.33748746598536
 10
60.92144903141655
 20
-19.40971318165493
 10
61.01848240212479
 20
-19.62738263486512
 10
61.23650625040695
 20
-19.72434512655891
 10
61.30951163523488
 20
-19.72434512655891
  0
LWPOLYLINE
  5
276
330
6F
100
AcDbEntity
  8
0
100
AcDbPolyline
 90
       45
 70
     1
 43
0.0984431543045021
 10
72.7154335108584
 20
-21.95809726524976
 10
72.7154335108584
 20
-20.87336482893292
 10
72.7154335108584
 20
-20.8006429601626
 10
72.62088090565409
 20
-20.58332790202438
 10
72.40859825753793
 20
-20.4868615634314
 10
72.33821539624267
 20
-20.4868615634314
 10
69.91252288656742
 20
-20.4868615634314
 10
69.91252288656742
 20
-19.59506180430057
 10
72.50017394413767
 20
-19.59506180430057
 10
72.57282493389358
 20
-19.59506180430057
 10
72.79084878217574
 20
-19.49824107063555
 10
72.88809478992712
 20
-19.28092601249737
 10
72.88809478992712
 20
-19.2087002968278
 10
72.88809478992712
 20
-18.04848171017916
 10
72.88809478992712
 20
-17.97583072042324
 10
72.79084878217574
 20
-17.75816126721303
 10
72.57282493389358
 20
-17.66169492862006
 10
72.50017394413767
 20
-17.66169492862006
 10
67.99361532982364
 20
-17.66169492862006
 10
67.92060994499571
 20
-17.66169492862006
 10
67.70251521769916
 20
-17.75816126721303
 10
67.60569448403424
 20
-17.97583072042324
 10
67.60569448403424
 20
-18.04848171017916
 10
67.60569448403424
 20
-24.87987199668295
 10
67.60569448403424
 20
-24.95216859136687
 10
67.70251521769916
 20
-25.16948364950506
 10
67.92060994499571
 20
-25.26637526218447
 10
67.99361532982364
 20
-25.26637526218447
 10
72.56474472625241
 20
-25.26637526218447
 10
72.63739571600834
 20
-25.26637526218447
 10
72.85541956429058
 20
-25.16948364950506
 10
72.95273645105634
 20
-24.95216859136687
 10
72.95273645105634
 20
-24.87987199668295
 10
72.95273645105634
 20
-23.71979516806311
 10
72.95273645105634
 20
-23.6470024202784
 10
72.85541956429058
 20
-23.42975824115453
 10
72.63739571600834
 20
-23.33329190256156
 10
72.56474472625241
 20
-23.33329190256156
 10
69.91252288656742
 20
-23.33329190256156
 10
69.91252288656742
 20
-22.33425219464953
 10
72.33821539624267
 20
-22.33425219464953
 10
72.40859825753793
 20
-22.33425219464953
 10
72.62088090565409
 20
-22.23998310550277
 10
72.7154335108584
 20
-22.02848012654502
 10
72.7154335108584
 20
-21.95809726524976
  0
LWPOLYLINE
  5
277
330
6F
100
AcDbEntity
  8
0
100
AcDbPolyline
 90
       96
 70
     1
 43
0.0984431543045021
 10
76.37016813016086
 20
-22.94104743689392
 10
76.31934787683888
 20
-22.88406070931953
 10
76.20012937462476
 20
-22.68531595295303
 10
76.07906801803642
 20
-22.35424007670923
 10
76.00641702828042
 20
-21.94696925998963
 10
75.98217640535702
 20
-21.5847066174115
 10
75.98217640535702
 20
-21.46399965589506
 10
75.98217640535702
 20
-21.34208775113388
 10
76.00521208503568
 20
-20.9764229158648
 10
76.07481527717259
 20
-20.56723836575645
 10
76.19098598176766
 20
-20.23538282035428
 10
76.30517207395964
 20
-20.03805564427574
 10
76.35400771487859
 20
-19.98199034388846
 10
76.40057522733681
 20
-19.92812229294747
 10
76.57167716808878
 20
-19.79394831869579
 10
76.85391740341376
 20
-19.65934907035772
 10
77.19966523563764
 20
-19.57854699394628
 10
77.50728015811642
 20
-19.55203824256217
 10
77.60998384997624
 20
-19.55203824256217
 10
77.74451221929993
 20
-19.55203824256217
 10
78.14866435938608
 20
-19.60009421432265
 10
78.56550384304911
 20
-19.71321712129871
 10
78.64474658114385
 20
-19.74553795186329
 10
78.68054048341388
 20
-19.75971375474252
 10
78.83852980650266
 20
-19.80046918802024
 10
78.968167523833
 20
-19.80004391393386
 10
78.98964386519501
 20
-19.79394831869579
 10
79.01119108557132
 20
-19.78735657035699
 10
79.10538929570368
 20
-19.72009238569515
 10
79.18200951026581
 20
-19.60392168110006
 10
79.19455509581386
 20
-19.57365634195295
 10
79.63691102465952
 20
-18.61806546986565
 10
79.64917309415001
 20
-18.58567376028668
 10
79.68227359387299
 20
-18.44682177108488
 10
79.67610711962054
 20
-18.33915654821727
 10
79.6691609762097
 20
-18.32235822180545
 10
79.66193131674129
 20
-18.30541813736477
 10
79.47310962239022
 20
-18.12191236909344
 10
79.44263164619994
 20
-18.10227888210574
 10
79.29881812599046
 20
-18.00730100281511
 10
78.45323148424583
 20
-17.67509106234085
 10
77.52145596099563
 20
-17.53283688044805
 10
77.21114763596976
 20
-17.53283688044805
 10
77.00843365479709
 20
-17.53283688044805
 10
76.40163841255272
 20
-17.59244613155511
 10
75.68795761659908
 20
-17.77162827994827
 10
75.07003436909451
 20
-18.07038332562754
 10
74.66510255984998
 20
-18.3707685886379
 10
74.5481521860965
 20
-18.4887821476073
 10
74.42857928881046
 20
-18.60920559306614
 10
74.13287204075024
 20
-19.03327473619761
 10
73.83645600254599
 20
-19.71045283973726
 10
73.65876231345514
 20
-20.52074173231268
 10
73.59957833643441
 20
-21.2279016589419
 10
73.59957833643441
 20
-21.46399965589506
 10
73.59957833643441
 20
-21.69853831453151
 10
73.65989637768547
 20
-22.40272132255608
 10
73.84177192862566
 20
-23.21060032864201
 10
74.14513411024066
 20
-23.88777843218167
 10
74.44785838072611
 20
-24.31305251855786
 10
74.56969940647294
 20
-24.4338303590887
 10
74.68934318277338
 20
-24.55226919214443
 10
75.10192992557276
 20
-24.85449730952916
 10
75.72842953381922
 20
-25.15488257253949
 10
76.44941086825565
 20
-25.33519878516303
 10
77.06081324643578
 20
-25.39558770542841
 10
77.26501568691076
 20
-25.39558770542841
 10
77.57993114787234
 20
-25.39558770542841
 10
78.52588247400174
 20
-25.25021484690218
 10
79.38309327410732
 20
-24.91183843217551
 10
79.52882052770553
 20
-24.81530121456817
 10
79.55922762488149
 20
-24.79531333250847
 10
79.74804931923248
 20
-24.61223283832354
 10
79.75534985771526
 20
-24.59529275388286
 10
79.76222512211167
 20
-24.5779982743702
 10
79.76839159636416
 20
-24.4699786564307
 10
79.73536197565554
 20
-24.33190633638719
 10
79.72302902715068
 20
-24.300010779909
 10
79.26997036713126
 20
-23.33286662847521
 10
79.2554401691801
 20
-23.30245953129931
 10
79.08036900362188
 20
-23.11902464204236
 10
79.06002672649018
 20
-23.11292904680431
 10
79.03925917527217
 20
-23.10633729846547
 10
78.91274013457525
 20
-23.10598290339349
 10
78.75581399670249
 20
-23.14673833667119
 10
78.72009097344683
 20
-23.16098501856481
 10
78.63205923756698
 20
-23.1967080418204
 10
78.18949067167818
 20
-23.32216389730136
 10
77.78682699089427
 20
-23.37596106922795
 10
77.6529365327002
 20
-23.37596106922795
 10
77.54881526055249
 20
-23.37596106922795
 10
77.2373728712963
 20
-23.3486017696711
 10
76.8847497746761
 20
-23.26709090311563
 10
76.59591779101219
 20
-23.1310031954753
 10
76.41857849699334
 20
-22.99519900389248
 10
76.37016813016086
 20
-22.94104743689392
  0
LWPOLYLINE
  5
2A2
330
6F
100
AcDbEntity
  8
0
100
AcDbPolyline
 90
       73
 70
     1
 43
0.0
 10
82.6980077711291
 20
-3.700597473924538
 10
82.6980077711291
 20
-4.017760012286016
 10
82.63386179638448
 20
-4.970106430327893
 10
82.44565182517179
 20
-6.20295110662489
 10
82.13958766349113
 20
-7.392921696815534
 10
81.72201124087443
 20
-8.533742333133876
 10
81.19913236332157
 20
-9.619005024282046
 10
80.57696265153483
 20
-10.64296239662174
 10
79.86230646740762
 20
-11.59881008825936
 10
79.06084512281245
 20
-12.48047041672682
 10
78.17878842374932
 20
-13.281931761322
 10
77.22294073211166
 20
-13.9969843160449
 10
76.19937973036773
 20
-14.61875765723594
 10
75.11372066862382
 20
-15.14170259655472
 10
73.97290003230541
 20
-15.55921295740549
 10
72.78292944211482
 20
-15.86534318085208
 10
71.55008476581788
 20
-16.05348709029876
 10
70.59780440954185
 20
-16.11763306504339
 10
70.28057580941446
 20
-16.11763306504339
 10
69.96301690045725
 20
-16.11763306504339
 10
69.01073654418124
 20
-16.05348709029876
 10
67.77782580611834
 20
-15.86534318085208
 10
66.5879212776937
 20
-15.55921295740549
 10
65.44703457960943
 20
-15.14170259655472
 10
64.36183795022715
 20
-14.61875765723594
 10
63.33788057788746
 20
-13.9969843160449
 10
62.38196682448391
 20
-13.281931761322
 10
61.50030649601646
 20
-12.48047041672682
 10
60.69884515142127
 20
-11.59881008825936
 10
59.98385865846429
 20
-10.64296239662174
 10
59.36201925550733
 20
-9.619005024282046
 10
58.83914037795446
 20
-8.533742333133876
 10
58.42156395533774
 20
-7.392921696815534
 10
58.11549979365711
 20
-6.20295110662489
 10
57.92728982244442
 20
-4.970106430327893
 10
57.86354021829564
 20
-4.017760012286016
 10
57.86354021829564
 20
-3.700597473924538
 10
57.86354021829564
 20
-3.383038564967316
 10
57.92728982244442
 20
-2.430758208691397
 10
58.11549979365711
 20
-1.19784747062844
 10
58.42156395533774
 20
-0.0079429422037514
 10
58.83914037795446
 20
1.132943755880546
 10
59.36201925550733
 20
2.218536755858497
 10
59.98385865846429
 20
3.242163819368411
 10
60.69884515142127
 20
4.198011511006029
 10
61.50030649601646
 20
5.080002148303275
 10
62.38196682448391
 20
5.881463492898461
 10
63.33788057788746
 20
6.596119677025605
 10
64.36183795022715
 20
7.218289388812404
 10
65.44703457960943
 20
7.741234328131181
 10
66.5879212776937
 20
8.158810750747903
 10
67.77782580611834
 20
8.464874912428541
 10
69.01073654418124
 20
8.653018821875207
 10
69.96301690045725
 20
8.716834487790066
 10
70.28057580941446
 20
8.716834487790066
 10
70.59780440954185
 20
8.716834487790066
 10
71.55008476581788
 20
8.653018821875207
 10
72.78292944211482
 20
8.464874912428541
 10
73.97290003230541
 20
8.158810750747903
 10
75.11372066862382
 20
7.741234328131181
 10
76.19937973036773
 20
7.218289388812404
 10
77.22294073211166
 20
6.596119677025605
 10
78.17878842374932
 20
5.881463492898461
 10
79.06084512281245
 20
5.080002148303275
 10
79.86230646740762
 20
4.198011511006029
 10
80.57696265153483
 20
3.242163819368411
 10
81.19913236332157
 20
2.218536755858497
 10
81.72201124087443
 20
1.132943755880546
 10
82.13958766349113
 20
-0.0079429422037514
 10
82.44565182517179
 20
-1.19784747062844
 10
82.63386179638448
 20
-2.430758208691397
 10
82.6980077711291
 20
-3.383038564967316
 10
82.6980077711291
 20
-3.700597473924538
  0
LWPOLYLINE
  5
2A3
330
6F
100
AcDbEntity
  8
0
100
AcDbPolyline
 90
        8
 70
     1
 43
0.0
 10
68.81255124630915
 20
4.824871608175797
 10
75.37281491470877
 20
5.398287736686036
 10
72.0927161113919
 20
-1.18489936450079
 10
75.37281491470877
 20
-0.9326094803094804
 10
66.22055179720454
 20
-14.35140569040635
 10
68.30790541616058
 20
-4.476558976860157
 10
65.18833670412013
 20
-4.786190473902493
 10
68.81255124630915
 20
4.824871608175797
  0
LWPOLYLINE
  5
2A4
330
6F
100
AcDbEntity
  8
0
100
AcDbPolyline
 90
       25
 70
     1
 43
0.0
 10
60.45157596144278
 20
-6.810455106369143
 10
60.45157596144278
 20
-6.864559692688253
 10
60.40784307237896
 20
-7.027005575177501
 10
60.28853552305981
 20
-7.203720799113543
 10
60.11182029912379
 20
-7.322962286666651
 10
59.9494404784005
 20
-7.366761237496408
 10
59.89540195384731
 20
-7.366761237496408
 10
59.84090099693247
 20
-7.366761237496408
 10
59.67852117620921
 20
-7.322962286666651
 10
59.50180595227317
 20
-7.203720799113543
 10
59.38249840295404
 20
-7.027005575177501
 10
59.3390958227201
 20
-6.864559692688253
 10
59.3390958227201
 20
-6.810455106369143
 10
59.3390958227201
 20
-6.756020211220246
 10
59.38249840295404
 20
-6.593640390496958
 10
59.50180595227317
 20
-6.416925166560911
 10
59.67852117620921
 20
-6.297617617241844
 10
59.84090099693247
 20
-6.254215037007835
 10
59.89540195384731
 20
-6.254215037007835
 10
59.9494404784005
 20
-6.254215037007835
 10
60.11182029912379
 20
-6.297617617241844
 10
60.28853552305981
 20
-6.416925166560911
 10
60.40784307237896
 20
-6.593640390496958
 10
60.45157596144278
 20
-6.756020211220246
 10
60.45157596144278
 20
-6.810455106369143
  0
LWPOLYLINE
  5
2A5
330
6F
100
AcDbEntity
  8
0
100
AcDbPolyline
 90
       25
 70
     1
 43
0.0
 10
80.72890471323677
 20
-0.3648086019056276
 10
80.72890471323677
 20
-0.4189792499906951
 10
80.68510576240699
 20
-0.5813590707139831
 10
80.56586427485404
 20
-0.7580742946500277
 10
80.3891490509179
 20
-0.8773818439690952
 10
80.22670316842866
 20
-0.9211147330328941
 10
80.17266464387557
 20
-0.9211147330328941
 10
80.11816368696063
 20
-0.9211147330328941
 10
79.95578386623733
 20
-0.8773818439690952
 10
79.77906864230131
 20
-0.7580742946500277
 10
79.65976109298226
 20
-0.5813590707139831
 10
79.61642457451422
 20
-0.4189792499906951
 10
79.61642457451422
 20
-0.3648086019056276
 10
79.61642457451422
 20
-0.3104397685226843
 10
79.65976109298226
 20
-0.1480599477993998
 10
79.77906864230131
 20
0.0286552761366465
 10
79.95578386623733
 20
0.1479628254557141
 10
80.11816368696063
 20
0.1913654056897229
 10
80.17266464387557
 20
0.1913654056897229
 10
80.22670316842866
 20
0.1913654056897229
 10
80.3891490509179
 20
0.1479628254557141
 10
80.56586427485404
 20
0.0286552761366465
 10
80.68510576240699
 20
-0.1480599477993998
 10
80.72890471323677
 20
-0.3104397685226843
 10
80.72890471323677
 20
-0.3648086019056276
  0
LWPOLYLINE
  5
2A6
330
6F
100
AcDbEntity
  8
0
100
AcDbPolyline
 90
       47
 70
     1
 43
0.0
 10
58.93413719740127
 20
-6.453193076071521
 10
58.93413719740127
 20
-6.453193076071521
 10
58.92118909127361
 20
-6.397899377965181
 10
58.8882242700608
 20
-6.239549324965292
 10
58.84165072506089
 20
-5.986532761348453
 10
58.78893343582683
 20
-5.6482304578806
 10
58.7372731348482
 20
-5.233494691200048
 10
58.69360630755025
 20
-4.752168664434432
 10
58.66493550112474
 20
-4.21310465422205
 10
58.65846144806093
 20
-3.626013740158635
 10
58.68178125144392
 20
-2.999153642988863
 10
58.74123684080561
 20
-2.34256575113827
 10
58.84449138099698
 20
-1.66477203241534
 10
58.99821711037993
 20
-0.9760120605434909
 10
59.21007719380527
 20
-0.2842793092035549
 10
59.48707417846463
 20
0.4006490802427667
 10
59.83621061154952
 20
1.069458398795482
 10
60.14874882629399
 20
1.558645775710029
 10
60.26448904025137
 20
1.7128339374546
 10
60.26448904025137
 20
1.7128339374546
 10
60.24156560746414
 20
1.657936609944002
 10
60.17920330040038
 20
1.499586556944116
 10
60.0867168280599
 20
1.247626981582595
 10
59.97381727003883
 20
0.9118350252211264
 10
59.84955508827292
 20
0.5021199527533309
 10
59.72364136235814
 20
0.0283249673068564
 10
59.60572111012422
 20
-0.499640666224682
 10
59.50510904057111
 20
-1.072065868245552
 10
59.43085561563492
 20
-1.679173497394057
 10
59.39287010020938
 20
-2.310723979946804
 10
59.40000477093277
 20
-2.95760079220166
 10
59.46276344859239
 20
-3.609234051605454
 10
59.58966810099656
 20
-4.256176925626274
 10
59.79036374597507
 20
-4.888718334668377
 10
60.0745614631238
 20
-5.496949013838156
 10
60.34693412416618
 20
-5.93493852213572
 10
60.45157596144278
 20
-6.070761512944134
 10
60.45157596144278
 20
-6.070761512944134
 10
60.4151098666342
 20
-6.050678736093086
 10
60.31324262352782
 20
-6.005492488178223
 10
60.15661017644294
 20
-5.957861954922936
 10
59.95631090206008
 20
-5.929191148497427
 10
59.72298074469858
 20
-5.942073192859119
 10
59.46771808103915
 20
-6.019101211965448
 10
59.20109279363514
 20
-6.181877403284481
 10
58.99293216910326
 20
-6.378939651135404
 10
58.93413719740127
 20
-6.453193076071521
  0
LWPOLYLINE
  5
2A7
330
6F
100
AcDbEntity
  8
0
100
AcDbPolyline
 90
       47
 70
     1
 43
0.0
 10
81.04249991623657
 20
-0.7375951472032334
 10
81.04249991623657
 20
-0.7375951472032334
 10
81.05505165176856
 20
-0.7924924747138374
 10
81.08801647298127
 20
-0.9508425277137213
 10
81.13465607974726
 20
-1.203925153096522
 10
81.18691093661947
 20
-1.54255776539415
 10
81.23896760819397
 20
-1.956897161478966
 10
81.28263443549171
 20
-2.438289250010537
 10
81.31130524191721
 20
-2.977287198456965
 10
81.31738292438537
 20
-3.564708421350168
 10
81.29445949159814
 20
-4.191304271456106
 10
81.23500390223645
 20
-4.847892163306704
 10
81.13174936204508
 20
-5.525619820263671
 10
80.97762726206649
 20
-6.214776162731268
 10
80.76576717864112
 20
-6.906112543475458
 10
80.48916656457739
 20
-7.591106994687738
 10
80.14003013149253
 20
-8.2598502514745
 10
79.82749191674807
 20
-8.749103690154999
 10
79.71208201162046
 20
-8.903622160729362
 10
79.71208201162046
 20
-8.903622160729362
 10
79.73467513557804
 20
-8.848328462623015
 10
79.79703744264178
 20
-8.689978409623126
 10
79.88952391498205
 20
-8.438018834261605
 10
80.00242347300334
 20
-8.10222687790014
 10
80.12681777830108
 20
-7.692577867198306
 10
80.25259938068403
 20
-7.218716819985875
 10
80.37051963291794
 20
-6.690817248220287
 10
80.47113170247106
 20
-6.118458107965377
 10
80.54538512740725
 20
-5.511218355284956
 10
80.58337064283268
 20
-4.879403625668382
 10
80.57583960151353
 20
-4.232857122243309
 10
80.51347729444977
 20
-3.581223862839518
 10
80.38663870381158
 20
-2.933884618222954
 10
80.18554668823721
 20
-2.301739579776594
 10
79.90134897108848
 20
-1.69350890060681
 10
79.6289763100461
 20
-1.255189083479463
 10
79.5246647815994
 20
-1.120026710330622
 10
79.5246647815994
 20
-1.120026710330622
 10
79.56086662934407
 20
-1.139779178351885
 10
79.66266781068435
 20
-1.18489936450079
 10
79.81923419600349
 20
-1.232662021287991
 10
80.01966559391817
 20
-1.261266765947548
 10
80.25299575127979
 20
-1.248318659819897
 10
80.50852266200301
 20
-1.171356702479528
 10
80.77514794940702
 20
-1.008580511160491
 10
80.98370494453456
 20
-0.8115182633095656
 10
81.04249991623657
 20
-0.7375951472032334
  0
LWPOLYLINE
  5
2D8
330
6F
100
AcDbEntity
  8
0
  6
Continuous
 62
     1
100
AcDbPolyline
 90
        4
 70
     1
 43
0.0
 10
-20.12267882992182
 20
-26.37865000998477
 10
47.62106963592851
 20
-26.37865000998477
 10
47.62106963592851
 20
25.0525286188838
 10
-20.12267882992182
 20
25.0525286188838
  0
LWPOLYLINE
  5
2EA
330
6F
100
AcDbEntity
  8
0
  6
Continuous
 62
     1
100
AcDbPolyline
 90
        4
 70
     1
 43
0.0
 10
56.67575579014192
 20
9.455529748886419
 10
83.96358637474532
 20
9.455529748886419
 10
83.96358637474532
 20
-26.5976854382061
 10
56.67575579014192
 20
-26.5976854382061
  0
ENDSEC
  0
SECTION
  2
OBJECTS
  0
DICTIONARY
  5
C
330
0
100
AcDbDictionary
281
     1
  3
ACAD_CIP_PREVIOUS_PRODUCT_INFO
350
208
  3
ACAD_COLOR
350
62
  3
ACAD_DETAILVIEWSTYLE
350
69
  3
ACAD_GROUP
350
D
  3
ACAD_LAYOUT
350
61
  3
ACAD_MATERIAL
350
10
  3
ACAD_MLEADERSTYLE
350
65
  3
ACAD_MLINESTYLE
350
5E
  3
ACAD_PLOTSETTINGS
350
60
  3
ACAD_PLOTSTYLENAME
350
E
  3
ACAD_SCALELIST
350
42
  3
ACAD_SECTIONVIEWSTYLE
350
67
  3
ACAD_TABLESTYLE
350
63
  3
ACAD_VISUALSTYLE
350
29
  3
ACDB_RECOMPOSE_DATA
350
2FB
  3
AcDbVariableDictionary
350
2EB
  0
DICTIONARY
  5
21F
330
2
100
AcDbDictionary
280
     1
281
     1
  3
ACAD_LAYERSTATES
360
220
  0
DICTIONARY
  5
241
330
54
100
AcDbDictionary
280
     1
281
     1
  3
ADSK_XREC_LAYER_RECONCILED
360
242
  0
XRECORD
  5
208
102
{ACAD_REACTORS
330
C
102
}
330
C
100
AcDbXrecord
280
     1
300
ACD
300
2017
300
ACD_F_S
  0
DICTIONARY
  5
62
102
{ACAD_REACTORS
330
C
102
}
330
C
100
AcDbDictionary
281
     1
  0
DICTIONARY
  5
69
102
{ACAD_REACTORS
330
C
102
}
330
C
100
AcDbDictionary
281
     1
  3
Imperial24
350
6A
  0
DICTIONARY
  5
D
102
{ACAD_REACTORS
330
C
102
}
330
C
100
AcDbDictionary
281
     1
  0
DICTIONARY
  5
61
102
{ACAD_REACTORS
330
C
102
}
330
C
100
AcDbDictionary
281
     1
  3
Layout1
350
6E
  3
Model
350
72
  0
DICTIONARY
  5
10
102
{ACAD_REACTORS
330
C
102
}
330
C
100
AcDbDictionary
281
     1
  3
ByBlock
350
19
  3
ByLayer
350
11
  3
Global
350
21
  0
DICTIONARY
  5
65
102
{ACAD_REACTORS
330
C
102
}
330
C
100
AcDbDictionary
281
     1
  3
Standard
350
66
  0
DICTIONARY
  5
5E
102
{ACAD_REACTORS
330
C
102
}
330
C
100
AcDbDictionary
281
     1
  3
Standard
350
5F
  0
DICTIONARY
  5
60
102
{ACAD_REACTORS
330
C
102
}
330
C
100
AcDbDictionary
281
     1
  0
ACDBDICTIONARYWDFLT
  5
E
102
{ACAD_REACTORS
330
C
102
}
330
C
100
AcDbDictionary
281
     1
  3
Normal
350
F
100
AcDbDictionaryWithDefault
340
F
  0
DICTIONARY
  5
42
102
{ACAD_REACTORS
330
C
102
}
330
C
100
AcDbDictionary
281
     1
  3
A0
350
43
  3
A1
350
44
  3
A2
350
45
  3
A3
350
46
  3
A4
350
47
  3
A5
350
48
  3
A6
350
49
  3
A7
350
4A
  3
A8
350
4B
  3
A9
350
4C
  3
B0
350
4D
  3
B1
350
4E
  3
B2
350
4F
  3
B3
350
50
  3
B4
350
51
  3
B5
350
52
  3
B6
350
53
  0
DICTIONARY
  5
67
102
{ACAD_REACTORS
330
C
102
}
330
C
100
AcDbDictionary
281
     1
  3
Imperial24
350
68
  0
DICTIONARY
  5
63
102
{ACAD_REACTORS
330
C
102
}
330
C
100
AcDbDictionary
281
     1
  3
Standard
350
64
  0
DICTIONARY
  5
29
102
{ACAD_REACTORS
330
C
102
}
330
C
100
AcDbDictionary
281
     1
  3
2dWireframe
350
2F
  3
Basic
350
2E
  3
Brighten
350
35
  3
ColorChange
350
39
  3
Conceptual
350
32
  3
Dim
350
34
  3
EdgeColorOff
350
41
  3
Facepattern
350
38
  3
Flat
350
2A
  3
FlatWithEdges
350
2B
  3
Gouraud
350
2C
  3
GouraudWithEdges
350
2D
  3
Hidden
350
31
  3
JitterOff
350
3F
  3
Linepattern
350
37
  3
OverhangOff
350
40
  3
Realistic
350
33
  3
Shaded
350
3E
  3
Shaded with edges
350
3D
  3
Shades of Gray
350
3A
  3
Sketchy
350
3B
  3
Thicken
350
36
  3
Wireframe
350
30
  3
X-Ray
350
3C
  0
XRECORD
  5
2FB
102
{ACAD_REACTORS
330
C
102
}
330
C
100
AcDbXrecord
280
     1
 90
        1
330
64
330
68
330
6A
  0
DICTIONARY
  5
2EB
102
{ACAD_REACTORS
330
C
102
}
330
C
100
AcDbDictionary
281
     1
  3
CANNOSCALE
350
2F1
  3
CMLEADERSTYLE
350
2ED
  3
CTABLESTYLE
350
2EC
  3
CVIEWDETAILSTYLE
350
2EE
  3
CVIEWSECTIONSTYLE
350
2EF
  3
LAYEREVAL
350
2F3
  3
LAYERNOTIFY
350
2F4
  3
LIGHTINGUNITS
350
2F2
  3
MSLTSCALE
350
2F0
  0
DICTIONARY
  5
220
102
{ACAD_REACTORS
330
21F
102
}
330
21F
100
AcDbDictionary
281
     1
  0
XRECORD
  5
242
102
{ACAD_REACTORS
330
241
102
}
330
241
100
AcDbXrecord
280
     1
290
     1
  0
ACDBDETAILVIEWSTYLE
  5
6A
102
{ACAD_XDICTIONARY
360
2F9
102
}
102
{ACAD_REACTORS
330
69
102
}
330
69
100
AcDbModelDocViewStyle
 70
     0
  3
Imperial24
290
     0
100
AcDbDetailViewStyle
 70
     0
 71
     0
 90
        3
 71
     1
340
55
 62
   256
 40
0.24
340
0
 62
   256
 40
0.24
300

 40
0.36
280
     3
 71
     2
340
5C
 90
       25
 62
   256
 71
     3
340
55
 62
   256
 40
0.24
 90
        1
 40
0.75
 90
        1
300
%<\AcVar ViewType \f "%tc1">% %<\AcVar ViewDetailId>%\PSCALE %<\AcVar ViewScale \f "%sn">%
 71
     4
340
5C
 90
       25
 62
   256
340
5C
 90
       25
 62
   256
280
     0
  0
LAYOUT
  5
6E
102
{ACAD_REACTORS
330
61
102
}
330
61
100
AcDbPlotSettings
  1

  2
Canon MP280 series Printer
  4

  6

 40
0.0
 41
0.0
 42
0.0
 43
0.0
 44
0.0
 45
0.0
 46
0.0
 47
0.0
 48
0.0
 49
0.0
140
0.0
141
0.0
142
1.0
143
1.0
 70
   688
 72
     0
 73
     0
 74
     5
  7

 75
    16
147
1.0
 76
     0
 77
     2
 78
   300
148
0.0
149
0.0
100
AcDbLayout
  1
Layout1
 70
     1
 71
     1
 10
0.0
 20
0.0
 11
12.0
 21
9.0
 12
0.0
 22
0.0
 32
0.0
 14
1.000000000000000E+20
 24
1.000000000000000E+20
 34
1.000000000000000E+20
 15
-1.000000000000000E+20
 25
-1.000000000000000E+20
 35
-1.000000000000000E+20
146
0.0
 13
0.0
 23
0.0
 33
0.0
 16
1.0
 26
0.0
 36
0.0
 17
0.0
 27
1.0
 37
0.0
 76
     0
330
6B
  0
LAYOUT
  5
72
102
{ACAD_REACTORS
330
61
102
}
330
61
100
AcDbPlotSettings
  1

  2
Canon MP280 series Printer
  4

  6

 40
0.0
 41
0.0
 42
0.0
 43
0.0
 44
0.0
 45
0.0
 46
0.0
 47
0.0
 48
0.0
 49
0.0
140
0.0
141
0.0
142
1.0
143
1.0
 70
  1712
 72
     0
 73
     0
 74
     0
  7

 75
     0
147
1.0
 76
     0
 77
     2
 78
   300
148
0.0
149
0.0
100
AcDbLayout
  1
Model
 70
     1
 71
     0
 10
0.0
 20
0.0
 11
12.0
 21
9.0
 12
0.0
 22
0.0
 32
0.0
 14
0.0
 24
0.0
 34
0.0
 15
0.0
 25
0.0
 35
0.0
146
0.0
 13
0.0
 23
0.0
 33
0.0
 16
1.0
 26
0.0
 36
0.0
 17
0.0
 27
1.0
 37
0.0
 76
     0
330
6F
331
74
  0
MATERIAL
  5
19
102
{ACAD_XDICTIONARY
360
1A
102
}
102
{ACAD_REACTORS
330
10
102
}
330
10
100
AcDbMaterial
  1
ByBlock
 72
     0
 43
0.0208333333333333
 43
0.0
 43
0.0
 43
0.0
 43
0.0
 43
0.0208333333333333
 43
0.0
 43
0.0
 43
0.0
 43
0.0
 43
1.0
 43
0.0
 43
0.0
 43
0.0
 43
0.0
 43
1.0
 77
     0
 47
0.0208333333333333
 47
0.0
 47
0.0
 47
0.0
 47
0.0
 47
0.0208333333333333
 47
0.0
 47
0.0
 47
0.0
 47
0.0
 47
1.0
 47
0.0
 47
0.0
 47
0.0
 47
0.0
 47
1.0
171
     0
 49
0.0208333333333333
 49
0.0
 49
0.0
 49
0.0
 49
0.0
 49
0.0208333333333333
 49
0.0
 49
0.0
 49
0.0
 49
0.0
 49
1.0
 49
0.0
 49
0.0
 49
0.0
 49
0.0
 49
1.0
175
     0
142
0.0208333333333333
142
0.0
142
0.0
142
0.0
142
0.0
142
0.0208333333333333
142
0.0
142
0.0
142
0.0
142
0.0
142
1.0
142
0.0
142
0.0
142
0.0
142
0.0
142
1.0
179
     0
144
0.0208333333333333
144
0.0
144
0.0
144
0.0
144
0.0
144
0.0208333333333333
144
0.0
144
0.0
144
0.0
144
0.0
144
1.0
144
0.0
144
0.0
144
0.0
144
0.0
144
1.0
147
0.0208333333333333
147
0.0
147
0.0
147
0.0
147
0.0
147
0.0208333333333333
147
0.0
147
0.0
147
0.0
147
0.0
147
1.0
147
0.0
147
0.0
147
0.0
147
0.0
147
1.0
  0
MATERIAL
  5
11
102
{ACAD_XDICTIONARY
360
12
102
}
102
{ACAD_REACTORS
330
10
102
}
330
10
100
AcDbMaterial
  1
ByLayer
 72
     0
 43
0.0208333333333333
 43
0.0
 43
0.0
 43
0.0
 43
0.0
 43
0.0208333333333333
 43
0.0
 43
0.0
 43
0.0
 43
0.0
 43
1.0
 43
0.0
 43
0.0
 43
0.0
 43
0.0
 43
1.0
 77
     0
 47
0.0208333333333333
 47
0.0
 47
0.0
 47
0.0
 47
0.0
 47
0.0208333333333333
 47
0.0
 47
0.0
 47
0.0
 47
0.0
 47
1.0
 47
0.0
 47
0.0
 47
0.0
 47
0.0
 47
1.0
171
     0
 49
0.0208333333333333
 49
0.0
 49
0.0
 49
0.0
 49
0.0
 49
0.0208333333333333
 49
0.0
 49
0.0
 49
0.0
 49
0.0
 49
1.0
 49
0.0
 49
0.0
 49
0.0
 49
0.0
 49
1.0
175
     0
142
0.0208333333333333
142
0.0
142
0.0
142
0.0
142
0.0
142
0.0208333333333333
142
0.0
142
0.0
142
0.0
142
0.0
142
1.0
142
0.0
142
0.0
142
0.0
142
0.0
142
1.0
179
     0
144
0.0208333333333333
144
0.0
144
0.0
144
0.0
144
0.0
144
0.0208333333333333
144
0.0
144
0.0
144
0.0
144
0.0
144
1.0
144
0.0
144
0.0
144
0.0
144
0.0
144
1.0
147
0.0208333333333333
147
0.0
147
0.0
147
0.0
147
0.0
147
0.0208333333333333
147
0.0
147
0.0
147
0.0
147
0.0
147
1.0
147
0.0
147
0.0
147
0.0
147
0.0
147
1.0
  0
MATERIAL
  5
21
102
{ACAD_XDICTIONARY
360
22
102
}
102
{ACAD_REACTORS
330
10
102
}
330
10
100
AcDbMaterial
  1
Global
 72
     0
 43
0.0208333333333333
 43
0.0
 43
0.0
 43
0.0
 43
0.0
 43
0.0208333333333333
 43
0.0
 43
0.0
 43
0.0
 43
0.0
 43
1.0
 43
0.0
 43
0.0
 43
0.0
 43
0.0
 43
1.0
 77
     0
 47
0.0208333333333333
 47
0.0
 47
0.0
 47
0.0
 47
0.0
 47
0.0208333333333333
 47
0.0
 47
0.0
 47
0.0
 47
0.0
 47
1.0
 47
0.0
 47
0.0
 47
0.0
 47
0.0
 47
1.0
171
     0
 49
0.0208333333333333
 49
0.0
 49
0.0
 49
0.0
 49
0.0
 49
0.0208333333333333
 49
0.0
 49
0.0
 49
0.0
 49
0.0
 49
1.0
 49
0.0
 49
0.0
 49
0.0
 49
0.0
 49
1.0
175
     0
142
0.0208333333333333
142
0.0
142
0.0
142
0.0
142
0.0
142
0.0208333333333333
142
0.0
142
0.0
142
0.0
142
0.0
142
1.0
142
0.0
142
0.0
142
0.0
142
0.0
142
1.0
179
     0
144
0.0208333333333333
144
0.0
144
0.0
144
0.0
144
0.0
144
0.0208333333333333
144
0.0
144
0.0
144
0.0
144
0.0
144
1.0
144
0.0
144
0.0
144
0.0
144
0.0
144
1.0
147
0.0208333333333333
147
0.0
147
0.0
147
0.0
147
0.0
147
0.0208333333333333
147
0.0
147
0.0
147
0.0
147
0.0
147
1.0
147
0.0
147
0.0
147
0.0
147
0.0
147
1.0
  0
MLEADERSTYLE
  5
66
102
{ACAD_REACTORS
330
65
102
}
330
65
100
AcDbMLeaderStyle
179
     2
170
     2
171
     1
172
     0
 90
        2
 40
0.0
 41
0.0
173
     1
 91
-1056964608
340
5A
 92
       -2
290
     1
 42
0.09
291
     1
 43
0.36
  3
Standard
 44
0.18
300

342
55
174
     1
178
     6
175
     1
176
     0
 93
-1056964608
 45
0.18
292
     0
297
     0
 46
0.18
 94
-1056964608
 47
1.0
 49
1.0
140
1.0
293
     1
141
0.0
294
     1
177
     0
142
1.0
295
     0
296
     0
143
0.125
271
     0
272
     9
273
     9
298
     0
  0
MLINESTYLE
  5
5F
102
{ACAD_REACTORS
330
5E
102
}
330
5E
100
AcDbMlineStyle
  2
STANDARD
 70
     0
  3

 62
   256
 51
90.0
 52
90.0
 71
     2
 49
0.5
 62
   256
  6
BYLAYER
 49
-0.5
 62
   256
  6
BYLAYER
  0
ACDBPLACEHOLDER
  5
F
102
{ACAD_REACTORS
330
E
102
}
330
E
  0
SCALE
  5
43
102
{ACAD_REACTORS
330
42
102
}
330
42
100
AcDbScale
 70
     0
300
1:1
140
1.0
141
1.0
290
     1
  0
SCALE
  5
44
102
{ACAD_REACTORS
330
42
102
}
330
42
100
AcDbScale
 70
     0
300
1/128" = 1'-0"
140
0.0078125
141
12.0
290
     0
  0
SCALE
  5
45
102
{ACAD_REACTORS
330
42
102
}
330
42
100
AcDbScale
 70
     0
300
1/64" = 1'-0"
140
0.015625
141
12.0
290
     0
  0
SCALE
  5
46
102
{ACAD_REACTORS
330
42
102
}
330
42
100
AcDbScale
 70
     0
300
1/32" = 1'-0"
140
0.03125
141
12.0
290
     0
  0
SCALE
  5
47
102
{ACAD_REACTORS
330
42
102
}
330
42
100
AcDbScale
 70
     0
300
1/16" = 1'-0"
140
0.0625
141
12.0
290
     0
  0
SCALE
  5
48
102
{ACAD_REACTORS
330
42
102
}
330
42
100
AcDbScale
 70
     0
300
3/32" = 1'-0"
140
0.09375
141
12.0
290
     0
  0
SCALE
  5
49
102
{ACAD_REACTORS
330
42
102
}
330
42
100
AcDbScale
 70
     0
300
1/8" = 1'-0"
140
0.125
141
12.0
290
     0
  0
SCALE
  5
4A
102
{ACAD_REACTORS
330
42
102
}
330
42
100
AcDbScale
 70
     0
300
3/16" = 1'-0"
140
0.1875
141
12.0
290
     0
  0
SCALE
  5
4B
102
{ACAD_REACTORS
330
42
102
}
330
42
100
AcDbScale
 70
     0
300
1/4" = 1'-0"
140
0.25
141
12.0
290
     0
  0
SCALE
  5
4C
102
{ACAD_REACTORS
330
42
102
}
330
42
100
AcDbScale
 70
     0
300
3/8" = 1'-0"
140
0.375
141
12.0
290
     0
  0
SCALE
  5
4D
102
{ACAD_REACTORS
330
42
102
}
330
42
100
AcDbScale
 70
     0
300
1/2" = 1'-0"
140
0.5
141
12.0
290
     0
  0
SCALE
  5
4E
102
{ACAD_REACTORS
330
42
102
}
330
42
100
AcDbScale
 70
     0
300
3/4" = 1'-0"
140
0.75
141
12.0
290
     0
  0
SCALE
  5
4F
102
{ACAD_REACTORS
330
42
102
}
330
42
100
AcDbScale
 70
     0
300
1" = 1'-0"
140
1.0
141
12.0
290
     0
  0
SCALE
  5
50
102
{ACAD_REACTORS
330
42
102
}
330
42
100
AcDbScale
 70
     0
300
1-1/2" = 1'-0"
140
1.5
141
12.0
290
     0
  0
SCALE
  5
51
102
{ACAD_REACTORS
330
42
102
}
330
42
100
AcDbScale
 70
     0
300
3" = 1'-0"
140
3.0
141
12.0
290
     0
  0
SCALE
  5
52
102
{ACAD_REACTORS
330
42
102
}
330
42
100
AcDbScale
 70
     0
300
6" = 1'-0"
140
6.0
141
12.0
290
     0
  0
SCALE
  5
53
102
{ACAD_REACTORS
330
42
102
}
330
42
100
AcDbScale
 70
     0
300
1'-0" = 1'-0"
140
12.0
141
12.0
290
     0
  0
ACDBSECTIONVIEWSTYLE
  5
68
102
{ACAD_XDICTIONARY
360
2F7
102
}
102
{ACAD_REACTORS
330
67
102
}
330
67
100
AcDbModelDocViewStyle
 70
     0
  3
Imperial24
290
     0
100
AcDbSectionViewStyle
 70
     0
 71
     0
 90
       78
 71
     1
340
55
 62
   256
 40
0.24
340
0
340
0
 62
   256
 40
0.24
300
I, O, Q, S, X, Z
 40
0.48
 90
        3
 40
0.18
 90
        1
 71
     2
340
5C
 90
       25
 62
   256
340
5C
 90
       50
 62
   256
 40
0.24
 40
0.0
 40
0.24
 71
     3
340
55
 62
   256
 40
0.24
 90
        1
 40
0.75
 90
        1
300
%<\AcVar ViewType \f "%tc1">% %<\AcVar ViewSectionStartId>%-%<\AcVar ViewSectionEndId>%\PSCALE %<\AcVar ViewScale \f "%sn">%
 71
     4
 62
   256
 62
   257
300
ANSI31
 40
1.0
 90
        0
290
     0
290
     0
 90
        6
 40
0.0
 40
1.570796326794896
 40
0.2617993877991494
 40
1.308996938995747
 40
-0.2617993877991494
 40
1.832595714594046
  0
TABLESTYLE
  5
64
102
{ACAD_XDICTIONARY
360
2F5
102
}
102
{ACAD_REACTORS
330
63
102
}
330
63
100
AcDbTableStyle
280
     0
  3
Standard
 70
     0
 71
     0
 40
0.06
 41
0.06
280
     0
281
     0
  7
Standard
140
0.18
170
     2
 62
     0
 63
     7
283
     0
 90
      512
 91
        0
  1

274
    -2
284
     1
 64
     0
275
    -2
285
     1
 65
     0
276
    -2
286
     1
 66
     0
277
    -2
287
     1
 67
     0
278
    -2
288
     1
 68
     0
279
    -2
289
     1
 69
     0
  7
Standard
140
0.25
170
     5
 62
     0
 63
     7
283
     0
 90
      512
 91
        0
  1

274
    -2
284
     1
 64
     0
275
    -2
285
     1
 65
     0
276
    -2
286
     1
 66
     0
277
    -2
287
     1
 67
     0
278
    -2
288
     1
 68
     0
279
    -2
289
     1
 69
     0
  7
Standard
140
0.18
170
     5
 62
     0
 63
     7
283
     0
 90
      512
 91
        0
  1

274
    -2
284
     1
 64
     0
275
    -2
285
     1
 65
     0
276
    -2
286
     1
 66
     0
277
    -2
287
     1
 67
     0
278
    -2
288
     1
 68
     0
279
    -2
289
     1
 69
     0
  0
VISUALSTYLE
  5
2F
102
{ACAD_REACTORS
330
29
102
}
330
29
100
AcDbVisualStyle
  2
2dWireframe
 70
     4
177
     3
291
     0
 70
    58
 90
        0
176
     1
 90
        2
176
     1
 90
        0
176
     1
 90
        0
176
     1
 40
0.6
176
     1
 40
30.0
176
     1
 62
     7
420
 16777215
176
     1
 90
        1
176
     1
 90
        4
176
     1
 62
     7
176
     1
 62
   257
176
     1
 90
        1
176
     1
 90
        1
176
     1
 40
1.0
176
     1
 90
        0
176
     1
 62
   257
176
     1
 40
1.0
176
     1
 90
        1
176
     1
 90
        6
176
     1
 90
        2
176
     1
 62
     7
176
     1
 90
        5
176
     1
 90
        0
176
     1
 90
        0
176
     1
290
     0
176
     1
 90
        1
176
     1
 40
0.0
176
     1
 90
        0
176
     1
290
     1
176
     1
290
     1
176
     1
290
     0
176
     1
290
     0
176
     1
290
     0
176
     1
290
     0
176
     1
290
     0
176
     1
290
     0
176
     1
290
     0
176
     1
 90
       50
176
     1
 40
0.0
176
     1
 40
1.0
176
     1
 90
        0
176
     1
 62
    18
420
        0
176
     1
 90
       50
176
     1
 90
        3
176
     1
 62
     5
420
      255
176
     1
290
     0
176
     1
 90
       50
176
     1
 90
       50
176
     1
 90
       50
176
     1
290
     0
176
     1
 90
       50
176
     1
 62
   256
176
     0
 40
1.0
176
     0
 90
        2
176
     1
  1
strokes_ogs.tif
176
     1
290
     0
176
     1
 40
1.0
176
     1
 40
1.0
176
     1
  0
VISUALSTYLE
  5
2E
102
{ACAD_REACTORS
330
29
102
}
330
29
100
AcDbVisualStyle
  2
Basic
 70
     7
177
     3
291
     1
 70
    58
 90
        1
176
     1
 90
        0
176
     1
 90
        1
176
     1
 90
        0
176
     1
 40
0.6
176
     1
 40
30.0
176
     1
 62
     7
420
 16777215
176
     1
 90
        0
176
     1
 90
        4
176
     1
 62
     7
176
     1
 62
   257
176
     1
 90
        1
176
     1
 90
        1
176
     1
 40
1.0
176
     1
 90
        8
176
     1
 62
     7
176
     1
 40
1.0
176
     1
 90
        1
176
     1
 90
        6
176
     1
 90
        2
176
     1
 62
     7
176
     1
 90
        5
176
     1
 90
        0
176
     1
 90
        0
176
     1
290
     0
176
     1
 90
        1
176
     1
 40
0.0
176
     1
 90
        0
176
     1
290
     0
176
     1
290
     1
176
     1
290
     1
176
     1
290
     0
176
     1
290
     0
176
     1
290
     0
176
     1
290
     0
176
     1
290
     0
176
     1
290
     0
176
     1
 90
       50
176
     1
 40
0.0
176
     1
 40
1.0
176
     1
 90
        0
176
     1
 62
    18
420
        0
176
     1
 90
       50
176
     1
 90
        3
176
     1
 62
     5
420
      255
176
     1
290
     0
176
     1
 90
       50
176
     1
 90
       50
176
     1
 90
       50
176
     1
290
     0
176
     1
 90
       50
176
     1
 62
   256
176
     0
 40
1.0
176
     0
 90
        2
176
     1
  1
strokes_ogs.tif
176
     1
290
     0
176
     1
 40
1.0
176
     1
 40
1.0
176
     1
  0
VISUALSTYLE
  5
35
102
{ACAD_REACTORS
330
29
102
}
330
29
100
AcDbVisualStyle
  2
Brighten
 70
    12
177
     3
291
     1
 70
    58
 90
        2
176
     1
 90
        2
176
     1
 90
        0
176
     1
 90
        0
176
     1
 40
0.6
176
     1
 40
30.0
176
     1
 62
     7
420
 16777215
176
     1
 90
        1
176
     1
 90
        4
176
     1
 62
     7
176
     1
 62
   257
176
     1
 90
        1
176
     1
 90
        1
176
     1
 40
1.0
176
     1
 90
        8
176
     1
 62
     7
176
     1
 40
1.0
176
     1
 90
        1
176
     1
 90
        6
176
     1
 90
        2
176
     1
 62
     7
176
     1
 90
        5
176
     1
 90
        0
176
     1
 90
        0
176
     1
290
     0
176
     1
 90
        1
176
     1
 40
50.0
176
     1
 90
        0
176
     1
290
     0
176
     1
290
     1
176
     1
290
     1
176
     1
290
     0
176
     1
290
     0
176
     1
290
     0
176
     1
290
     0
176
     1
290
     0
176
     1
290
     0
176
     1
 90
       50
176
     1
 40
0.0
176
     1
 40
1.0
176
     1
 90
        0
176
     1
 62
    18
420
        0
176
     1
 90
       50
176
     1
 90
        3
176
     1
 62
     5
420
      255
176
     1
290
     0
176
     1
 90
       50
176
     1
 90
       50
176
     1
 90
       50
176
     1
290
     0
176
     1
 90
       50
176
     1
 62
   256
176
     0
 40
1.0
176
     0
 90
        2
176
     1
  1
strokes_ogs.tif
176
     1
290
     0
176
     1
 40
1.0
176
     1
 40
1.0
176
     1
  0
VISUALSTYLE
  5
39
102
{ACAD_REACTORS
330
29
102
}
330
29
100
AcDbVisualStyle
  2
ColorChange
 70
    16
177
     3
291
     1
 70
    58
 90
        2
176
     1
 90
        2
176
     1
 90
        3
176
     1
 90
        0
176
     1
 40
0.6
176
     1
 40
30.0
176
     1
 62
     8
420
  8421504
176
     1
 90
        1
176
     1
 90
        4
176
     1
 62
     7
176
     1
 62
   257
176
     1
 90
        1
176
     1
 90
        1
176
     1
 40
1.0
176
     1
 90
        8
176
     1
 62
     8
420
  8421504
176
     1
 40
1.0
176
     1
 90
        1
176
     1
 90
        6
176
     1
 90
        2
176
     1
 62
     7
176
     1
 90
        5
176
     1
 90
        0
176
     1
 90
        0
176
     1
290
     0
176
     1
 90
        1
176
     1
 40
0.0
176
     1
 90
        0
176
     1
290
     0
176
     1
290
     1
176
     1
290
     1
176
     1
290
     0
176
     1
290
     0
176
     1
290
     0
176
     1
290
     0
176
     1
290
     0
176
     1
290
     0
176
     1
 90
       50
176
     1
 40
0.0
176
     1
 40
1.0
176
     1
 90
        0
176
     1
 62
    18
420
        0
176
     1
 90
       50
176
     1
 90
        3
176
     1
 62
     5
420
      255
176
     1
290
     0
176
     1
 90
       50
176
     1
 90
       50
176
     1
 90
       50
176
     1
290
     0
176
     1
 90
       50
176
     1
 62
   256
176
     0
 40
1.0
176
     0
 90
        2
176
     1
  1
strokes_ogs.tif
176
     1
290
     0
176
     1
 40
1.0
176
     1
 40
1.0
176
     1
  0
VISUALSTYLE
  5
32
102
{ACAD_REACTORS
330
29
102
}
330
29
100
AcDbVisualStyle
  2
Conceptual
 70
     9
177
     3
291
     0
 70
    58
 90
        3
176
     1
 90
        2
176
     1
 90
        0
176
     1
 90
        0
176
     1
 40
0.6
176
     1
 40
30.0
176
     1
 62
     7
420
 16777215
176
     1
 90
        2
176
     1
 90
        2
176
     1
 62
     7
176
     1
 62
   257
176
     1
 90
        1
176
     1
 90
        1
176
     1
 40
179.0
176
     1
 90
        8
176
     1
 62
     7
176
     1
 40
1.0
176
     1
 90
        1
176
     1
 90
        6
176
     1
 90
        2
176
     1
 62
     7
176
     1
 90
        3
176
     1
 90
        0
176
     1
 90
        0
176
     1
290
     0
176
     1
 90
        1
176
     1
 40
0.0
176
     1
 90
        0
176
     1
290
     0
176
     1
290
     1
176
     1
290
     1
176
     1
290
     0
176
     1
290
     0
176
     1
290
     0
176
     1
290
     0
176
     1
290
     0
176
     1
290
     0
176
     1
 90
       50
176
     1
 40
0.0
176
     1
 40
1.0
176
     1
 90
        0
176
     1
 62
    18
420
        0
176
     1
 90
       50
176
     1
 90
        3
176
     1
 62
     5
420
      255
176
     1
290
     0
176
     1
 90
       50
176
     1
 90
       50
176
     1
 90
       50
176
     1
290
     0
176
     1
 90
       50
176
     1
 62
   256
176
     0
 40
1.0
176
     0
 90
        2
176
     1
  1
strokes_ogs.tif
176
     1
290
     0
176
     1
 40
1.0
176
     1
 40
1.0
176
     1
  0
VISUALSTYLE
  5
34
102
{ACAD_REACTORS
330
29
102
}
330
29
100
AcDbVisualStyle
  2
Dim
 70
    11
177
     3
291
     1
 70
    58
 90
        2
176
     1
 90
        2
176
     1
 90
        0
176
     1
 90
        0
176
     1
 40
0.6
176
     1
 40
30.0
176
     1
 62
     7
420
 16777215
176
     1
 90
        1
176
     1
 90
        4
176
     1
 62
     7
176
     1
 62
   257
176
     1
 90
        1
176
     1
 90
        1
176
     1
 40
1.0
176
     1
 90
        8
176
     1
 62
     7
176
     1
 40
1.0
176
     1
 90
        1
176
     1
 90
        6
176
     1
 90
        2
176
     1
 62
     7
176
     1
 90
        5
176
     1
 90
        0
176
     1
 90
        0
176
     1
290
     0
176
     1
 90
        1
176
     1
 40
-50.0
176
     1
 90
        0
176
     1
290
     0
176
     1
290
     1
176
     1
290
     1
176
     1
290
     0
176
     1
290
     0
176
     1
290
     0
176
     1
290
     0
176
     1
290
     0
176
     1
290
     0
176
     1
 90
       50
176
     1
 40
0.0
176
     1
 40
1.0
176
     1
 90
        0
176
     1
 62
    18
420
        0
176
     1
 90
       50
176
     1
 90
        3
176
     1
 62
     5
420
      255
176
     1
290
     0
176
     1
 90
       50
176
     1
 90
       50
176
     1
 90
       50
176
     1
290
     0
176
     1
 90
       50
176
     1
 62
   256
176
     0
 40
1.0
176
     0
 90
        2
176
     1
  1
strokes_ogs.tif
176
     1
290
     0
176
     1
 40
1.0
176
     1
 40
1.0
176
     1
  0
VISUALSTYLE
  5
41
102
{ACAD_REACTORS
330
29
102
}
330
29
100
AcDbVisualStyle
  2
EdgeColorOff
 70
    22
177
     3
291
     1
 70
    58
 90
        2
176
     0
 90
        2
176
     0
 90
        0
176
     0
 90
        0
176
     0
 40
0.6
176
     0
 40
30.0
176
     0
 62
     7
420
 16777215
176
     0
 90
        1
176
     0
 90
        4
176
     0
 62
     7
176
     0
 62
   257
176
     0
 90
        1
176
     0
 90
        1
176
     0
 40
1.0
176
     0
 90
        8
176
     2
 62
     7
176
     0
 40
1.0
176
     0
 90
        1
176
     0
 90
        6
176
     0
 90
        2
176
     0
 62
     7
176
     0
 90
        5
176
     0
 90
        0
176
     0
 90
        0
176
     0
290
     0
176
     0
 90
        1
176
     0
 40
0.0
176
     0
 90
        0
176
     0
290
     0
176
     1
290
     1
176
     1
290
     1
176
     1
290
     0
176
     1
290
     0
176
     1
290
     0
176
     1
290
     0
176
     1
290
     0
176
     1
290
     0
176
     1
 90
       50
176
     0
 40
0.0
176
     0
 40
1.0
176
     0
 90
        0
176
     0
 62
    18
420
        0
176
     0
 90
       50
176
     0
 90
        3
176
     0
 62
     5
420
      255
176
     0
290
     0
176
     1
 90
       50
176
     0
 90
       50
176
     0
 90
       50
176
     0
290
     0
176
     1
 90
       50
176
     0
 62
   256
176
     0
 40
1.0
176
     0
 90
        2
176
     0
  1
strokes_ogs.tif
176
     0
290
     0
176
     1
 40
1.0
176
     0
 40
1.0
176
     0
  0
VISUALSTYLE
  5
38
102
{ACAD_REACTORS
330
29
102
}
330
29
100
AcDbVisualStyle
  2
Facepattern
 70
    15
177
     3
291
     1
 70
    58
 90
        2
176
     1
 90
        2
176
     1
 90
        0
176
     1
 90
        0
176
     1
 40
0.6
176
     1
 40
30.0
176
     1
 62
     7
420
 16777215
176
     1
 90
        1
176
     1
 90
        4
176
     1
 62
     7
176
     1
 62
   257
176
     1
 90
        1
176
     1
 90
        1
176
     1
 40
1.0
176
     1
 90
        8
176
     1
 62
     7
176
     1
 40
1.0
176
     1
 90
        1
176
     1
 90
        6
176
     1
 90
        2
176
     1
 62
     7
176
     1
 90
        5
176
     1
 90
        0
176
     1
 90
        0
176
     1
290
     0
176
     1
 90
        1
176
     1
 40
0.0
176
     1
 90
        0
176
     1
290
     0
176
     1
290
     1
176
     1
290
     1
176
     1
290
     0
176
     1
290
     0
176
     1
290
     0
176
     1
290
     0
176
     1
290
     0
176
     1
290
     0
176
     1
 90
       50
176
     1
 40
0.0
176
     1
 40
1.0
176
     1
 90
        0
176
     1
 62
    18
420
        0
176
     1
 90
       50
176
     1
 90
        3
176
     1
 62
     5
420
      255
176
     1
290
     0
176
     1
 90
       50
176
     1
 90
       50
176
     1
 90
       50
176
     1
290
     0
176
     1
 90
       50
176
     1
 62
   256
176
     0
 40
1.0
176
     0
 90
        2
176
     1
  1
strokes_ogs.tif
176
     1
290
     0
176
     1
 40
1.0
176
     1
 40
1.0
176
     1
  0
VISUALSTYLE
  5
2A
102
{ACAD_REACTORS
330
29
102
}
330
29
100
AcDbVisualStyle
  2
Flat
 70
     0
177
     3
291
     1
 70
    58
 90
        2
176
     1
 90
        1
176
     1
 90
        1
176
     1
 90
        2
176
     1
 40
0.6
176
     1
 40
30.0
176
     1
 62
     7
420
 16777215
176
     1
 90
        0
176
     1
 90
        0
176
     1
 62
     7
176
     1
 62
   257
176
     1
 90
        1
176
     1
 90
        1
176
     1
 40
1.0
176
     1
 90
        8
176
     1
 62
     7
176
     1
 40
1.0
176
     1
 90
        1
176
     1
 90
        6
176
     1
 90
        2
176
     1
 62
     7
176
     1
 90
        5
176
     1
 90
        0
176
     1
 90
        0
176
     1
290
     0
176
     1
 90
       13
176
     1
 40
0.0
176
     1
 90
        0
176
     1
290
     0
176
     1
290
     1
176
     1
290
     1
176
     1
290
     0
176
     1
290
     0
176
     1
290
     0
176
     1
290
     0
176
     1
290
     0
176
     1
290
     0
176
     1
 90
       50
176
     1
 40
0.0
176
     1
 40
1.0
176
     1
 90
        0
176
     1
 62
    18
420
        0
176
     1
 90
       50
176
     1
 90
        3
176
     1
 62
     5
420
      255
176
     1
290
     0
176
     1
 90
       50
176
     1
 90
       50
176
     1
 90
       50
176
     1
290
     0
176
     1
 90
       50
176
     1
 62
   256
176
     0
 40
1.0
176
     0
 90
        2
176
     1
  1
strokes_ogs.tif
176
     1
290
     0
176
     1
 40
1.0
176
     1
 40
1.0
176
     1
  0
VISUALSTYLE
  5
2B
102
{ACAD_REACTORS
330
29
102
}
330
29
100
AcDbVisualStyle
  2
FlatWithEdges
 70
     1
177
     3
291
     1
 70
    58
 90
        2
176
     1
 90
        1
176
     1
 90
        1
176
     1
 90
        2
176
     1
 40
0.6
176
     1
 40
30.0
176
     1
 62
     7
420
 16777215
176
     1
 90
        1
176
     1
 90
        0
176
     1
 62
     7
176
     1
 62
   257
176
     1
 90
        1
176
     1
 90
        1
176
     1
 40
1.0
176
     1
 90
        0
176
     1
 62
   257
176
     1
 40
1.0
176
     1
 90
        1
176
     1
 90
        6
176
     1
 90
        2
176
     1
 62
     7
176
     1
 90
        5
176
     1
 90
        0
176
     1
 90
        0
176
     1
290
     0
176
     1
 90
       13
176
     1
 40
0.0
176
     1
 90
        0
176
     1
290
     0
176
     1
290
     1
176
     1
290
     1
176
     1
290
     0
176
     1
290
     0
176
     1
290
     0
176
     1
290
     0
176
     1
290
     0
176
     1
290
     0
176
     1
 90
       50
176
     1
 40
0.0
176
     1
 40
1.0
176
     1
 90
        0
176
     1
 62
    18
420
        0
176
     1
 90
       50
176
     1
 90
        3
176
     1
 62
     5
420
      255
176
     1
290
     0
176
     1
 90
       50
176
     1
 90
       50
176
     1
 90
       50
176
     1
290
     0
176
     1
 90
       50
176
     1
 62
   256
176
     0
 40
1.0
176
     0
 90
        2
176
     1
  1
strokes_ogs.tif
176
     1
290
     0
176
     1
 40
1.0
176
     1
 40
1.0
176
     1
  0
VISUALSTYLE
  5
2C
102
{ACAD_REACTORS
330
29
102
}
330
29
100
AcDbVisualStyle
  2
Gouraud
 70
     2
177
     3
291
     1
 70
    58
 90
        2
176
     1
 90
        2
176
     1
 90
        1
176
     1
 90
        2
176
     1
 40
0.6
176
     1
 40
30.0
176
     1
 62
     7
420
 16777215
176
     1
 90
        0
176
     1
 90
        0
176
     1
 62
     7
176
     1
 62
   257
176
     1
 90
        1
176
     1
 90
        1
176
     1
 40
1.0
176
     1
 90
        0
176
     1
 62
     7
176
     1
 40
1.0
176
     1
 90
        1
176
     1
 90
        6
176
     1
 90
        2
176
     1
 62
     7
176
     1
 90
        5
176
     1
 90
        0
176
     1
 90
        0
176
     1
290
     0
176
     1
 90
       13
176
     1
 40
0.0
176
     1
 90
        0
176
     1
290
     0
176
     1
290
     1
176
     1
290
     1
176
     1
290
     0
176
     1
290
     0
176
     1
290
     0
176
     1
290
     0
176
     1
290
     0
176
     1
290
     0
176
     1
 90
       50
176
     1
 40
0.0
176
     1
 40
1.0
176
     1
 90
        0
176
     1
 62
    18
420
        0
176
     1
 90
       50
176
     1
 90
        3
176
     1
 62
     5
420
      255
176
     1
290
     0
176
     1
 90
       50
176
     1
 90
       50
176
     1
 90
       50
176
     1
290
     0
176
     1
 90
       50
176
     1
 62
   256
176
     0
 40
1.0
176
     0
 90
        2
176
     1
  1
strokes_ogs.tif
176
     1
290
     0
176
     1
 40
1.0
176
     1
 40
1.0
176
     1
  0
VISUALSTYLE
  5
2D
102
{ACAD_REACTORS
330
29
102
}
330
29
100
AcDbVisualStyle
  2
GouraudWithEdges
 70
     3
177
     3
291
     1
 70
    58
 90
        2
176
     1
 90
        2
176
     1
 90
        1
176
     1
 90
        2
176
     1
 40
0.6
176
     1
 40
30.0
176
     1
 62
     7
420
 16777215
176
     1
 90
        1
176
     1
 90
        0
176
     1
 62
     7
176
     1
 62
   257
176
     1
 90
        1
176
     1
 90
        1
176
     1
 40
1.0
176
     1
 90
        0
176
     1
 62
   257
176
     1
 40
1.0
176
     1
 90
        1
176
     1
 90
        6
176
     1
 90
        2
176
     1
 62
     7
176
     1
 90
        5
176
     1
 90
        0
176
     1
 90
        0
176
     1
290
     0
176
     1
 90
       13
176
     1
 40
0.0
176
     1
 90
        0
176
     1
290
     0
176
     1
290
     1
176
     1
290
     1
176
     1
290
     0
176
     1
290
     0
176
     1
290
     0
176
     1
290
     0
176
     1
290
     0
176
     1
290
     0
176
     1
 90
       50
176
     1
 40
0.0
176
     1
 40
1.0
176
     1
 90
        0
176
     1
 62
    18
420
        0
176
     1
 90
       50
176
     1
 90
        3
176
     1
 62
     5
420
      255
176
     1
290
     0
176
     1
 90
       50
176
     1
 90
       50
176
     1
 90
       50
176
     1
290
     0
176
     1
 90
       50
176
     1
 62
   256
176
     0
 40
1.0
176
     0
 90
        2
176
     1
  1
strokes_ogs.tif
176
     1
290
     0
176
     1
 40
1.0
176
     1
 40
1.0
176
     1
  0
VISUALSTYLE
  5
31
102
{ACAD_REACTORS
330
29
102
}
330
29
100
AcDbVisualStyle
  2
Hidden
 70
     6
177
     3
291
     0
 70
    58
 90
        1
176
     1
 90
        2
176
     1
 90
        2
176
     1
 90
        0
176
     1
 40
0.6
176
     1
 40
30.0
176
     1
 62
     7
420
 16777215
176
     1
 90
        2
176
     1
 90
        2
176
     1
 62
     7
176
     1
 62
   257
176
     1
 90
        2
176
     1
 90
        1
176
     1
 40
40.0
176
     1
 90
        0
176
     1
 62
   257
176
     1
 40
1.0
176
     1
 90
        1
176
     1
 90
        6
176
     1
 90
        2
176
     1
 62
     7
176
     1
 90
        3
176
     1
 90
        0
176
     1
 90
        0
176
     1
290
     0
176
     1
 90
        1
176
     1
 40
0.0
176
     1
 90
        0
176
     1
290
     0
176
     1
290
     1
176
     1
290
     1
176
     1
290
     0
176
     1
290
     0
176
     1
290
     0
176
     1
290
     0
176
     1
290
     0
176
     1
290
     0
176
     1
 90
       50
176
     1
 40
0.0
176
     1
 40
1.0
176
     1
 90
        0
176
     1
 62
    18
420
        0
176
     1
 90
       50
176
     1
 90
        3
176
     1
 62
     5
420
      255
176
     1
290
     0
176
     1
 90
       50
176
     1
 90
       50
176
     1
 90
       50
176
     1
290
     0
176
     1
 90
       50
176
     1
 62
   256
176
     0
 40
1.0
176
     0
 90
        2
176
     1
  1
strokes_ogs.tif
176
     1
290
     0
176
     1
 40
1.0
176
     1
 40
1.0
176
     1
  0
VISUALSTYLE
  5
3F
102
{ACAD_REACTORS
330
29
102
}
330
29
100
AcDbVisualStyle
  2
JitterOff
 70
    20
177
     3
291
     1
 70
    58
 90
        2
176
     0
 90
        2
176
     0
 90
        0
176
     0
 90
        0
176
     0
 40
0.6
176
     0
 40
30.0
176
     0
 62
     7
420
 16777215
176
     0
 90
        1
176
     0
 90
        4
176
     0
 62
     7
176
     0
 62
   257
176
     0
 90
        1
176
     0
 90
        1
176
     0
 40
1.0
176
     0
 90
       10
176
     2
 62
     7
176
     0
 40
1.0
176
     0
 90
        1
176
     0
 90
        6
176
     0
 90
        2
176
     0
 62
     7
176
     0
 90
        5
176
     0
 90
        0
176
     0
 90
        0
176
     0
290
     0
176
     0
 90
        1
176
     0
 40
0.0
176
     0
 90
        0
176
     0
290
     0
176
     1
290
     1
176
     1
290
     1
176
     1
290
     0
176
     1
290
     0
176
     1
290
     0
176
     1
290
     0
176
     1
290
     0
176
     1
290
     0
176
     1
 90
       50
176
     0
 40
0.0
176
     0
 40
1.0
176
     0
 90
        0
176
     0
 62
    18
420
        0
176
     0
 90
       50
176
     0
 90
        3
176
     0
 62
     5
420
      255
176
     0
290
     0
176
     1
 90
       50
176
     0
 90
       50
176
     0
 90
       50
176
     0
290
     0
176
     1
 90
       50
176
     0
 62
   256
176
     0
 40
1.0
176
     0
 90
        2
176
     0
  1
strokes_ogs.tif
176
     0
290
     0
176
     1
 40
1.0
176
     0
 40
1.0
176
     0
  0
VISUALSTYLE
  5
37
102
{ACAD_REACTORS
330
29
102
}
330
29
100
AcDbVisualStyle
  2
Linepattern
 70
    14
177
     3
291
     1
 70
    58
 90
        2
176
     1
 90
        2
176
     1
 90
        0
176
     1
 90
        0
176
     1
 40
0.6
176
     1
 40
30.0
176
     1
 62
     7
420
 16777215
176
     1
 90
        1
176
     1
 90
        4
176
     1
 62
     7
176
     1
 62
   257
176
     1
 90
        7
176
     1
 90
        7
176
     1
 40
1.0
176
     1
 90
        8
176
     1
 62
     7
176
     1
 40
1.0
176
     1
 90
        1
176
     1
 90
        6
176
     1
 90
        2
176
     1
 62
     7
176
     1
 90
        5
176
     1
 90
        0
176
     1
 90
        0
176
     1
290
     0
176
     1
 90
        1
176
     1
 40
0.0
176
     1
 90
        0
176
     1
290
     0
176
     1
290
     1
176
     1
290
     1
176
     1
290
     0
176
     1
290
     0
176
     1
290
     0
176
     1
290
     0
176
     1
290
     0
176
     1
290
     0
176
     1
 90
       50
176
     1
 40
0.0
176
     1
 40
1.0
176
     1
 90
        0
176
     1
 62
    18
420
        0
176
     1
 90
       50
176
     1
 90
        3
176
     1
 62
     5
420
      255
176
     1
290
     0
176
     1
 90
       50
176
     1
 90
       50
176
     1
 90
       50
176
     1
290
     0
176
     1
 90
       50
176
     1
 62
   256
176
     0
 40
1.0
176
     0
 90
        2
176
     1
  1
strokes_ogs.tif
176
     1
290
     0
176
     1
 40
1.0
176
     1
 40
1.0
176
     1
  0
VISUALSTYLE
  5
40
102
{ACAD_REACTORS
330
29
102
}
330
29
100
AcDbVisualStyle
  2
OverhangOff
 70
    21
177
     3
291
     1
 70
    58
 90
        2
176
     0
 90
        2
176
     0
 90
        0
176
     0
 90
        0
176
     0
 40
0.6
176
     0
 40
30.0
176
     0
 62
     7
420
 16777215
176
     0
 90
        1
176
     0
 90
        4
176
     0
 62
     7
176
     0
 62
   257
176
     0
 90
        1
176
     0
 90
        1
176
     0
 40
1.0
176
     0
 90
        9
176
     2
 62
     7
176
     0
 40
1.0
176
     0
 90
        1
176
     0
 90
        6
176
     0
 90
        2
176
     0
 62
     7
176
     0
 90
        5
176
     0
 90
        0
176
     0
 90
        0
176
     0
290
     0
176
     0
 90
        1
176
     0
 40
0.0
176
     0
 90
        0
176
     0
290
     0
176
     1
290
     1
176
     1
290
     1
176
     1
290
     0
176
     1
290
     0
176
     1
290
     0
176
     1
290
     0
176
     1
290
     0
176
     1
290
     0
176
     1
 90
       50
176
     0
 40
0.0
176
     0
 40
1.0
176
     0
 90
        0
176
     0
 62
    18
420
        0
176
     0
 90
       50
176
     0
 90
        3
176
     0
 62
     5
420
      255
176
     0
290
     0
176
     1
 90
       50
176
     0
 90
       50
176
     0
 90
       50
176
     0
290
     0
176
     1
 90
       50
176
     0
 62
   256
176
     0
 40
1.0
176
     0
 90
        2
176
     0
  1
strokes_ogs.tif
176
     0
290
     0
176
     1
 40
1.0
176
     0
 40
1.0
176
     0
  0
VISUALSTYLE
  5
33
102
{ACAD_REACTORS
330
29
102
}
330
29
100
AcDbVisualStyle
  2
Realistic
 70
     8
177
     3
291
     0
 70
    58
 90
        2
176
     1
 90
        3
176
     1
 90
        0
176
     1
 90
        2
176
     1
 40
0.6
176
     1
 40
30.0
176
     1
 62
     7
420
 16777215
176
     1
 90
        0
176
     1
 90
        0
176
     1
 62
     7
176
     1
 62
   257
176
     1
 90
        1
176
     1
 90
        1
176
     1
 40
1.0
176
     1
 90
        8
176
     1
 62
   257
176
     1
 40
1.0
176
     1
 90
        1
176
     1
 90
        6
176
     1
 90
        2
176
     1
 62
     7
176
     1
 90
        3
176
     1
 90
        0
176
     1
 90
        0
176
     1
290
     0
176
     1
 90
       13
176
     1
 40
0.0
176
     1
 90
        0
176
     1
290
     0
176
     1
290
     1
176
     1
290
     1
176
     1
290
     0
176
     1
290
     0
176
     1
290
     0
176
     1
290
     0
176
     1
290
     0
176
     1
290
     0
176
     1
 90
       50
176
     1
 40
0.0
176
     1
 40
1.0
176
     1
 90
        0
176
     1
 62
    18
420
        0
176
     1
 90
       50
176
     1
 90
        3
176
     1
 62
     5
420
      255
176
     1
290
     0
176
     1
 90
       50
176
     1
 90
       50
176
     1
 90
       50
176
     1
290
     0
176
     1
 90
       50
176
     1
 62
   256
176
     0
 40
1.0
176
     0
 90
        2
176
     1
  1
strokes_ogs.tif
176
     1
290
     0
176
     1
 40
1.0
176
     1
 40
1.0
176
     1
  0
VISUALSTYLE
  5
3E
102
{ACAD_REACTORS
330
29
102
}
330
29
100
AcDbVisualStyle
  2
Shaded
 70
    27
177
     3
291
     0
 70
    58
 90
        2
176
     1
 90
        2
176
     1
 90
        1
176
     1
 90
        2
176
     1
 40
0.6
176
     1
 40
30.0
176
     1
 62
     7
420
 16777215
176
     1
 90
        0
176
     1
 90
        4
176
     1
 62
     7
176
     1
 62
   257
176
     1
 90
        1
176
     1
 90
        1
176
     1
 40
1.0
176
     1
 90
        8
176
     1
 62
   257
176
     1
 40
1.0
176
     1
 90
        1
176
     1
 90
        6
176
     1
 90
        2
176
     1
 62
     8
420
  7895160
176
     1
 90
        3
176
     1
 90
        0
176
     1
 90
        0
176
     1
290
     0
176
     1
 90
        5
176
     1
 40
0.0
176
     1
 90
        0
176
     1
290
     0
176
     1
290
     1
176
     1
290
     1
176
     1
290
     0
176
     1
290
     0
176
     1
290
     0
176
     1
290
     0
176
     1
290
     0
176
     1
290
     0
176
     1
 90
       50
176
     1
 40
0.0
176
     1
 40
1.0
176
     1
 90
        0
176
     1
 62
    18
420
        0
176
     1
 90
       50
176
     1
 90
        3
176
     1
 62
     5
420
      255
176
     1
290
     0
176
     1
 90
       50
176
     1
 90
       50
176
     1
 90
       50
176
     1
290
     0
176
     1
 90
       50
176
     1
 62
   256
176
     0
 40
1.0
176
     0
 90
        2
176
     1
  1
strokes_ogs.tif
176
     1
290
     0
176
     1
 40
1.0
176
     1
 40
1.0
176
     1
  0
VISUALSTYLE
  5
3D
102
{ACAD_REACTORS
330
29
102
}
330
29
100
AcDbVisualStyle
  2
Shaded with edges
 70
    26
177
     3
291
     0
 70
    58
 90
        2
176
     1
 90
        2
176
     1
 90
        1
176
     1
 90
        2
176
     1
 40
0.6
176
     1
 40
30.0
176
     1
 62
     7
420
 16777215
176
     1
 90
        1
176
     1
 90
        2
176
     1
 62
     7
176
     1
 62
   257
176
     1
 90
        2
176
     1
 90
        1
176
     1
 40
1.0
176
     1
 90
        8
176
     1
 62
   257
176
     1
 40
1.0
176
     1
 90
        1
176
     1
 90
        6
176
     1
 90
        2
176
     1
 62
     7
176
     1
 90
        3
176
     1
 90
        0
176
     1
 90
        0
176
     1
290
     0
176
     1
 90
        5
176
     1
 40
0.0
176
     1
 90
        0
176
     1
290
     0
176
     1
290
     1
176
     1
290
     1
176
     1
290
     0
176
     1
290
     0
176
     1
290
     0
176
     1
290
     0
176
     1
290
     0
176
     1
290
     0
176
     1
 90
       50
176
     1
 40
0.0
176
     1
 40
1.0
176
     1
 90
        0
176
     1
 62
    18
420
        0
176
     1
 90
       50
176
     1
 90
        3
176
     1
 62
     5
420
      255
176
     1
290
     0
176
     1
 90
       50
176
     1
 90
       50
176
     1
 90
       50
176
     1
290
     0
176
     1
 90
       50
176
     1
 62
   256
176
     0
 40
1.0
176
     0
 90
        2
176
     1
  1
strokes_ogs.tif
176
     1
290
     0
176
     1
 40
1.0
176
     1
 40
1.0
176
     1
  0
VISUALSTYLE
  5
3A
102
{ACAD_REACTORS
330
29
102
}
330
29
100
AcDbVisualStyle
  2
Shades of Gray
 70
    23
177
     3
291
     0
 70
    58
 90
        2
176
     1
 90
        2
176
     1
 90
        3
176
     1
 90
        0
176
     1
 40
0.6
176
     1
 40
30.0
176
     1
 62
     7
420
 16777215
176
     1
 90
        2
176
     1
 90
        2
176
     1
 62
     7
176
     1
 62
     7
176
     1
 90
        1
176
     1
 90
        1
176
     1
 40
40.0
176
     1
 90
        8
176
     1
 62
     7
176
     1
 40
1.0
176
     1
 90
        1
176
     1
 90
        6
176
     1
 90
        2
176
     1
 62
     7
176
     1
 90
        3
176
     1
 90
        0
176
     1
 90
        0
176
     1
290
     0
176
     1
 90
        1
176
     1
 40
0.0
176
     1
 90
        0
176
     1
290
     0
176
     1
290
     1
176
     1
290
     1
176
     1
290
     0
176
     1
290
     0
176
     1
290
     0
176
     1
290
     0
176
     1
290
     0
176
     1
290
     0
176
     1
 90
       50
176
     1
 40
0.0
176
     1
 40
1.0
176
     1
 90
        0
176
     1
 62
    18
420
        0
176
     1
 90
       50
176
     1
 90
        3
176
     1
 62
     5
420
      255
176
     1
290
     0
176
     1
 90
       50
176
     1
 90
       50
176
     1
 90
       50
176
     1
290
     0
176
     1
 90
       50
176
     1
 62
   256
176
     0
 40
1.0
176
     0
 90
        2
176
     1
  1
strokes_ogs.tif
176
     1
290
     0
176
     1
 40
1.0
176
     1
 40
1.0
176
     1
  0
VISUALSTYLE
  5
3B
102
{ACAD_REACTORS
330
29
102
}
330
29
100
AcDbVisualStyle
  2
Sketchy
 70
    24
177
     3
291
     0
 70
    58
 90
        1
176
     1
 90
        2
176
     1
 90
        2
176
     1
 90
        0
176
     1
 40
0.6
176
     1
 40
30.0
176
     1
 62
     7
420
 16777215
176
     1
 90
        2
176
     1
 90
        2
176
     1
 62
     7
176
     1
 62
     7
176
     1
 90
        1
176
     1
 90
        1
176
     1
 40
40.0
176
     1
 90
       11
176
     1
 62
     7
176
     1
 40
1.0
176
     1
 90
        1
176
     1
 90
        6
176
     1
 90
        2
176
     1
 62
     7
176
     1
 90
        6
176
     1
 90
        0
176
     1
 90
        0
176
     1
290
     0
176
     1
 90
        1
176
     1
 40
0.0
176
     1
 90
        0
176
     1
290
     0
176
     1
290
     1
176
     1
290
     1
176
     1
290
     0
176
     1
290
     0
176
     1
290
     0
176
     1
290
     0
176
     1
290
     0
176
     1
290
     0
176
     1
 90
       50
176
     1
 40
0.0
176
     1
 40
1.0
176
     1
 90
        0
176
     1
 62
    18
420
        0
176
     1
 90
       50
176
     1
 90
        3
176
     1
 62
     5
420
      255
176
     1
290
     0
176
     1
 90
       50
176
     1
 90
       50
176
     1
 90
       50
176
     1
290
     0
176
     1
 90
       50
176
     1
 62
   256
176
     0
 40
1.0
176
     0
 90
        2
176
     1
  1
strokes_ogs.tif
176
     1
290
     0
176
     1
 40
1.0
176
     1
 40
1.0
176
     1
  0
VISUALSTYLE
  5
36
102
{ACAD_REACTORS
330
29
102
}
330
29
100
AcDbVisualStyle
  2
Thicken
 70
    13
177
     3
291
     1
 70
    58
 90
        2
176
     1
 90
        2
176
     1
 90
        0
176
     1
 90
        0
176
     1
 40
0.6
176
     1
 40
30.0
176
     1
 62
     7
420
 16777215
176
     1
 90
        1
176
     1
 90
        4
176
     1
 62
     7
176
     1
 62
   257
176
     1
 90
        1
176
     1
 90
        1
176
     1
 40
1.0
176
     1
 90
       12
176
     1
 62
     7
176
     1
 40
1.0
176
     1
 90
        1
176
     1
 90
        6
176
     1
 90
        2
176
     1
 62
     7
176
     1
 90
        5
176
     1
 90
        0
176
     1
 90
        0
176
     1
290
     0
176
     1
 90
        1
176
     1
 40
0.0
176
     1
 90
        0
176
     1
290
     0
176
     1
290
     1
176
     1
290
     1
176
     1
290
     0
176
     1
290
     0
176
     1
290
     0
176
     1
290
     0
176
     1
290
     0
176
     1
290
     0
176
     1
 90
       50
176
     1
 40
0.0
176
     1
 40
1.0
176
     1
 90
        0
176
     1
 62
    18
420
        0
176
     1
 90
       50
176
     1
 90
        3
176
     1
 62
     5
420
      255
176
     1
290
     0
176
     1
 90
       50
176
     1
 90
       50
176
     1
 90
       50
176
     1
290
     0
176
     1
 90
       50
176
     1
 62
   256
176
     0
 40
1.0
176
     0
 90
        2
176
     1
  1
strokes_ogs.tif
176
     1
290
     0
176
     1
 40
1.0
176
     1
 40
1.0
176
     1
  0
VISUALSTYLE
  5
30
102
{ACAD_REACTORS
330
29
102
}
330
29
100
AcDbVisualStyle
  2
Wireframe
 70
     5
177
     3
291
     0
 70
    58
 90
        0
176
     1
 90
        2
176
     1
 90
        0
176
     1
 90
        0
176
     1
 40
0.6
176
     1
 40
30.0
176
     1
 62
     7
420
 16777215
176
     1
 90
        1
176
     1
 90
        4
176
     1
 62
     7
176
     1
 62
   257
176
     1
 90
        1
176
     1
 90
        1
176
     1
 40
1.0
176
     1
 90
        0
176
     1
 62
   257
176
     1
 40
1.0
176
     1
 90
        1
176
     1
 90
        6
176
     1
 90
        2
176
     1
 62
     7
176
     1
 90
        3
176
     1
 90
        0
176
     1
 90
        0
176
     1
290
     0
176
     1
 90
        1
176
     1
 40
0.0
176
     1
 90
        0
176
     1
290
     0
176
     1
290
     1
176
     1
290
     1
176
     1
290
     0
176
     1
290
     0
176
     1
290
     0
176
     1
290
     0
176
     1
290
     0
176
     1
290
     0
176
     1
 90
       50
176
     1
 40
0.0
176
     1
 40
1.0
176
     1
 90
        0
176
     1
 62
    18
420
        0
176
     1
 90
       50
176
     1
 90
        3
176
     1
 62
     5
420
      255
176
     1
290
     0
176
     1
 90
       50
176
     1
 90
       50
176
     1
 90
       50
176
     1
290
     0
176
     1
 90
       50
176
     1
 62
   256
176
     0
 40
1.0
176
     0
 90
        2
176
     1
  1
strokes_ogs.tif
176
     1
290
     0
176
     1
 40
1.0
176
     1
 40
1.0
176
     1
  0
VISUALSTYLE
  5
3C
102
{ACAD_REACTORS
330
29
102
}
330
29
100
AcDbVisualStyle
  2
X-Ray
 70
    25
177
     3
291
     0
 70
    58
 90
        2
176
     1
 90
        2
176
     1
 90
        1
176
     1
 90
        1
176
     1
 40
0.5
176
     1
 40
30.0
176
     1
 62
     7
420
 16777215
176
     1
 90
        1
176
     1
 90
        0
176
     1
 62
     7
176
     1
 62
   257
176
     1
 90
        1
176
     1
 90
        1
176
     1
 40
1.0
176
     1
 90
        8
176
     1
 62
     7
176
     1
 40
1.0
176
     1
 90
        1
176
     1
 90
        6
176
     1
 90
        2
176
     1
 62
     7
176
     1
 90
        3
176
     1
 90
        0
176
     1
 90
        0
176
     1
290
     0
176
     1
 90
       13
176
     1
 40
0.0
176
     1
 90
        0
176
     1
290
     0
176
     1
290
     1
176
     1
290
     1
176
     1
290
     0
176
     1
290
     0
176
     1
290
     0
176
     1
290
     0
176
     1
290
     0
176
     1
290
     0
176
     1
 90
       50
176
     1
 40
0.0
176
     1
 40
1.0
176
     1
 90
        0
176
     1
 62
    18
420
        0
176
     1
 90
       50
176
     1
 90
        3
176
     1
 62
     5
420
      255
176
     1
290
     0
176
     1
 90
       50
176
     1
 90
       50
176
     1
 90
       50
176
     1
290
     0
176
     1
 90
       50
176
     1
 62
   256
176
     0
 40
1.0
176
     0
 90
        2
176
     1
  1
strokes_ogs.tif
176
     1
290
     0
176
     1
 40
1.0
176
     1
 40
1.0
176
     1
  0
DICTIONARYVAR
  5
2F1
102
{ACAD_REACTORS
330
2EB
102
}
330
2EB
100
DictionaryVariables
280
     0
  1
1:1
  0
DICTIONARYVAR
  5
2ED
102
{ACAD_REACTORS
330
2EB
102
}
330
2EB
100
DictionaryVariables
280
     0
  1
STANDARD
  0
DICTIONARYVAR
  5
2EC
102
{ACAD_REACTORS
330
2EB
102
}
330
2EB
100
DictionaryVariables
280
     0
  1
STANDARD
  0
DICTIONARYVAR
  5
2EE
102
{ACAD_REACTORS
330
2EB
102
}
330
2EB
100
DictionaryVariables
280
     0
  1
Imperial24
  0
DICTIONARYVAR
  5
2EF
102
{ACAD_REACTORS
330
2EB
102
}
330
2EB
100
DictionaryVariables
280
     0
  1
Imperial24
  0
DICTIONARYVAR
  5
2F3
102
{ACAD_REACTORS
330
2EB
102
}
330
2EB
100
DictionaryVariables
280
     0
  1
1
  0
DICTIONARYVAR
  5
2F4
102
{ACAD_REACTORS
330
2EB
102
}
330
2EB
100
DictionaryVariables
280
     0
  1
15
  0
DICTIONARYVAR
  5
2F2
102
{ACAD_REACTORS
330
2EB
102
}
330
2EB
100
DictionaryVariables
280
     0
  1
0
  0
DICTIONARYVAR
  5
2F0
102
{ACAD_REACTORS
330
2EB
102
}
330
2EB
100
DictionaryVariables
280
     0
  1
0
  0
DICTIONARY
  5
2F9
330
6A
100
AcDbDictionary
280
     1
281
     1
  3
ACAD_XREC_ROUNDTRIP
360
2FA
  0
DICTIONARY
  5
1A
330
19
100
AcDbDictionary
280
     1
281
     1
  3
BUMPTILE
360
1C
  3
DIFFUSETILE
360
1B
  3
OPACITYTILE
360
1F
  3
REFLECTIONTILE
360
1E
  3
REFRACTIONTILE
360
20
  3
SPECULARTILE
360
1D
  0
DICTIONARY
  5
12
330
11
100
AcDbDictionary
280
     1
281
     1
  3
BUMPTILE
360
14
  3
DIFFUSETILE
360
13
  3
OPACITYTILE
360
17
  3
REFLECTIONTILE
360
16
  3
REFRACTIONTILE
360
18
  3
SPECULARTILE
360
15
  0
DICTIONARY
  5
22
330
21
100
AcDbDictionary
280
     1
281
     1
  3
BUMPTILE
360
24
  3
DIFFUSETILE
360
23
  3
OPACITYTILE
360
27
  3
REFLECTIONTILE
360
26
  3
REFRACTIONTILE
360
28
  3
SPECULARTILE
360
25
  0
DICTIONARY
  5
2F7
330
68
100
AcDbDictionary
280
     1
281
     1
  3
ACAD_XREC_ROUNDTRIP
360
2F8
  0
DICTIONARY
  5
2F5
330
64
100
AcDbDictionary
280
     1
281
     1
  3
ACAD_ROUNDTRIP_2008_TABLESTYLE_CELLSTYLEMAP
360
2F6
  0
XRECORD
  5
2FA
102
{ACAD_REACTORS
330
2F9
102
}
330
2F9
100
AcDbXrecord
280
     1
102
DISPLAYNAME
  1
Imperial24
102
FLAGS
 90
        0
  0
XRECORD
  5
1C
102
{ACAD_REACTORS
330
1A
102
}
330
1A
100
AcDbXrecord
280
     1
270
     1
271
     1
  0
XRECORD
  5
1B
102
{ACAD_REACTORS
330
1A
102
}
330
1A
100
AcDbXrecord
280
     1
270
     1
271
     1
  0
XRECORD
  5
1F
102
{ACAD_REACTORS
330
1A
102
}
330
1A
100
AcDbXrecord
280
     1
270
     1
271
     1
  0
XRECORD
  5
1E
102
{ACAD_REACTORS
330
1A
102
}
330
1A
100
AcDbXrecord
280
     1
270
     1
271
     1
  0
XRECORD
  5
20
102
{ACAD_REACTORS
330
1A
102
}
330
1A
100
AcDbXrecord
280
     1
270
     1
271
     1
  0
XRECORD
  5
1D
102
{ACAD_REACTORS
330
1A
102
}
330
1A
100
AcDbXrecord
280
     1
270
     1
271
     1
  0
XRECORD
  5
14
102
{ACAD_REACTORS
330
12
102
}
330
12
100
AcDbXrecord
280
     1
270
     1
271
     1
  0
XRECORD
  5
13
102
{ACAD_REACTORS
330
12
102
}
330
12
100
AcDbXrecord
280
     1
270
     1
271
     1
  0
XRECORD
  5
17
102
{ACAD_REACTORS
330
12
102
}
330
12
100
AcDbXrecord
280
     1
270
     1
271
     1
  0
XRECORD
  5
16
102
{ACAD_REACTORS
330
12
102
}
330
12
100
AcDbXrecord
280
     1
270
     1
271
     1
  0
XRECORD
  5
18
102
{ACAD_REACTORS
330
12
102
}
330
12
100
AcDbXrecord
280
     1
270
     1
271
     1
  0
XRECORD
  5
15
102
{ACAD_REACTORS
330
12
102
}
330
12
100
AcDbXrecord
280
     1
270
     1
271
     1
  0
XRECORD
  5
24
102
{ACAD_REACTORS
330
22
102
}
330
22
100
AcDbXrecord
280
     1
270
     1
271
     1
  0
XRECORD
  5
23
102
{ACAD_REACTORS
330
22
102
}
330
22
100
AcDbXrecord
280
     1
270
     1
271
     1
  0
XRECORD
  5
27
102
{ACAD_REACTORS
330
22
102
}
330
22
100
AcDbXrecord
280
     1
270
     1
271
     1
  0
XRECORD
  5
26
102
{ACAD_REACTORS
330
22
102
}
330
22
100
AcDbXrecord
280
     1
270
     1
271
     1
  0
XRECORD
  5
28
102
{ACAD_REACTORS
330
22
102
}
330
22
100
AcDbXrecord
280
     1
270
     1
271
     1
  0
XRECORD
  5
25
102
{ACAD_REACTORS
330
22
102
}
330
22
100
AcDbXrecord
280
     1
270
     1
271
     1
  0
XRECORD
  5
2F8
102
{ACAD_REACTORS
330
2F7
102
}
330
2F7
100
AcDbXrecord
280
     1
102
DISPLAYNAME
  1
Imperial24
102
FLAGS
 90
        0
  0
CELLSTYLEMAP
  5
2F6
102
{ACAD_REACTORS
330
2F5
102
}
330
2F5
100
AcDbCellStyleMap
 90
        3
300
CELLSTYLE
  1
TABLEFORMAT_BEGIN
 90
        5
170
     1
 91
        0
 92
    32768
 62
   257
 93
        1
300
CONTENTFORMAT
  1
CONTENTFORMAT_BEGIN
 90
        0
 91
        0
 92
      512
 93
        0
300

 40
0.0
140
1.0
 94
        5
 62
     0
340
55
144
0.25
309
CONTENTFORMAT_END
171
     0
 94
        0
309
TABLEFORMAT_END
  1
CELLSTYLE_BEGIN
 90
        1
 91
        1
300
_TITLE
309
CELLSTYLE_END
300
CELLSTYLE
  1
TABLEFORMAT_BEGIN
 90
        5
170
     1
 91
        0
 92
        0
 62
   257
 93
        1
300
CONTENTFORMAT
  1
CONTENTFORMAT_BEGIN
 90
        0
 91
        0
 92
      512
 93
        0
300

 40
0.0
140
1.0
 94
        5
 62
     0
340
55
144
0.18
309
CONTENTFORMAT_END
171
     0
 94
        0
309
TABLEFORMAT_END
  1
CELLSTYLE_BEGIN
 90
        2
 91
        1
300
_HEADER
309
CELLSTYLE_END
300
CELLSTYLE
  1
TABLEFORMAT_BEGIN
 90
        5
170
     1
 91
        0
 92
        0
 62
   257
 93
        1
300
CONTENTFORMAT
  1
CONTENTFORMAT_BEGIN
 90
        0
 91
        0
 92
      512
 93
        0
300

 40
0.0
140
1.0
 94
        2
 62
     0
340
55
144
0.18
309
CONTENTFORMAT_END
171
     0
 94
        0
309
TABLEFORMAT_END
  1
CELLSTYLE_BEGIN
 90
        3
 91
        2
300
_DATA
309
CELLSTYLE_END
  0
ENDSEC
  0
SECTION
  2
ACDSDATA
 70
     2
 71
     8
  0
ACDSSCHEMA
 90
        0
  1
AcDb_Thumbnail_Schema
  2
AcDbDs::ID
280
    10
 91
        8
  2
Thumbnail_Data
280
    15
 91
        0
101
ACDSRECORD
 95
        0
 90
        1
  2
AcDbDs::TreatedAsObjectData
280
     1
291
     1
101
ACDSRECORD
 95
        0
 90
        2
  2
AcDbDs::Legacy
280
     1
291
     1
101
ACDSRECORD
  1
AcDbDs::ID
 90
        3
  2
AcDs:Indexable
280
     1
291
     1
101
ACDSRECORD
  1
AcDbDs::ID
 90
        4
  2
AcDbDs::HandleAttribute
280
     7
282
     1
  0
ACDSSCHEMA
 90
        1
  1
AcDbDs::TreatedAsObjectDataSchema
  2
AcDbDs::TreatedAsObjectData
280
     1
 91
        0
  0
ACDSSCHEMA
 90
        2
  1
AcDbDs::LegacySchema
  2
AcDbDs::Legacy
280
     1
 91
        0
  0
ACDSSCHEMA
 90
        3
  1
AcDbDs::IndexedPropertySchema
  2
AcDs:Indexable
280
     1
 91
        0
  0
ACDSSCHEMA
 90
        4
  1
AcDbDs::HandleAttributeSchema
  2
AcDbDs::HandleAttribute
280
     7
 91
        1
284
     1
  0
ACDSRECORD
 90
        0
  2
AcDbDs::ID
280
    10
320
72
  2
Thumbnail_Data
280
    15
 94
     1383
310
89504E470D0A1A0A0000000D49484452000001000000007408030000005D681C3700000300504C5445212830000000C8C8C80000000000000000000000000000000000000000000000000000330000660000990000CC0000FF0033000033330033660033990033CC0033FF0066000066330066660066990066CC0066FF0099
310
000099330099660099990099CC0099FF00CC0000CC3300CC6600CC9900CCCC00CCFF00FF0000FF3300FF6600FF9900FFCC00FFFF3300003300333300663300993300CC3300FF3333003333333333663333993333CC3333FF3366003366333366663366993366CC3366FF3399003399333399663399993399CC3399FF33CC00
310
33CC3333CC6633CC9933CCCC33CCFF33FF0033FF3333FF6633FF9933FFCC33FFFF6600006600336600666600996600CC6600FF6633006633336633666633996633CC6633FF6666006666336666666666996666CC6666FF6699006699336699666699996699CC6699FF66CC0066CC3366CC6666CC9966CCCC66CCFF66FF0066
310
FF3366FF6666FF9966FFCC66FFFF9900009900339900669900999900CC9900FF9933009933339933669933999933CC9933FF9966009966339966669966999966CC9966FF9999009999339999669999999999CC9999FF99CC0099CC3399CC6699CC9999CCCC99CCFF99FF0099FF3399FF6699FF9999FFCC99FFFFCC0000CC00
310
33CC0066CC0099CC00CCCC00FFCC3300CC3333CC3366CC3399CC33CCCC33FFCC6600CC6633CC6666CC6699CC66CCCC66FFCC9900CC9933CC9966CC9999CC99CCCC99FFCCCC00CCCC33CCCC66CCCC99CCCCCCCCCCFFCCFF00CCFF33CCFF66CCFF99CCFFCCCCFFFFFF0000FF0033FF0066FF0099FF00CCFF00FFFF3300FF3333
310
FF3366FF3399FF33CCFF33FFFF6600FF6633FF6666FF6699FF66CCFF66FFFF9900FF9933FF9966FF9999FF99CCFF99FFFFCC00FFCC33FFCC66FFCC99FFCCCCFFCCFFFFFF00FFFF33FFFF66FFFF99FFFFCCFFFFFF0000000D0D0D1A1A1A2828283535354343435050505D5D5D6B6B6B787878868686939393A1A1A1AEAEAEBB
310
BBBBC9C9C9D6D6D6E4E4E4F1F1F1FFFFFF000000000000000000000000000000000000000000000000000000000000B21171F6000002224944415478DAED9BDB72C3200C05F5FFFF7BDE3B8DED184C6C6E0F89C4EEB419A79E66A2058420C40C000000000000000086D1C1AAC1E726160BBFED6F0B85BF9202F5AB59A1F9EB
310
7642367F391168A1F8AF13C10206F434160E058113812AA9E0AD6081F81F5364D012514D33816EEBC53802D4354F8651A0E68814B23650478B2A6281A88EF654C402513DA10434A0BEDE1CCF80FAE250B465927AA3886660610179512B5BCC4051D6CD08706860A2A60B2140B6B48072CAD7520226B7FE65DE0D4CA6710901
310
BE05CCBE7FEF02A687B09C2701D9E4FB9F7E0104FC60FC084040CF2232A280CE79406B0B283613FC4F02A3210CECA7FCAE80B118B66E20EF95607323DE9C22F3BE1468EE02FFB17A3F48271BEF02C72181A002EA066E529EDC6F08354672F731AAB71D411B33A0BB8334FEB784072609D7E7079F3BFA4DA9FFE1E89C1C8EFF
310
A6466BCCF22F055E8F88A85EE957D77FE6F9844CCB71A0FA9940DF1F8BEBFBAFF075059AF9DF1047E4348A0178EFF9C94CBE6F696417F955B4EFCF694BE1AFDFD7933DA52795CD762F59025BA42F0B9402DEDF8A494F4DA58BDF5002B46FECA4028ED893073BAFCE9F7802B271903FBFDC0923604B7C49BF2F057CE80172B6
310
F559CB002A867B22A0C801898A101DC03E0EF74C403E0B841370AE056E92A025B3A3060E14FF7E07903D4C837B3D708E95F34E10019542E83A0BE85D0784107034F25EE87E2A852F0FE91D000000000000000000000000000000F8227F523CCBFB97F305430000000049454E44AE426082
  0
ENDSEC
  0
EOF
