  0
SECTION
  2
HEADER
  9
$ACADVER
  1
AC1027
  9
$ACADMAINTVER
 70
   125
  9
$DWGCODEPAGE
  3
ANSI_1252
  9
$LASTSAVEDBY
  1
Erick
  9
$REQUIREDVERSIONS
160
                 0
  9
$INSBASE
 10
0.0
 20
0.0
 30
0.0
  9
$EXTMIN
 10
-0.05
 20
-0.05
 30
0.0
  9
$EXTMAX
 10
108.55
 20
83.95000000000001
 30
1.0
  9
$LIMMIN
 10
0.0
 20
0.0
  9
$LIMMAX
 10
12.0
 20
9.0
  9
$ORTHOMODE
 70
     0
  9
$REGENMODE
 70
     1
  9
$FILLMODE
 70
     1
  9
$QTEXTMODE
 70
     0
  9
$MIRRTEXT
 70
     0
  9
$LTSCALE
 40
1.0
  9
$ATTMODE
 70
     1
  9
$TEXTSIZE
 40
0.2
  9
$TRACEWID
 40
0.05
  9
$TEXTSTYLE
  7
STANDARD
  9
$CLAYER
  8
0
  9
$CELTYPE
  6
CONTINUOUS
  9
$CECOLOR
 62
   256
  9
$CELTSCALE
 40
1.0
  9
$DISPSILH
 70
     0
  9
$DIMSCALE
 40
1.0
  9
$DIMASZ
 40
0.18
  9
$DIMEXO
 40
0.0625
  9
$DIMDLI
 40
0.38
  9
$DIMRND
 40
0.0
  9
$DIMDLE
 40
0.0
  9
$DIMEXE
 40
0.18
  9
$DIMTP
 40
0.0
  9
$DIMTM
 40
0.0
  9
$DIMTXT
 40
0.18
  9
$DIMCEN
 40
0.09
  9
$DIMTSZ
 40
0.0
  9
$DIMTOL
 70
     0
  9
$DIMLIM
 70
     0
  9
$DIMTIH
 70
     1
  9
$DIMTOH
 70
     1
  9
$DIMSE1
 70
     0
  9
$DIMSE2
 70
     0
  9
$DIMTAD
 70
     0
  9
$DIMZIN
 70
     0
  9
$DIMBLK
  1

  9
$DIMASO
 70
     1
  9
$DIMSHO
 70
     1
  9
$DIMPOST
  1

  9
$DIMAPOST
  1

  9
$DIMALT
 70
     0
  9
$DIMALTD
 70
     2
  9
$DIMALTF
 40
25.4
  9
$DIMLFAC
 40
1.0
  9
$DIMTOFL
 70
     0
  9
$DIMTVP
 40
0.0
  9
$DIMTIX
 70
     0
  9
$DIMSOXD
 70
     0
  9
$DIMSAH
 70
     0
  9
$DIMBLK1
  1

  9
$DIMBLK2
  1

  9
$DIMSTYLE
  2
STANDARD
  9
$DIMCLRD
 70
     0
  9
$DIMCLRE
 70
     0
  9
$DIMCLRT
 70
     0
  9
$DIMTFAC
 40
1.0
  9
$DIMGAP
 40
0.09
  9
$DIMJUST
 70
     0
  9
$DIMSD1
 70
     0
  9
$DIMSD2
 70
     0
  9
$DIMTOLJ
 70
     1
  9
$DIMTZIN
 70
     0
  9
$DIMALTZ
 70
     0
  9
$DIMALTTZ
 70
     0
  9
$DIMUPT
 70
     0
  9
$DIMDEC
 70
     4
  9
$DIMTDEC
 70
     4
  9
$DIMALTU
 70
     2
  9
$DIMALTTD
 70
     2
  9
$DIMTXSTY
  7
STANDARD
  9
$DIMAUNIT
 70
     0
  9
$DIMADEC
 70
     0
  9
$DIMALTRND
 40
0.0
  9
$DIMAZIN
 70
     0
  9
$DIMDSEP
 70
    46
  9
$DIMATFIT
 70
     3
  9
$DIMFRAC
 70
     0
  9
$DIMLDRBLK
  1

  9
$DIMLUNIT
 70
     2
  9
$DIMLWD
 70
    -2
  9
$DIMLWE
 70
    -2
  9
$DIMTMOVE
 70
     0
  9
$DIMFXL
 40
1.0
  9
$DIMFXLON
 70
     0
  9
$DIMJOGANG
 40
0.7853981633974483
  9
$DIMTFILL
 70
     0
  9
$DIMTFILLCLR
 70
     0
  9
$DIMARCSYM
 70
     0
  9
$DIMLTYPE
  6

  9
$DIMLTEX1
  6

  9
$DIMLTEX2
  6

  9
$DIMTXTDIRECTION
 70
     0
  9
$LUNITS
 70
     2
  9
$LUPREC
 70
     4
  9
$SKETCHINC
 40
0.1
  9
$FILLETRAD
 40
0.0
  9
$AUNITS
 70
     0
  9
$AUPREC
 70
     0
  9
$MENU
  1
.
  9
$ELEVATION
 40
0.0
  9
$PELEVATION
 40
0.0
  9
$THICKNESS
 40
0.0
  9
$LIMCHECK
 70
     0
  9
$CHAMFERA
 40
0.0
  9
$CHAMFERB
 40
0.0
  9
$CHAMFERC
 40
0.0
  9
$CHAMFERD
 40
0.0
  9
$SKPOLY
 70
     0
  9
$TDCREATE
 40
2457933.395358796
  9
$TDUCREATE
 40
2457933.603692130
  9
$TDUPDATE
 40
2457935.809282408
  9
$TDUUPDATE
 40
2457936.017615741
  9
$TDINDWG
 40
0.2358564815
  9
$TDUSRTIMER
 40
0.2358564815
  9
$USRTIMER
 70
     1
  9
$ANGBASE
 50
0.0
  9
$ANGDIR
 70
     0
  9
$PDMODE
 70
     0
  9
$PDSIZE
 40
0.0
  9
$PLINEWID
 40
0.0
  9
$SPLFRAME
 70
     0
  9
$SPLINETYPE
 70
     6
  9
$SPLINESEGS
 70
     8
  9
$HANDSEED
  5
1532
  9
$SURFTAB1
 70
     6
  9
$SURFTAB2
 70
     6
  9
$SURFTYPE
 70
     6
  9
$SURFU
 70
     6
  9
$SURFV
 70
     6
  9
$UCSBASE
  2

  9
$UCSNAME
  2

  9
$UCSORG
 10
0.0
 20
0.0
 30
0.0
  9
$UCSXDIR
 10
1.0
 20
0.0
 30
0.0
  9
$UCSYDIR
 10
0.0
 20
1.0
 30
0.0
  9
$UCSORTHOREF
  2

  9
$UCSORTHOVIEW
 70
     0
  9
$UCSORGTOP
 10
0.0
 20
0.0
 30
0.0
  9
$UCSORGBOTTOM
 10
0.0
 20
0.0
 30
0.0
  9
$UCSORGLEFT
 10
0.0
 20
0.0
 30
0.0
  9
$UCSORGRIGHT
 10
0.0
 20
0.0
 30
0.0
  9
$UCSORGFRONT
 10
0.0
 20
0.0
 30
0.0
  9
$UCSORGBACK
 10
0.0
 20
0.0
 30
0.0
  9
$PUCSBASE
  2

  9
$PUCSNAME
  2

  9
$PUCSORG
 10
0.0
 20
0.0
 30
0.0
  9
$PUCSXDIR
 10
1.0
 20
0.0
 30
0.0
  9
$PUCSYDIR
 10
0.0
 20
1.0
 30
0.0
  9
$PUCSORTHOREF
  2

  9
$PUCSORTHOVIEW
 70
     0
  9
$PUCSORGTOP
 10
0.0
 20
0.0
 30
0.0
  9
$PUCSORGBOTTOM
 10
0.0
 20
0.0
 30
0.0
  9
$PUCSORGLEFT
 10
0.0
 20
0.0
 30
0.0
  9
$PUCSORGRIGHT
 10
0.0
 20
0.0
 30
0.0
  9
$PUCSORGFRONT
 10
0.0
 20
0.0
 30
0.0
  9
$PUCSORGBACK
 10
0.0
 20
0.0
 30
0.0
  9
$USERI1
 70
     0
  9
$USERI2
 70
     0
  9
$USERI3
 70
     0
  9
$USERI4
 70
     0
  9
$USERI5
 70
     0
  9
$USERR1
 40
0.0
  9
$USERR2
 40
0.0
  9
$USERR3
 40
0.0
  9
$USERR4
 40
0.0
  9
$USERR5
 40
0.0
  9
$WORLDVIEW
 70
     1
  9
$SHADEDGE
 70
     3
  9
$SHADEDIF
 70
    70
  9
$TILEMODE
 70
     1
  9
$MAXACTVP
 70
    64
  9
$PINSBASE
 10
0.0
 20
0.0
 30
0.0
  9
$PLIMCHECK
 70
     0
  9
$PEXTMIN
 10
1.000000000000000E+20
 20
1.000000000000000E+20
 30
1.000000000000000E+20
  9
$PEXTMAX
 10
-1.000000000000000E+20
 20
-1.000000000000000E+20
 30
-1.000000000000000E+20
  9
$PLIMMIN
 10
0.0
 20
0.0
  9
$PLIMMAX
 10
12.0
 20
9.0
  9
$UNITMODE
 70
     0
  9
$VISRETAIN
 70
     1
  9
$PLINEGEN
 70
     0
  9
$PSLTSCALE
 70
     1
  9
$TREEDEPTH
 70
  3020
  9
$CMLSTYLE
  2
Standard
  9
$CMLJUST
 70
     0
  9
$CMLSCALE
 40
1.0
  9
$PROXYGRAPHICS
 70
     1
  9
$MEASUREMENT
 70
     0
  9
$CELWEIGHT
370
    -1
  9
$ENDCAPS
280
     0
  9
$JOINSTYLE
280
     0
  9
$LWDISPLAY
290
     0
  9
$INSUNITS
 70
     0
  9
$HYPERLINKBASE
  1

  9
$STYLESHEET
  1

  9
$XEDIT
290
     1
  9
$CEPSNTYPE
380
     0
  9
$PSTYLEMODE
290
     1
  9
$FINGERPRINTGUID
  2
{E96E792B-7A82-824B-BF95-D14F0B4092B5}
  9
$VERSIONGUID
  2
{91760774-B89E-9147-92A2-1195E5A61388}
  9
$EXTNAMES
290
     1
  9
$PSVPSCALE
 40
0.0
  9
$OLESTARTUP
290
     0
  9
$SORTENTS
280
   127
  9
$INDEXCTL
280
     0
  9
$HIDETEXT
280
     0
  9
$XCLIPFRAME
280
     2
  9
$HALOGAP
280
     0
  9
$OBSCOLOR
 70
   257
  9
$OBSLTYPE
280
     0
  9
$INTERSECTIONDISPLAY
280
     0
  9
$INTERSECTIONCOLOR
 70
   257
  9
$DIMASSOC
280
     1
  9
$PROJECTNAME
  1

  9
$CAMERADISPLAY
290
     0
  9
$LENSLENGTH
 40
50.0
  9
$CAMERAHEIGHT
 40
0.0
  9
$STEPSPERSEC
 40
2.0
  9
$STEPSIZE
 40
6.0
  9
$3DDWFPREC
 40
2.0
  9
$PSOLWIDTH
 40
0.25
  9
$PSOLHEIGHT
 40
4.0
  9
$LOFTANG1
 40
1.570796326794896
  9
$LOFTANG2
 40
1.570796326794896
  9
$LOFTMAG1
 40
0.0
  9
$LOFTMAG2
 40
0.0
  9
$LOFTPARAM
 70
     7
  9
$LOFTNORMALS
280
     1
  9
$LATITUDE
 40
37.795
  9
$LONGITUDE
 40
-122.394
  9
$NORTHDIRECTION
 40
0.0
  9
$TIMEZONE
 70
 -8000
  9
$LIGHTGLYPHDISPLAY
280
     1
  9
$TILEMODELIGHTSYNCH
280
     1
  9
$CMATERIAL
347
140E
  9
$SOLIDHIST
280
     0
  9
$SHOWHIST
280
     1
  9
$DWFFRAME
280
     2
  9
$DGNFRAME
280
     0
  9
$REALWORLDSCALE
290
     1
  9
$INTERFERECOLOR
 62
     1
  9
$INTERFEREOBJVS
345
1430
  9
$INTERFEREVPVS
346
142D
  9
$CSHADOW
280
     0
  9
$SHADOWPLANELOCATION
 40
0.0
  0
ENDSEC
  0
SECTION
  2
CLASSES
  0
CLASS
  1
ACDBDICTIONARYWDFLT
  2
AcDbDictionaryWithDefault
  3
ObjectDBX Classes
 90
        0
 91
        1
280
     0
281
     0
  0
CLASS
  1
MATERIAL
  2
AcDbMaterial
  3
ObjectDBX Classes
 90
     1153
 91
        3
280
     0
281
     0
  0
CLASS
  1
VISUALSTYLE
  2
AcDbVisualStyle
  3
ObjectDBX Classes
 90
     4095
 91
       24
280
     0
281
     0
  0
CLASS
  1
SCALE
  2
AcDbScale
  3
ObjectDBX Classes
 90
     1153
 91
       17
280
     0
281
     0
  0
CLASS
  1
TABLESTYLE
  2
AcDbTableStyle
  3
ObjectDBX Classes
 90
     4095
 91
        1
280
     0
281
     0
  0
CLASS
  1
MLEADERSTYLE
  2
AcDbMLeaderStyle
  3
ACDB_MLEADERSTYLE_CLASS
 90
     4095
 91
        1
280
     0
281
     0
  0
CLASS
  1
ACDBSECTIONVIEWSTYLE
  2
AcDbSectionViewStyle
  3
ObjectDBX Classes
 90
     1025
 91
        1
280
     0
281
     0
  0
CLASS
  1
ACDBDETAILVIEWSTYLE
  2
AcDbDetailViewStyle
  3
ObjectDBX Classes
 90
     1025
 91
        1
280
     0
281
     0
  0
CLASS
  1
DICTIONARYVAR
  2
AcDbDictionaryVar
  3
ObjectDBX Classes
 90
        0
 91
       27
280
     0
281
     0
  0
CLASS
  1
CELLSTYLEMAP
  2
AcDbCellStyleMap
  3
ObjectDBX Classes
 90
     1152
 91
        3
280
     0
281
     0
  0
ENDSEC
  0
SECTION
  2
TABLES
  0
TABLE
  2
VPORT
  5
1405
330
0
100
AcDbSymbolTable
 70
     1
1001
ACAD
1000
DbSaveVer
1071
        5
  0
VPORT
  5
1470
330
1405
100
AcDbSymbolTableRecord
100
AcDbViewportTableRecord
  2
*ACTIVE
 70
     0
 10
0.0
 20
0.0
 11
1.0
 21
1.0
 12
56.13960378513404
 22
21.41814362482387
 13
0.0
 23
0.0
 14
1.0
 24
1.0
 15
0.0
 25
0.0
 16
0.0
 26
0.0
 36
1.0
 17
0.0
 27
0.0
 37
0.0
 40
102.4608616865248
 41
1.933010492332526
 42
50.0
 43
0.0
 44
0.0
 50
0.0
 51
0.0
 71
     0
 72
   100
 73
     1
 74
     1
 75
     0
 76
     0
 77
     0
 78
     0
281
     0
 65
     1
110
0.0
120
0.0
130
0.0
111
1.0
121
0.0
131
0.0
112
0.0
122
1.0
132
0.0
 79
     0
146
0.0
348
142C
 60
     3
 61
     5
292
     1
282
     0
141
0.0
142
0.0
 63
   250
421
  3355443
1001
ACAD_NAV_VCDISPLAY
1070
     3
  0
ENDTAB
  0
TABLE
  2
LTYPE
  5
1402
330
0
100
AcDbSymbolTable
 70
     3
  0
LTYPE
  5
1457
330
1402
100
AcDbSymbolTableRecord
100
AcDbLinetypeTableRecord
  2
ByBlock
 70
     0
  3

 72
    65
 73
     0
 40
0.0
  0
LTYPE
  5
1458
330
1402
100
AcDbSymbolTableRecord
100
AcDbLinetypeTableRecord
  2
ByLayer
 70
     0
  3

 72
    65
 73
     0
 40
0.0
  0
LTYPE
  5
1459
330
1402
100
AcDbSymbolTableRecord
100
AcDbLinetypeTableRecord
  2
CONTINUOUS
 70
     0
  3
Solid line
 72
    65
 73
     0
 40
0.0
  0
ENDTAB
  0
TABLE
  2
LAYER
  5
13FF
102
{ACAD_XDICTIONARY
360
1512
102
}
330
0
100
AcDbSymbolTable
 70
     6
  0
LAYER
  5
1451
102
{ACAD_XDICTIONARY
360
14E3
102
}
330
13FF
100
AcDbSymbolTableRecord
100
AcDbLayerTableRecord
  2
0
 70
     0
 62
     7
  6
CONTINUOUS
370
    -3
390
140C
347
141E
348
0
  0
LAYER
  5
1471
102
{ACAD_XDICTIONARY
360
14E5
102
}
330
13FF
100
AcDbSymbolTableRecord
100
AcDbLayerTableRecord
  2
16
 70
     0
 62
   175
  6
CONTINUOUS
370
    -3
390
140C
347
141E
348
0
  0
LAYER
  5
1472
102
{ACAD_XDICTIONARY
360
14E7
102
}
330
13FF
100
AcDbSymbolTableRecord
100
AcDbLayerTableRecord
  2
20
 70
     0
 62
     7
  6
CONTINUOUS
370
    -3
390
140C
347
141E
348
0
  0
LAYER
  5
1473
102
{ACAD_XDICTIONARY
360
14E9
102
}
330
13FF
100
AcDbSymbolTableRecord
100
AcDbLayerTableRecord
  2
21
 70
     0
 62
   253
  6
CONTINUOUS
370
    -3
390
140C
347
141E
348
0
  0
LAYER
  5
1474
102
{ACAD_XDICTIONARY
360
14EB
102
}
330
13FF
100
AcDbSymbolTableRecord
100
AcDbLayerTableRecord
  2
44
 70
     0
 62
   253
  6
CONTINUOUS
370
    -3
390
140C
347
141E
348
0
  0
LAYER
  5
1475
102
{ACAD_XDICTIONARY
360
14ED
102
}
330
13FF
100
AcDbSymbolTableRecord
100
AcDbLayerTableRecord
  2
45
 70
     0
 62
   253
  6
CONTINUOUS
370
    -3
390
140C
347
141E
348
0
  0
ENDTAB
  0
TABLE
  2
STYLE
  5
1400
330
0
100
AcDbSymbolTable
 70
     2
  0
STYLE
  5
1452
330
1400
100
AcDbSymbolTableRecord
100
AcDbTextStyleTableRecord
  2
STANDARD
 70
     0
 40
0.0
 41
1.0
 50
0.0
 71
     0
 42
0.2
  3
txt
  4

  0
STYLE
  5
1456
330
1400
100
AcDbSymbolTableRecord
100
AcDbTextStyleTableRecord
  2
ANNOTATIVE
 70
     0
 40
0.0
 41
1.0
 50
0.0
 71
     0
 42
0.2
  3
txt
  4

1001
ACADANNOTATIVE
1000
AnnotativeData
1002
{
1070
     1
1070
     1
1002
}
  0
ENDTAB
  0
TABLE
  2
VIEW
  5
1403
330
0
100
AcDbSymbolTable
 70
     2
  0
ENDTAB
  0
TABLE
  2
UCS
  5
1404
330
0
100
AcDbSymbolTable
 70
     0
  0
ENDTAB
  0
TABLE
  2
APPID
  5
1406
330
0
100
AcDbSymbolTable
 70
     5
  0
APPID
  5
1453
330
1406
100
AcDbSymbolTableRecord
100
AcDbRegAppTableRecord
  2
ACAD
 70
     0
  0
APPID
  5
145A
330
1406
100
AcDbSymbolTableRecord
100
AcDbRegAppTableRecord
  2
ACADANNOTATIVE
 70
     0
  0
APPID
  5
1476
330
1406
100
AcDbSymbolTableRecord
100
AcDbRegAppTableRecord
  2
ACAD_EXEMPT_FROM_CAD_STANDARDS
 70
     0
  0
APPID
  5
1477
330
1406
100
AcDbSymbolTableRecord
100
AcDbRegAppTableRecord
  2
ACAD_NAV_VCDISPLAY
 70
     0
  0
APPID
  5
1478
330
1406
100
AcDbSymbolTableRecord
100
AcDbRegAppTableRecord
  2
ACAD_MLEADERVER
 70
     0
  0
ENDTAB
  0
TABLE
  2
DIMSTYLE
  5
1407
330
0
100
AcDbSymbolTable
 70
     3
100
AcDbDimStyleTable
 71
     1
340
1454
  0
DIMSTYLE
105
1454
330
1407
100
AcDbSymbolTableRecord
100
AcDbDimStyleTableRecord
  2
STANDARD
 70
     0
279
     2
340
1452
  0
DIMSTYLE
105
1455
330
1407
100
AcDbSymbolTableRecord
100
AcDbDimStyleTableRecord
  2
ANNOTATIVE
 70
     0
279
     2
340
1452
1001
ACADANNOTATIVE
1000
AnnotativeData
1002
{
1070
     1
1070
     1
1002
}
  0
ENDTAB
  0
TABLE
  2
BLOCK_RECORD
  5
13FE
330
0
100
AcDbSymbolTable
 70
    19
  0
BLOCK_RECORD
  5
146C
330
13FE
100
AcDbSymbolTableRecord
100
AcDbBlockTableRecord
  2
*Model_Space
340
146F
 70
     0
280
     1
281
     0
  0
BLOCK_RECORD
  5
1468
330
13FE
100
AcDbSymbolTableRecord
100
AcDbBlockTableRecord
  2
*Paper_Space
340
146B
 70
     0
280
     1
281
     0
  0
BLOCK_RECORD
  5
147A
330
13FE
100
AcDbSymbolTableRecord
100
AcDbBlockTableRecord
  2
$MODEL_SPACE
340
0
 70
     0
280
     1
281
     0
  0
BLOCK_RECORD
  5
147C
330
13FE
100
AcDbSymbolTableRecord
100
AcDbBlockTableRecord
  2
$PAPER_SPACE
340
0
 70
     0
280
     1
281
     0
  0
BLOCK_RECORD
  5
147E
330
13FE
100
AcDbSymbolTableRecord
100
AcDbBlockTableRecord
  2
RECT
340
0
 70
     0
280
     1
281
     0
  0
BLOCK_RECORD
  5
1480
330
13FE
100
AcDbSymbolTableRecord
100
AcDbBlockTableRecord
  2
PIE
340
0
 70
     0
280
     1
281
     0
  0
BLOCK_RECORD
  5
1482
330
13FE
100
AcDbSymbolTableRecord
100
AcDbBlockTableRecord
  2
OCTAGONP
340
0
 70
     0
280
     1
281
     0
  0
BLOCK_RECORD
  5
1484
330
13FE
100
AcDbSymbolTableRecord
100
AcDbBlockTableRecord
  2
SQUAREP
340
0
 70
     0
280
     1
281
     0
  0
BLOCK_RECORD
  5
1486
330
13FE
100
AcDbSymbolTableRecord
100
AcDbBlockTableRecord
  2
ROUNDP
340
0
 70
     0
280
     1
281
     0
  0
BLOCK_RECORD
  5
1488
330
13FE
100
AcDbSymbolTableRecord
100
AcDbBlockTableRecord
  2
ANNULUSP
340
0
 70
     0
280
     1
281
     0
  0
BLOCK_RECORD
  5
148A
330
13FE
100
AcDbSymbolTableRecord
100
AcDbBlockTableRecord
  2
THERMALP
340
0
 70
     0
280
     1
281
     0
  0
BLOCK_RECORD
  5
148C
330
13FE
100
AcDbSymbolTableRecord
100
AcDbBlockTableRecord
  2
OCTAGONV
340
0
 70
     0
280
     1
281
     0
  0
BLOCK_RECORD
  5
148E
330
13FE
100
AcDbSymbolTableRecord
100
AcDbBlockTableRecord
  2
SQUAREV
340
0
 70
     0
280
     1
281
     0
  0
BLOCK_RECORD
  5
1490
330
13FE
100
AcDbSymbolTableRecord
100
AcDbBlockTableRecord
  2
ROUNDV
340
0
 70
     0
280
     1
281
     0
  0
BLOCK_RECORD
  5
1492
330
13FE
100
AcDbSymbolTableRecord
100
AcDbBlockTableRecord
  2
ANNULUSV
340
0
 70
     0
280
     1
281
     0
  0
BLOCK_RECORD
  5
1494
330
13FE
100
AcDbSymbolTableRecord
100
AcDbBlockTableRecord
  2
THERMALV
340
0
 70
     0
280
     1
281
     0
  0
BLOCK_RECORD
  5
1496
330
13FE
100
AcDbSymbolTableRecord
100
AcDbBlockTableRecord
  2
A$C571C3C3A
340
0
 70
     0
280
     1
281
     0
  0
BLOCK_RECORD
  5
1498
330
13FE
100
AcDbSymbolTableRecord
100
AcDbBlockTableRecord
  2
*U15
340
0
 70
     0
280
     1
281
     0
  0
BLOCK_RECORD
  5
149A
330
13FE
100
AcDbSymbolTableRecord
100
AcDbBlockTableRecord
  2
*U16
340
0
102
{BLKREFS
331
8E1
102
}
 70
     0
280
     1
281
     0
  0
ENDTAB
  0
ENDSEC
  0
SECTION
  2
BLOCKS
  0
BLOCK
  5
146D
330
146C
100
AcDbEntity
  8
0
100
AcDbBlockBegin
  2
*Model_Space
 70
     0
 10
0.0
 20
0.0
 30
0.0
  3
*Model_Space
  1

  0
ENDBLK
  5
146E
330
146C
100
AcDbEntity
  8
0
100
AcDbBlockEnd
  0
BLOCK
  5
1469
330
1468
100
AcDbEntity
 67
     1
  8
0
100
AcDbBlockBegin
  2
*Paper_Space
 70
     0
 10
0.0
 20
0.0
 30
0.0
  3
*Paper_Space
  1

  0
ENDBLK
  5
146A
330
1468
100
AcDbEntity
 67
     1
  8
0
100
AcDbBlockEnd
  0
BLOCK
  5
147B
330
147A
100
AcDbEntity
  8
0
100
AcDbBlockBegin
  2
$MODEL_SPACE
 70
     0
 10
0.0
 20
0.0
 30
0.0
  3
$MODEL_SPACE
  1

  0
ENDBLK
  5
71
330
147A
100
AcDbEntity
  8
0
100
AcDbBlockEnd
  0
BLOCK
  5
147D
330
147C
100
AcDbEntity
  8
0
100
AcDbBlockBegin
  2
$PAPER_SPACE
 70
     0
 10
0.0
 20
0.0
 30
0.0
  3
$PAPER_SPACE
  1

  0
ENDBLK
  5
6D
330
147C
100
AcDbEntity
  8
0
100
AcDbBlockEnd
  0
BLOCK
  5
147F
330
147E
100
AcDbEntity
  8
0
100
AcDbBlockBegin
  2
RECT
 70
     0
 10
0.0
 20
0.0
 30
0.0
  3
RECT
  1

  0
SOLID
  5
7C
330
147E
100
AcDbEntity
  8
0
100
AcDbTrace
 10
-0.5
 20
-0.5
 30
0.0
 11
0.5
 21
-0.5
 31
0.0
 12
-0.5
 22
0.5
 32
0.0
 13
0.5
 23
0.5
 33
0.0
  0
ENDBLK
  5
7D
330
147E
100
AcDbEntity
  8
0
100
AcDbBlockEnd
  0
BLOCK
  5
1481
330
1480
100
AcDbEntity
  8
0
100
AcDbBlockBegin
  2
PIE
 70
     0
 10
0.0
 20
0.0
 30
0.0
  3
PIE
  1

  0
LWPOLYLINE
  5
80
330
1480
100
AcDbEntity
  8
0
100
AcDbPolyline
 90
        3
 70
     0
 43
0.5
 10
0.0
 20
-0.25
 42
1.0
 10
0.0
 20
0.25
 42
1.0
 10
0.0
 20
-0.25
  0
ENDBLK
  5
85
330
1480
100
AcDbEntity
  8
0
100
AcDbBlockEnd
  0
BLOCK
  5
1483
330
1482
100
AcDbEntity
  8
0
100
AcDbBlockBegin
  2
OCTAGONP
 70
     0
 10
0.0
 20
0.0
 30
0.0
  3
OCTAGONP
  1

  0
LWPOLYLINE
  5
88
330
1482
100
AcDbEntity
  8
0
100
AcDbPolyline
 90
       10
 70
     0
 43
0.5
 10
-0.25
 20
-0.1036
 10
-0.25
 20
0.1036
 10
-0.1036
 20
0.25
 10
0.1036
 20
0.25
 10
0.25
 20
0.1036
 10
0.25
 20
-0.1036
 10
0.1036
 20
-0.25
 10
-0.1036
 20
-0.25
 10
-0.25
 20
-0.1036
 10
-0.25
 20
0.1036
  0
ENDBLK
  5
94
330
1482
100
AcDbEntity
  8
0
100
AcDbBlockEnd
  0
BLOCK
  5
1485
330
1484
100
AcDbEntity
  8
0
100
AcDbBlockBegin
  2
SQUAREP
 70
     0
 10
0.0
 20
0.0
 30
0.0
  3
SQUAREP
  1

  0
SOLID
  5
97
330
1484
100
AcDbEntity
  8
0
100
AcDbTrace
 10
-0.5
 20
-0.5
 30
0.0
 11
0.5
 21
-0.5
 31
0.0
 12
-0.5
 22
0.5
 32
0.0
 13
0.5
 23
0.5
 33
0.0
  0
ENDBLK
  5
98
330
1484
100
AcDbEntity
  8
0
100
AcDbBlockEnd
  0
BLOCK
  5
1487
330
1486
100
AcDbEntity
  8
0
100
AcDbBlockBegin
  2
ROUNDP
 70
     0
 10
0.0
 20
0.0
 30
0.0
  3
ROUNDP
  1

  0
LWPOLYLINE
  5
9B
330
1486
100
AcDbEntity
  8
0
100
AcDbPolyline
 90
        3
 70
     0
 43
0.5
 10
0.0
 20
-0.25
 42
1.0
 10
0.0
 20
0.25
 42
1.0
 10
0.0
 20
-0.25
  0
ENDBLK
  5
A0
330
1486
100
AcDbEntity
  8
0
100
AcDbBlockEnd
  0
BLOCK
  5
1489
330
1488
100
AcDbEntity
  8
0
100
AcDbBlockBegin
  2
ANNULUSP
 70
     0
 10
0.0
 20
0.0
 30
0.0
  3
ANNULUSP
  1

  0
LWPOLYLINE
  5
A3
330
1488
100
AcDbEntity
  8
0
100
AcDbPolyline
 90
        3
 70
     0
 43
0.5
 10
0.0
 20
-0.25
 42
1.0
 10
0.0
 20
0.25
 42
1.0
 10
0.0
 20
-0.25
  0
ENDBLK
  5
A8
330
1488
100
AcDbEntity
  8
0
100
AcDbBlockEnd
  0
BLOCK
  5
148B
330
148A
100
AcDbEntity
  8
0
100
AcDbBlockBegin
  2
THERMALP
 70
     0
 10
0.0
 20
0.0
 30
0.0
  3
THERMALP
  1

  0
LWPOLYLINE
  5
AB
330
148A
100
AcDbEntity
  8
0
100
AcDbPolyline
 90
        2
 70
     0
 43
0.1
 10
-0.2379
 20
0.45
 10
0.2379
 20
0.45
  0
LWPOLYLINE
  5
AF
330
148A
100
AcDbEntity
  8
0
100
AcDbPolyline
 90
        2
 70
     0
 43
0.05
 10
0.2379
 20
0.425
 42
1.0
 10
0.2379
 20
0.475
  0
LWPOLYLINE
  5
B3
330
148A
100
AcDbEntity
  8
0
100
AcDbPolyline
 90
        2
 70
     0
 43
0.05
 10
-0.2379
 20
0.475
 42
1.0
 10
-0.2379
 20
0.425
  0
LWPOLYLINE
  5
B7
330
148A
100
AcDbEntity
  8
0
100
AcDbPolyline
 90
        2
 70
     0
 43
0.1
 10
0.45
 20
0.2379
 10
0.45
 20
-0.2379
  0
LWPOLYLINE
  5
BB
330
148A
100
AcDbEntity
  8
0
100
AcDbPolyline
 90
        2
 70
     0
 43
0.05
 10
0.425
 20
-0.2379
 42
1.0
 10
0.475
 20
-0.2379
  0
LWPOLYLINE
  5
BF
330
148A
100
AcDbEntity
  8
0
100
AcDbPolyline
 90
        2
 70
     0
 43
0.05
 10
0.475
 20
0.2379
 42
1.0
 10
0.425
 20
0.2379
  0
LWPOLYLINE
  5
C3
330
148A
100
AcDbEntity
  8
0
100
AcDbPolyline
 90
        2
 70
     0
 43
0.1
 10
0.2379
 20
-0.45
 10
-0.2379
 20
-0.45
  0
LWPOLYLINE
  5
C7
330
148A
100
AcDbEntity
  8
0
100
AcDbPolyline
 90
        2
 70
     0
 43
0.05
 10
-0.2379
 20
-0.425
 42
1.0
 10
-0.2379
 20
-0.475
  0
LWPOLYLINE
  5
CB
330
148A
100
AcDbEntity
  8
0
100
AcDbPolyline
 90
        2
 70
     0
 43
0.05
 10
0.2379
 20
-0.475
 42
1.0
 10
0.2379
 20
-0.425
  0
LWPOLYLINE
  5
CF
330
148A
100
AcDbEntity
  8
0
100
AcDbPolyline
 90
        2
 70
     0
 43
0.1
 10
-0.45
 20
-0.2379
 10
-0.45
 20
0.2379
  0
LWPOLYLINE
  5
D3
330
148A
100
AcDbEntity
  8
0
100
AcDbPolyline
 90
        2
 70
     0
 43
0.05
 10
-0.425
 20
0.2379
 42
1.0
 10
-0.475
 20
0.2379
  0
LWPOLYLINE
  5
D7
330
148A
100
AcDbEntity
  8
0
100
AcDbPolyline
 90
        2
 70
     0
 43
0.05
 10
-0.475
 20
-0.2379
 42
1.0
 10
-0.425
 20
-0.2379
  0
ENDBLK
  5
DB
330
148A
100
AcDbEntity
  8
0
100
AcDbBlockEnd
  0
BLOCK
  5
148D
330
148C
100
AcDbEntity
  8
0
100
AcDbBlockBegin
  2
OCTAGONV
 70
     0
 10
0.0
 20
0.0
 30
0.0
  3
OCTAGONV
  1

  0
LWPOLYLINE
  5
DE
330
148C
100
AcDbEntity
  8
0
100
AcDbPolyline
 90
       10
 70
     0
 43
0.5
 10
-0.25
 20
-0.1036
 10
-0.25
 20
0.1036
 10
-0.1036
 20
0.25
 10
0.1036
 20
0.25
 10
0.25
 20
0.1036
 10
0.25
 20
-0.1036
 10
0.1036
 20
-0.25
 10
-0.1036
 20
-0.25
 10
-0.25
 20
-0.1036
 10
-0.25
 20
0.1036
  0
ENDBLK
  5
EA
330
148C
100
AcDbEntity
  8
0
100
AcDbBlockEnd
  0
BLOCK
  5
148F
330
148E
100
AcDbEntity
  8
0
100
AcDbBlockBegin
  2
SQUAREV
 70
     0
 10
0.0
 20
0.0
 30
0.0
  3
SQUAREV
  1

  0
SOLID
  5
ED
330
148E
100
AcDbEntity
  8
0
100
AcDbTrace
 10
-0.5
 20
-0.5
 30
0.0
 11
0.5
 21
-0.5
 31
0.0
 12
-0.5
 22
0.5
 32
0.0
 13
0.5
 23
0.5
 33
0.0
  0
ENDBLK
  5
EE
330
148E
100
AcDbEntity
  8
0
100
AcDbBlockEnd
  0
BLOCK
  5
1491
330
1490
100
AcDbEntity
  8
0
100
AcDbBlockBegin
  2
ROUNDV
 70
     0
 10
0.0
 20
0.0
 30
0.0
  3
ROUNDV
  1

  0
LWPOLYLINE
  5
F1
330
1490
100
AcDbEntity
  8
0
100
AcDbPolyline
 90
        3
 70
     0
 43
0.5
 10
0.0
 20
-0.25
 42
1.0
 10
0.0
 20
0.25
 42
1.0
 10
0.0
 20
-0.25
  0
ENDBLK
  5
F6
330
1490
100
AcDbEntity
  8
0
100
AcDbBlockEnd
  0
BLOCK
  5
1493
330
1492
100
AcDbEntity
  8
0
100
AcDbBlockBegin
  2
ANNULUSV
 70
     0
 10
0.0
 20
0.0
 30
0.0
  3
ANNULUSV
  1

  0
LWPOLYLINE
  5
F9
330
1492
100
AcDbEntity
  8
0
100
AcDbPolyline
 90
        3
 70
     0
 43
0.5
 10
0.0
 20
-0.25
 42
1.0
 10
0.0
 20
0.25
 42
1.0
 10
0.0
 20
-0.25
  0
ENDBLK
  5
FE
330
1492
100
AcDbEntity
  8
0
100
AcDbBlockEnd
  0
BLOCK
  5
1495
330
1494
100
AcDbEntity
  8
0
100
AcDbBlockBegin
  2
THERMALV
 70
     0
 10
0.0
 20
0.0
 30
0.0
  3
THERMALV
  1

  0
LWPOLYLINE
  5
101
330
1494
100
AcDbEntity
  8
0
100
AcDbPolyline
 90
        2
 70
     0
 43
0.1
 10
-0.2379
 20
0.45
 10
0.2379
 20
0.45
  0
LWPOLYLINE
  5
105
330
1494
100
AcDbEntity
  8
0
100
AcDbPolyline
 90
        2
 70
     0
 43
0.05
 10
0.2379
 20
0.425
 42
1.0
 10
0.2379
 20
0.475
  0
LWPOLYLINE
  5
109
330
1494
100
AcDbEntity
  8
0
100
AcDbPolyline
 90
        2
 70
     0
 43
0.05
 10
-0.2379
 20
0.475
 42
1.0
 10
-0.2379
 20
0.425
  0
LWPOLYLINE
  5
10D
330
1494
100
AcDbEntity
  8
0
100
AcDbPolyline
 90
        2
 70
     0
 43
0.1
 10
0.45
 20
0.2379
 10
0.45
 20
-0.2379
  0
LWPOLYLINE
  5
111
330
1494
100
AcDbEntity
  8
0
100
AcDbPolyline
 90
        2
 70
     0
 43
0.05
 10
0.425
 20
-0.2379
 42
1.0
 10
0.475
 20
-0.2379
  0
LWPOLYLINE
  5
115
330
1494
100
AcDbEntity
  8
0
100
AcDbPolyline
 90
        2
 70
     0
 43
0.05
 10
0.475
 20
0.2379
 42
1.0
 10
0.425
 20
0.2379
  0
LWPOLYLINE
  5
119
330
1494
100
AcDbEntity
  8
0
100
AcDbPolyline
 90
        2
 70
     0
 43
0.1
 10
0.2379
 20
-0.45
 10
-0.2379
 20
-0.45
  0
LWPOLYLINE
  5
11D
330
1494
100
AcDbEntity
  8
0
100
AcDbPolyline
 90
        2
 70
     0
 43
0.05
 10
-0.2379
 20
-0.425
 42
1.0
 10
-0.2379
 20
-0.475
  0
LWPOLYLINE
  5
121
330
1494
100
AcDbEntity
  8
0
100
AcDbPolyline
 90
        2
 70
     0
 43
0.05
 10
0.2379
 20
-0.475
 42
1.0
 10
0.2379
 20
-0.425
  0
LWPOLYLINE
  5
125
330
1494
100
AcDbEntity
  8
0
100
AcDbPolyline
 90
        2
 70
     0
 43
0.1
 10
-0.45
 20
-0.2379
 10
-0.45
 20
0.2379
  0
LWPOLYLINE
  5
129
330
1494
100
AcDbEntity
  8
0
100
AcDbPolyline
 90
        2
 70
     0
 43
0.05
 10
-0.425
 20
0.2379
 42
1.0
 10
-0.475
 20
0.2379
  0
LWPOLYLINE
  5
12D
330
1494
100
AcDbEntity
  8
0
100
AcDbPolyline
 90
        2
 70
     0
 43
0.05
 10
-0.475
 20
-0.2379
 42
1.0
 10
-0.425
 20
-0.2379
  0
ENDBLK
  5
131
330
1494
100
AcDbEntity
  8
0
100
AcDbBlockEnd
  0
BLOCK
  5
1497
330
1496
100
AcDbEntity
  8
0
100
AcDbBlockBegin
  2
A$C571C3C3A
 70
     0
 10
0.0
 20
0.0
 30
0.0
  3
A$C571C3C3A
  1

  0
LWPOLYLINE
  5
528
330
1496
100
AcDbEntity
  8
21
100
AcDbPolyline
 90
        2
 70
     0
 43
0.1
 10
-0.0000004024971076
 20
0.0500002768865215
 10
8.999999597502892
 20
0.0500002768865215
  0
ENDBLK
  5
52A
330
1496
100
AcDbEntity
  8
0
100
AcDbBlockEnd
  0
BLOCK
  5
1499
330
1498
100
AcDbEntity
  8
0
100
AcDbBlockBegin
  2
*U15
 70
     1
 10
0.0
 20
0.0
 30
0.0
  3
*U15
  1

  0
TEXT
  5
13F4
330
1498
100
AcDbEntity
  8
0
  6
Continuous
100
AcDbText
 10
87.69097438393647
 20
77.04033412150838
 30
0.0
 40
1.399999999999999
  1
RJ45
100
AcDbText
  0
TEXT
  5
13F5
330
1498
100
AcDbEntity
  8
0
  6
Continuous
100
AcDbText
 10
87.69097438393647
 20
74.70700078817505
 30
0.0
 40
1.399999999999999
  1
one-wire
100
AcDbText
  0
TEXT
  5
13F6
330
1498
100
AcDbEntity
  8
0
  6
Continuous
100
AcDbText
 10
87.69097438393647
 20
72.37366745484172
 30
0.0
 40
1.399999999999999
  1
temp
100
AcDbText
  0
TEXT
  5
13F7
330
1498
100
AcDbEntity
  8
0
  6
Continuous
100
AcDbText
 10
87.69097438393647
 20
70.04033412150841
 30
0.0
 40
1.399999999999999
  1
aux
100
AcDbText
  0
ENDBLK
  5
13F9
330
1498
100
AcDbEntity
  8
0
100
AcDbBlockEnd
  0
BLOCK
  5
149B
330
149A
100
AcDbEntity
  8
0
100
AcDbBlockBegin
  2
*U16
 70
     1
 10
0.0
 20
0.0
 30
0.0
  3
*U16
  1

  0
TEXT
  5
13FB
330
149A
100
AcDbEntity
  8
0
  6
Continuous
100
AcDbText
 10
64.98874073704655
 20
66.46915698802385
 30
0.0
 40
1.399999999999999
  1
GND
100
AcDbText
  0
ENDBLK
  5
13FD
330
149A
100
AcDbEntity
  8
0
100
AcDbBlockEnd
  0
ENDSEC
  0
SECTION
  2
ENTITIES
  0
LWPOLYLINE
  5
132
330
146C
100
AcDbEntity
  8
20
100
AcDbPolyline
 90
        2
 70
     0
 43
0.1
 10
0.0
 20
3.0
 42
0.4142000000000002
 10
3.0
 20
0.0
  0
LWPOLYLINE
  5
136
330
146C
100
AcDbEntity
  8
20
100
AcDbPolyline
 90
        2
 70
     0
 43
0.05
 10
0.025
 20
3.0
 42
1.0
 10
-0.025
 20
3.0
  0
LWPOLYLINE
  5
13A
330
146C
100
AcDbEntity
  8
20
100
AcDbPolyline
 90
        2
 70
     0
 43
0.05
 10
3.0
 20
-0.025
 42
1.0
 10
3.0
 20
0.025
  0
LWPOLYLINE
  5
13E
330
146C
100
AcDbEntity
  8
20
100
AcDbPolyline
 90
        2
 70
     0
 43
0.1
 10
3.0
 20
0.0
 10
105.5
 20
0.0
  0
LWPOLYLINE
  5
142
330
146C
100
AcDbEntity
  8
20
100
AcDbPolyline
 90
        2
 70
     0
 43
0.05
 10
105.5
 20
-0.025
 42
1.0
 10
105.5
 20
0.025
  0
LWPOLYLINE
  5
146
330
146C
100
AcDbEntity
  8
20
100
AcDbPolyline
 90
        2
 70
     0
 43
0.05
 10
3.0
 20
0.025
 42
1.0
 10
3.0
 20
-0.025
  0
LWPOLYLINE
  5
14A
330
146C
100
AcDbEntity
  8
20
100
AcDbPolyline
 90
        2
 70
     0
 43
0.1
 10
105.5
 20
0.0
 42
0.4142000000000002
 10
108.5
 20
3.0
  0
LWPOLYLINE
  5
14E
330
146C
100
AcDbEntity
  8
20
100
AcDbPolyline
 90
        2
 70
     0
 43
0.05
 10
105.5
 20
0.025
 42
1.0
 10
105.5
 20
-0.025
  0
LWPOLYLINE
  5
152
330
146C
100
AcDbEntity
  8
20
100
AcDbPolyline
 90
        2
 70
     0
 43
0.05
 10
108.525
 20
3.0
 42
1.0
 10
108.475
 20
3.0
  0
LWPOLYLINE
  5
156
330
146C
100
AcDbEntity
  8
20
100
AcDbPolyline
 90
        2
 70
     0
 43
0.1
 10
108.5
 20
3.0
 10
108.5
 20
26.5
  0
LWPOLYLINE
  5
15A
330
146C
100
AcDbEntity
  8
20
100
AcDbPolyline
 90
        2
 70
     0
 43
0.05
 10
108.525
 20
26.5
 42
1.0
 10
108.475
 20
26.5
  0
LWPOLYLINE
  5
15E
330
146C
100
AcDbEntity
  8
20
100
AcDbPolyline
 90
        2
 70
     0
 43
0.05
 10
108.475
 20
3.0
 42
1.0
 10
108.525
 20
3.0
  0
LWPOLYLINE
  5
162
330
146C
100
AcDbEntity
  8
20
100
AcDbPolyline
 90
        2
 70
     0
 43
0.1
 10
108.5
 20
26.5
 42
0.4142000000000002
 10
105.5
 20
29.5
  0
LWPOLYLINE
  5
166
330
146C
100
AcDbEntity
  8
20
100
AcDbPolyline
 90
        2
 70
     0
 43
0.05
 10
108.475
 20
26.5
 42
1.0
 10
108.525
 20
26.5
  0
LWPOLYLINE
  5
16A
330
146C
100
AcDbEntity
  8
20
100
AcDbPolyline
 90
        2
 70
     0
 43
0.05
 10
105.5
 20
29.525
 42
1.0
 10
105.5
 20
29.475
  0
LWPOLYLINE
  5
16E
330
146C
100
AcDbEntity
  8
20
100
AcDbPolyline
 90
        2
 70
     0
 43
0.1
 10
105.5
 20
29.5
 10
3.0
 20
29.5
  0
LWPOLYLINE
  5
172
330
146C
100
AcDbEntity
  8
20
100
AcDbPolyline
 90
        2
 70
     0
 43
0.05
 10
3.0
 20
29.525
 42
1.0
 10
3.0
 20
29.475
  0
LWPOLYLINE
  5
176
330
146C
100
AcDbEntity
  8
20
100
AcDbPolyline
 90
        2
 70
     0
 43
0.05
 10
105.5
 20
29.475
 42
1.0
 10
105.5
 20
29.525
  0
LWPOLYLINE
  5
17A
330
146C
100
AcDbEntity
  8
20
100
AcDbPolyline
 90
        2
 70
     0
 43
0.1
 10
3.0
 20
29.5
 42
0.4142000000000002
 10
0.0
 20
26.5
  0
LWPOLYLINE
  5
17E
330
146C
100
AcDbEntity
  8
20
100
AcDbPolyline
 90
        2
 70
     0
 43
0.05
 10
3.0
 20
29.475
 42
1.0
 10
3.0
 20
29.525
  0
LWPOLYLINE
  5
182
330
146C
100
AcDbEntity
  8
20
100
AcDbPolyline
 90
        2
 70
     0
 43
0.05
 10
-0.025
 20
26.5
 42
1.0
 10
0.025
 20
26.5
  0
LWPOLYLINE
  5
186
330
146C
100
AcDbEntity
  8
20
100
AcDbPolyline
 90
        2
 70
     0
 43
0.1
 10
0.0
 20
26.5
 10
0.0
 20
3.0
  0
LWPOLYLINE
  5
18A
330
146C
100
AcDbEntity
  8
20
100
AcDbPolyline
 90
        2
 70
     0
 43
0.05
 10
-0.025
 20
3.0
 42
1.0
 10
0.025
 20
3.0
  0
LWPOLYLINE
  5
18E
330
146C
100
AcDbEntity
  8
20
100
AcDbPolyline
 90
        2
 70
     0
 43
0.05
 10
0.025
 20
26.5
 42
1.0
 10
-0.025
 20
26.5
  0
LWPOLYLINE
  5
192
330
146C
100
AcDbEntity
  8
20
100
AcDbPolyline
 90
        2
 70
     0
 43
0.1
 10
0.0
 20
80.90000000000001
 10
0.0
 20
57.4
  0
LWPOLYLINE
  5
196
330
146C
100
AcDbEntity
  8
20
100
AcDbPolyline
 90
        2
 70
     0
 43
0.05
 10
-0.025
 20
57.4
 42
1.0
 10
0.025
 20
57.4
  0
LWPOLYLINE
  5
19A
330
146C
100
AcDbEntity
  8
20
100
AcDbPolyline
 90
        2
 70
     0
 43
0.05
 10
0.025
 20
80.90000000000001
 42
1.0
 10
-0.025
 20
80.90000000000001
  0
LWPOLYLINE
  5
19E
330
146C
100
AcDbEntity
  8
20
100
AcDbPolyline
 90
        2
 70
     0
 43
0.1
 10
0.0
 20
57.4
 42
0.4142000000000002
 10
3.0
 20
54.4
  0
LWPOLYLINE
  5
1A2
330
146C
100
AcDbEntity
  8
20
100
AcDbPolyline
 90
        2
 70
     0
 43
0.05
 10
0.025
 20
57.4
 42
1.0
 10
-0.025
 20
57.4
  0
LWPOLYLINE
  5
1A6
330
146C
100
AcDbEntity
  8
20
100
AcDbPolyline
 90
        2
 70
     0
 43
0.05
 10
3.0
 20
54.375
 42
1.0
 10
3.0
 20
54.42499999999999
  0
LWPOLYLINE
  5
1AA
330
146C
100
AcDbEntity
  8
20
100
AcDbPolyline
 90
        2
 70
     0
 43
0.1
 10
3.0
 20
54.4
 10
105.5
 20
54.4
  0
LWPOLYLINE
  5
1AE
330
146C
100
AcDbEntity
  8
20
100
AcDbPolyline
 90
        2
 70
     0
 43
0.05
 10
105.5
 20
54.375
 42
1.0
 10
105.5
 20
54.42499999999999
  0
LWPOLYLINE
  5
1B2
330
146C
100
AcDbEntity
  8
20
100
AcDbPolyline
 90
        2
 70
     0
 43
0.05
 10
3.0
 20
54.42499999999999
 42
1.0
 10
3.0
 20
54.375
  0
LWPOLYLINE
  5
1B6
330
146C
100
AcDbEntity
  8
20
100
AcDbPolyline
 90
        2
 70
     0
 43
0.1
 10
105.5
 20
54.4
 42
0.4142000000000002
 10
108.5
 20
57.4
  0
LWPOLYLINE
  5
1BA
330
146C
100
AcDbEntity
  8
20
100
AcDbPolyline
 90
        2
 70
     0
 43
0.05
 10
105.5
 20
54.42499999999999
 42
1.0
 10
105.5
 20
54.375
  0
LWPOLYLINE
  5
1BE
330
146C
100
AcDbEntity
  8
20
100
AcDbPolyline
 90
        2
 70
     0
 43
0.05
 10
108.525
 20
57.4
 42
1.0
 10
108.475
 20
57.4
  0
LWPOLYLINE
  5
1C2
330
146C
100
AcDbEntity
  8
20
100
AcDbPolyline
 90
        2
 70
     0
 43
0.1
 10
108.5
 20
57.4
 10
108.5
 20
80.90000000000001
  0
LWPOLYLINE
  5
1C6
330
146C
100
AcDbEntity
  8
20
100
AcDbPolyline
 90
        2
 70
     0
 43
0.05
 10
108.525
 20
80.90000000000001
 42
1.0
 10
108.475
 20
80.90000000000001
  0
LWPOLYLINE
  5
1CA
330
146C
100
AcDbEntity
  8
20
100
AcDbPolyline
 90
        2
 70
     0
 43
0.05
 10
108.475
 20
57.4
 42
1.0
 10
108.525
 20
57.4
  0
LWPOLYLINE
  5
1CE
330
146C
100
AcDbEntity
  8
20
100
AcDbPolyline
 90
        2
 70
     0
 43
0.1
 10
108.5
 20
80.90000000000001
 42
0.4142000000000002
 10
105.5
 20
83.9
  0
LWPOLYLINE
  5
1D2
330
146C
100
AcDbEntity
  8
20
100
AcDbPolyline
 90
        2
 70
     0
 43
0.05
 10
108.475
 20
80.90000000000001
 42
1.0
 10
108.525
 20
80.90000000000001
  0
LWPOLYLINE
  5
1D6
330
146C
100
AcDbEntity
  8
20
100
AcDbPolyline
 90
        2
 70
     0
 43
0.05
 10
105.5
 20
83.92499999999998
 42
1.0
 10
105.5
 20
83.87500000000001
  0
LWPOLYLINE
  5
1DA
330
146C
100
AcDbEntity
  8
20
100
AcDbPolyline
 90
        2
 70
     0
 43
0.1
 10
105.5
 20
83.9
 10
3.0
 20
83.9
  0
LWPOLYLINE
  5
1DE
330
146C
100
AcDbEntity
  8
20
100
AcDbPolyline
 90
        2
 70
     0
 43
0.05
 10
3.0
 20
83.92499999999998
 42
1.0
 10
3.0
 20
83.87500000000001
  0
LWPOLYLINE
  5
1E2
330
146C
100
AcDbEntity
  8
20
100
AcDbPolyline
 90
        2
 70
     0
 43
0.05
 10
105.5
 20
83.87500000000001
 42
1.0
 10
105.5
 20
83.92499999999998
  0
LWPOLYLINE
  5
1E6
330
146C
100
AcDbEntity
  8
20
100
AcDbPolyline
 90
        2
 70
     0
 43
0.1
 10
3.0
 20
83.9
 42
0.4142000000000002
 10
0.0
 20
80.90000000000001
  0
LWPOLYLINE
  5
1EA
330
146C
100
AcDbEntity
  8
20
100
AcDbPolyline
 90
        2
 70
     0
 43
0.05
 10
3.0
 20
83.87500000000001
 42
1.0
 10
3.0
 20
83.92499999999998
  0
LWPOLYLINE
  5
1EE
330
146C
100
AcDbEntity
  8
20
100
AcDbPolyline
 90
        2
 70
     0
 43
0.05
 10
-0.025
 20
80.90000000000001
 42
1.0
 10
0.025
 20
80.90000000000001
  0
LWPOLYLINE
  5
1F2
330
146C
100
AcDbEntity
  8
20
100
AcDbPolyline
 90
        2
 70
     0
 43
0.1
 10
85.5
 20
13.6
 10
94.59999999999999
 20
13.6
  0
LWPOLYLINE
  5
1F6
330
146C
100
AcDbEntity
  8
20
100
AcDbPolyline
 90
        2
 70
     0
 43
0.05
 10
94.59999999999999
 20
13.575
 42
1.0
 10
94.59999999999999
 20
13.625
  0
LWPOLYLINE
  5
1FA
330
146C
100
AcDbEntity
  8
20
100
AcDbPolyline
 90
        2
 70
     0
 43
0.05
 10
85.5
 20
13.625
 42
1.0
 10
85.5
 20
13.575
  0
LWPOLYLINE
  5
1FE
330
146C
100
AcDbEntity
  8
20
100
AcDbPolyline
 90
        2
 70
     0
 43
0.1
 10
94.59999999999999
 20
13.6
 10
94.59999999999999
 20
8.699999999999997
  0
LWPOLYLINE
  5
202
330
146C
100
AcDbEntity
  8
20
100
AcDbPolyline
 90
        2
 70
     0
 43
0.05
 10
94.57500000000001
 20
8.699999999999997
 42
1.0
 10
94.625
 20
8.699999999999997
  0
LWPOLYLINE
  5
206
330
146C
100
AcDbEntity
  8
20
100
AcDbPolyline
 90
        2
 70
     0
 43
0.05
 10
94.625
 20
13.6
 42
1.0
 10
94.57500000000001
 20
13.6
  0
LWPOLYLINE
  5
20A
330
146C
100
AcDbEntity
  8
20
100
AcDbPolyline
 90
        2
 70
     0
 43
0.1
 10
94.59999999999999
 20
8.699999999999997
 10
85.5
 20
8.699999999999997
  0
LWPOLYLINE
  5
20E
330
146C
100
AcDbEntity
  8
20
100
AcDbPolyline
 90
        2
 70
     0
 43
0.05
 10
85.5
 20
8.724999999999997
 42
1.0
 10
85.5
 20
8.675
  0
LWPOLYLINE
  5
212
330
146C
100
AcDbEntity
  8
20
100
AcDbPolyline
 90
        2
 70
     0
 43
0.05
 10
94.59999999999999
 20
8.675
 42
1.0
 10
94.59999999999999
 20
8.724999999999997
  0
LWPOLYLINE
  5
216
330
146C
100
AcDbEntity
  8
20
100
AcDbPolyline
 90
        2
 70
     0
 43
0.1
 10
85.5
 20
8.699999999999997
 10
85.5
 20
13.6
  0
LWPOLYLINE
  5
21A
330
146C
100
AcDbEntity
  8
20
100
AcDbPolyline
 90
        2
 70
     0
 43
0.05
 10
85.525
 20
13.6
 42
1.0
 10
85.47499999999997
 20
13.6
  0
LWPOLYLINE
  5
21E
330
146C
100
AcDbEntity
  8
20
100
AcDbPolyline
 90
        2
 70
     0
 43
0.05
 10
85.47499999999997
 20
8.699999999999997
 42
1.0
 10
85.525
 20
8.699999999999997
  0
LWPOLYLINE
  5
226
330
146C
100
AcDbEntity
  8
20
100
AcDbPolyline
 90
        2
 70
     0
 43
0.05
 10
68.4924923969292
 20
69.46876911415931
 42
1.0
 10
68.44249239692917
 20
69.46876911415931
  0
LWPOLYLINE
  5
22A
330
146C
100
AcDbEntity
  8
20
100
AcDbPolyline
 90
        2
 70
     0
 43
0.05
 10
68.44249239692917
 20
66.46876911415931
 42
1.0
 10
68.4924923969292
 20
66.46876911415931
  0
LWPOLYLINE
  5
22E
330
146C
100
AcDbEntity
  8
20
100
AcDbPolyline
 90
        2
 70
     0
 43
0.1
 10
51.5
 20
69.46876911415931
 10
51.5
 20
66.46876911415931
  0
LWPOLYLINE
  5
232
330
146C
100
AcDbEntity
  8
20
100
AcDbPolyline
 90
        2
 70
     0
 43
0.05
 10
51.475
 20
66.46876911415931
 42
1.0
 10
51.52499999999999
 20
66.46876911415931
  0
LWPOLYLINE
  5
236
330
146C
100
AcDbEntity
  8
20
100
AcDbPolyline
 90
        2
 70
     0
 43
0.05
 10
51.52499999999999
 20
69.46876911415931
 42
1.0
 10
51.475
 20
69.46876911415931
  0
LWPOLYLINE
  5
23A
330
146C
100
AcDbEntity
  8
20
100
AcDbPolyline
 90
        2
 70
     0
 43
0.1
 10
13.3
 20
63.79999999999999
 10
13.3
 20
68.0
  0
LWPOLYLINE
  5
23E
330
146C
100
AcDbEntity
  8
20
100
AcDbPolyline
 90
        2
 70
     0
 43
0.05
 10
13.325
 20
68.0
 42
1.0
 10
13.275
 20
68.0
  0
LWPOLYLINE
  5
242
330
146C
100
AcDbEntity
  8
20
100
AcDbPolyline
 90
        2
 70
     0
 43
0.05
 10
13.275
 20
63.79999999999999
 42
1.0
 10
13.325
 20
63.79999999999999
  0
LWPOLYLINE
  5
246
330
146C
100
AcDbEntity
  8
20
100
AcDbPolyline
 90
        2
 70
     0
 43
0.1
 10
35.8
 20
68.0
 10
35.8
 20
63.79999999999999
  0
LWPOLYLINE
  5
24A
330
146C
100
AcDbEntity
  8
20
100
AcDbPolyline
 90
        2
 70
     0
 43
0.05
 10
35.775
 20
63.79999999999999
 42
1.0
 10
35.825
 20
63.79999999999999
  0
LWPOLYLINE
  5
24E
330
146C
100
AcDbEntity
  8
20
100
AcDbPolyline
 90
        2
 70
     0
 43
0.05
 10
35.825
 20
68.0
 42
1.0
 10
35.775
 20
68.0
  0
LWPOLYLINE
  5
256
330
146C
100
AcDbEntity
  8
21
100
AcDbPolyline
 90
        2
 70
     0
 43
0.05
 10
67.0
 20
22.975
 42
1.0
 10
67.0
 20
23.025
  0
LWPOLYLINE
  5
25E
330
146C
100
AcDbEntity
  8
21
100
AcDbPolyline
 90
        2
 70
     0
 43
0.1
 10
39.0
 20
23.0
 10
33.0
 20
23.0
  0
LWPOLYLINE
  5
262
330
146C
100
AcDbEntity
  8
21
100
AcDbPolyline
 90
        2
 70
     0
 43
0.05
 10
33.0
 20
23.025
 42
1.0
 10
33.0
 20
22.975
  0
LWPOLYLINE
  5
266
330
146C
100
AcDbEntity
  8
21
100
AcDbPolyline
 90
        2
 70
     0
 43
0.05
 10
39.0
 20
22.975
 42
1.0
 10
39.0
 20
23.025
  0
LWPOLYLINE
  5
26A
330
146C
100
AcDbEntity
  8
20
100
AcDbPolyline
 90
        2
 70
     0
 43
0.1
 10
72.29999999999998
 20
20.1
 10
82.29999999999998
 20
20.1
  0
LWPOLYLINE
  5
26E
330
146C
100
AcDbEntity
  8
20
100
AcDbPolyline
 90
        2
 70
     0
 43
0.05
 10
82.29999999999998
 20
20.075
 42
1.0
 10
82.29999999999998
 20
20.125
  0
LWPOLYLINE
  5
272
330
146C
100
AcDbEntity
  8
20
100
AcDbPolyline
 90
        2
 70
     0
 43
0.05
 10
72.29999999999998
 20
20.125
 42
1.0
 10
72.29999999999998
 20
20.075
  0
LWPOLYLINE
  5
276
330
146C
100
AcDbEntity
  8
20
100
AcDbPolyline
 90
        2
 70
     0
 43
0.1
 10
82.29999999999998
 20
20.1
 10
82.29999999999998
 20
8.699999999999997
  0
LWPOLYLINE
  5
27A
330
146C
100
AcDbEntity
  8
20
100
AcDbPolyline
 90
        2
 70
     0
 43
0.05
 10
82.275
 20
8.699999999999997
 42
1.0
 10
82.32499999999999
 20
8.699999999999997
  0
LWPOLYLINE
  5
27E
330
146C
100
AcDbEntity
  8
20
100
AcDbPolyline
 90
        2
 70
     0
 43
0.05
 10
82.32499999999999
 20
20.1
 42
1.0
 10
82.275
 20
20.1
  0
LWPOLYLINE
  5
282
330
146C
100
AcDbEntity
  8
20
100
AcDbPolyline
 90
        2
 70
     0
 43
0.1
 10
82.29999999999998
 20
8.699999999999997
 10
72.29999999999998
 20
8.699999999999997
  0
LWPOLYLINE
  5
286
330
146C
100
AcDbEntity
  8
20
100
AcDbPolyline
 90
        2
 70
     0
 43
0.05
 10
72.29999999999998
 20
8.724999999999997
 42
1.0
 10
72.29999999999998
 20
8.675
  0
LWPOLYLINE
  5
28A
330
146C
100
AcDbEntity
  8
20
100
AcDbPolyline
 90
        2
 70
     0
 43
0.05
 10
82.29999999999998
 20
8.675
 42
1.0
 10
82.29999999999998
 20
8.724999999999997
  0
LWPOLYLINE
  5
28E
330
146C
100
AcDbEntity
  8
20
100
AcDbPolyline
 90
        2
 70
     0
 43
0.1
 10
72.29999999999998
 20
8.699999999999997
 10
72.29999999999998
 20
20.1
  0
LWPOLYLINE
  5
292
330
146C
100
AcDbEntity
  8
20
100
AcDbPolyline
 90
        2
 70
     0
 43
0.05
 10
72.325
 20
20.1
 42
1.0
 10
72.275
 20
20.1
  0
LWPOLYLINE
  5
296
330
146C
100
AcDbEntity
  8
20
100
AcDbPolyline
 90
        2
 70
     0
 43
0.05
 10
72.275
 20
8.699999999999997
 42
1.0
 10
72.325
 20
8.699999999999997
  0
LWPOLYLINE
  5
29A
330
146C
100
AcDbEntity
  8
20
100
AcDbPolyline
 90
        2
 70
     0
 43
0.1
 10
13.3
 20
68.0
 10
23.5
 20
68.0
  0
LWPOLYLINE
  5
29E
330
146C
100
AcDbEntity
  8
20
100
AcDbPolyline
 90
        2
 70
     0
 43
0.05
 10
23.5
 20
67.97499999999999
 42
1.0
 10
23.5
 20
68.02500000000001
  0
LWPOLYLINE
  5
2A2
330
146C
100
AcDbEntity
  8
20
100
AcDbPolyline
 90
        2
 70
     0
 43
0.05
 10
13.3
 20
68.02500000000001
 42
1.0
 10
13.3
 20
67.97499999999999
  0
LWPOLYLINE
  5
2A6
330
146C
100
AcDbEntity
  8
20
100
AcDbPolyline
 90
        2
 70
     0
 43
0.1
 10
24.5
 20
68.0
 10
35.8
 20
68.0
  0
LWPOLYLINE
  5
2AA
330
146C
100
AcDbEntity
  8
20
100
AcDbPolyline
 90
        2
 70
     0
 43
0.05
 10
35.8
 20
67.97499999999999
 42
1.0
 10
35.8
 20
68.02500000000001
  0
LWPOLYLINE
  5
2AE
330
146C
100
AcDbEntity
  8
20
100
AcDbPolyline
 90
        2
 70
     0
 43
0.05
 10
24.5
 20
68.02500000000001
 42
1.0
 10
24.5
 20
67.97499999999999
  0
LWPOLYLINE
  5
2B2
330
146C
100
AcDbEntity
  8
20
100
AcDbPolyline
 90
        2
 70
     0
 43
0.1
 10
51.5
 20
69.46876911415931
 10
59.7
 20
69.46876911415931
  0
LWPOLYLINE
  5
2B6
330
146C
100
AcDbEntity
  8
20
100
AcDbPolyline
 90
        2
 70
     0
 43
0.05
 10
59.7
 20
69.44376911415929
 42
1.0
 10
59.7
 20
69.49376911415929
  0
LWPOLYLINE
  5
2BA
330
146C
100
AcDbEntity
  8
20
100
AcDbPolyline
 90
        2
 70
     0
 43
0.05
 10
51.5
 20
69.49376911415929
 42
1.0
 10
51.5
 20
69.44376911415929
  0
LWPOLYLINE
  5
2BE
330
146C
100
AcDbEntity
  8
20
100
AcDbPolyline
 90
        2
 70
     0
 43
0.1
 10
60.7
 20
69.46876911415931
 10
69.0
 20
69.46876911415931
  0
LWPOLYLINE
  5
2C2
330
146C
100
AcDbEntity
  8
20
100
AcDbPolyline
 90
        2
 70
     0
 43
0.05
 10
68.46749239692917
 20
69.44376911415929
 42
1.0
 10
68.46749239692917
 20
69.49376911415929
  0
LWPOLYLINE
  5
2C6
330
146C
100
AcDbEntity
  8
20
100
AcDbPolyline
 90
        2
 70
     0
 43
0.05
 10
60.7
 20
69.49376911415929
 42
1.0
 10
60.7
 20
69.44376911415929
  0
LWPOLYLINE
  5
2CA
330
146C
100
AcDbEntity
  8
20
100
AcDbPolyline
 90
        2
 70
     0
 43
0.1257510878543384
 10
91.88131977469538
 20
67.19028746352416
 42
0.9846999999999999
 10
91.75556868684102
 20
59.14221784084649
  0
LWPOLYLINE
  5
2CE
330
146C
100
AcDbEntity
  8
20
100
AcDbPolyline
 90
        2
 70
     0
 43
0.0628755439271692
 10
91.88131977469538
 20
67.15884969156057
 42
1.0
 10
91.88131977469538
 20
67.22172523548772
  0
LWPOLYLINE
  5
2D2
330
146C
100
AcDbEntity
  8
20
100
AcDbPolyline
 90
        2
 70
     0
 43
0.0628755439271692
 10
91.75456267813819
 20
59.11078006888289
 42
1.0
 10
91.75657469554387
 20
59.17365561281007
  0
LWPOLYLINE
  5
2D6
330
146C
100
AcDbEntity
  8
20
100
AcDbPolyline
 90
        2
 70
     0
 43
0.1
 10
13.3
 20
63.79999999999999
 10
23.5
 20
63.79999999999999
  0
LWPOLYLINE
  5
2DA
330
146C
100
AcDbEntity
  8
20
100
AcDbPolyline
 90
        2
 70
     0
 43
0.05
 10
23.5
 20
63.775
 42
1.0
 10
23.5
 20
63.825
  0
LWPOLYLINE
  5
2DE
330
146C
100
AcDbEntity
  8
20
100
AcDbPolyline
 90
        2
 70
     0
 43
0.05
 10
13.3
 20
63.825
 42
1.0
 10
13.3
 20
63.775
  0
LWPOLYLINE
  5
2E2
330
146C
100
AcDbEntity
  8
20
100
AcDbPolyline
 90
        2
 70
     0
 43
0.1
 10
24.5
 20
63.79999999999999
 10
35.8
 20
63.79999999999999
  0
LWPOLYLINE
  5
2E6
330
146C
100
AcDbEntity
  8
20
100
AcDbPolyline
 90
        2
 70
     0
 43
0.05
 10
35.8
 20
63.775
 42
1.0
 10
35.8
 20
63.825
  0
LWPOLYLINE
  5
2EA
330
146C
100
AcDbEntity
  8
20
100
AcDbPolyline
 90
        2
 70
     0
 43
0.05
 10
24.5
 20
63.825
 42
1.0
 10
24.5
 20
63.775
  0
LWPOLYLINE
  5
2EE
330
146C
100
AcDbEntity
  8
20
100
AcDbPolyline
 90
        2
 70
     0
 43
0.1
 10
51.5
 20
66.46876911415931
 10
59.7
 20
66.46876911415931
  0
LWPOLYLINE
  5
2F2
330
146C
100
AcDbEntity
  8
20
100
AcDbPolyline
 90
        2
 70
     0
 43
0.05
 10
59.7
 20
66.44376911415929
 42
1.0
 10
59.7
 20
66.49376911415929
  0
LWPOLYLINE
  5
2F6
330
146C
100
AcDbEntity
  8
20
100
AcDbPolyline
 90
        2
 70
     0
 43
0.05
 10
51.5
 20
66.49376911415929
 42
1.0
 10
51.5
 20
66.44376911415929
  0
LWPOLYLINE
  5
2FA
330
146C
100
AcDbEntity
  8
20
100
AcDbPolyline
 90
        2
 70
     0
 43
0.1
 10
60.7
 20
66.46876911415931
 10
69.0
 20
66.46876911415931
  0
LWPOLYLINE
  5
2FE
330
146C
100
AcDbEntity
  8
20
100
AcDbPolyline
 90
        2
 70
     0
 43
0.05
 10
68.46749239692917
 20
66.44376911415929
 42
1.0
 10
68.46749239692917
 20
66.49376911415929
  0
LWPOLYLINE
  5
302
330
146C
100
AcDbEntity
  8
20
100
AcDbPolyline
 90
        2
 70
     0
 43
0.05
 10
60.7
 20
66.49376911415929
 42
1.0
 10
60.7
 20
66.44376911415929
  0
LWPOLYLINE
  5
306
330
146C
100
AcDbEntity
  8
20
100
AcDbPolyline
 90
        2
 70
     0
 43
0.1257510878543384
 10
92.76157738967574
 20
59.14221784084649
 42
0.8144999999999999
 10
93.01307956538442
 20
67.06453637566983
  0
LWPOLYLINE
  5
30A
330
146C
100
AcDbEntity
  8
20
100
AcDbPolyline
 90
        2
 70
     0
 43
0.0628755439271692
 10
92.75617009289799
 20
59.17315260845867
 42
1.0
 10
92.76698468645347
 20
59.1112830732343
  0
LWPOLYLINE
  5
30E
330
146C
100
AcDbEntity
  8
20
100
AcDbPolyline
 90
        2
 70
     0
 43
0.0628755439271692
 10
93.02037312847996
 20
67.09509389001842
 42
1.0
 10
93.00578600228886
 20
67.03397886132122
  0
TEXT
  5
312
330
146C
100
AcDbEntity
  8
21
100
AcDbText
 10
75.4
 20
4.4
 30
0.0
 40
2.5
  1
C.A 
100
AcDbText
  0
TEXT
  5
313
330
146C
100
AcDbEntity
  8
21
100
AcDbText
 10
59.8
 20
4.5
 30
0.0
 40
2.5
  1
CT1
100
AcDbText
  0
TEXT
  5
314
330
146C
100
AcDbEntity
  8
21
100
AcDbText
 10
46.39999999999999
 20
4.4
 30
0.0
 40
2.5
  1
CT2
100
AcDbText
  0
TEXT
  5
315
330
146C
100
AcDbEntity
  8
21
100
AcDbText
 10
33.6
 20
4.4
 30
0.0
 40
2.5
  1
CT3
100
AcDbText
  0
TEXT
  5
316
330
146C
100
AcDbEntity
  8
21
100
AcDbText
 10
15.4
 20
4.299999999999998
 30
0.0
 40
2.5
  1
CT4
100
AcDbText
  0
TEXT
  5
317
330
146C
100
AcDbEntity
  8
21
100
AcDbText
 10
76.0
 20
22.0
 30
0.0
 40
2.5
  1
9V
100
AcDbText
  0
LWPOLYLINE
  5
318
330
146C
100
AcDbEntity
  8
21
100
AcDbPolyline
 90
        2
 70
     0
 43
0.2286
 10
12.4143
 20
71.9631
 10
13.1387
 20
72.6876
  0
LWPOLYLINE
  5
31C
330
146C
100
AcDbEntity
  8
21
100
AcDbPolyline
 90
        2
 70
     0
 43
0.1143
 10
13.1791
 20
72.64709999999998
 42
1.0
 10
13.0983
 20
72.72799999999998
  0
LWPOLYLINE
  5
320
330
146C
100
AcDbEntity
  8
21
100
AcDbPolyline
 90
        2
 70
     0
 43
0.1143
 10
12.3739
 20
72.0035
 42
1.0
 10
12.4547
 20
71.9227
  0
LWPOLYLINE
  5
324
330
146C
100
AcDbEntity
  8
21
100
AcDbPolyline
 90
        2
 70
     0
 43
0.2286
 10
13.1387
 20
72.6876
 10
13.1387
 20
70.5143
  0
LWPOLYLINE
  5
328
330
146C
100
AcDbEntity
  8
21
100
AcDbPolyline
 90
        2
 70
     0
 43
0.1143
 10
13.0816
 20
70.5143
 42
1.0
 10
13.1959
 20
70.5143
  0
LWPOLYLINE
  5
32C
330
146C
100
AcDbEntity
  8
21
100
AcDbPolyline
 90
        2
 70
     0
 43
0.1143
 10
13.1959
 20
72.6876
 42
1.0
 10
13.0816
 20
72.6876
  0
LWPOLYLINE
  5
330
330
146C
100
AcDbEntity
  8
21
100
AcDbPolyline
 90
        2
 70
     0
 43
0.2286
 10
12.4143
 20
70.5143
 10
13.8631
 20
70.5143
  0
LWPOLYLINE
  5
334
330
146C
100
AcDbEntity
  8
21
100
AcDbPolyline
 90
        2
 70
     0
 43
0.1143
 10
13.8631
 20
70.4572
 42
1.0
 10
13.8631
 20
70.5714
  0
LWPOLYLINE
  5
338
330
146C
100
AcDbEntity
  8
21
100
AcDbPolyline
 90
        2
 70
     0
 43
0.1143
 10
12.4143
 20
70.5714
 42
1.0
 10
12.4143
 20
70.4572
  0
LWPOLYLINE
  5
33C
330
146C
100
AcDbEntity
  8
21
100
AcDbPolyline
 90
        2
 70
     0
 43
0.2286
 10
18.2829
 20
70.5143
 10
16.8341
 20
70.5143
  0
LWPOLYLINE
  5
340
330
146C
100
AcDbEntity
  8
21
100
AcDbPolyline
 90
        2
 70
     0
 43
0.1143
 10
16.8341
 20
70.5714
 42
1.0
 10
16.8341
 20
70.4572
  0
LWPOLYLINE
  5
344
330
146C
100
AcDbEntity
  8
21
100
AcDbPolyline
 90
        2
 70
     0
 43
0.1143
 10
18.2829
 20
70.4572
 42
1.0
 10
18.2829
 20
70.5714
  0
LWPOLYLINE
  5
348
330
146C
100
AcDbEntity
  8
21
100
AcDbPolyline
 90
        2
 70
     0
 43
0.2286
 10
16.8341
 20
70.5143
 10
18.2829
 20
71.9631
  0
LWPOLYLINE
  5
34C
330
146C
100
AcDbEntity
  8
21
100
AcDbPolyline
 90
        2
 70
     0
 43
0.1143
 10
18.3233
 20
71.9227
 42
1.0
 10
18.2425
 20
72.0035
  0
LWPOLYLINE
  5
350
330
146C
100
AcDbEntity
  8
21
100
AcDbPolyline
 90
        2
 70
     0
 43
0.1143
 10
16.7937
 20
70.55469999999999
 42
1.0
 10
16.8745
 20
70.4739
  0
LWPOLYLINE
  5
354
330
146C
100
AcDbEntity
  8
21
100
AcDbPolyline
 90
        2
 70
     0
 43
0.2286
 10
18.2829
 20
71.9631
 10
18.2829
 20
72.3253
  0
LWPOLYLINE
  5
358
330
146C
100
AcDbEntity
  8
21
100
AcDbPolyline
 90
        2
 70
     0
 43
0.1143
 10
18.3401
 20
72.3253
 42
1.0
 10
18.2258
 20
72.3253
  0
LWPOLYLINE
  5
35C
330
146C
100
AcDbEntity
  8
21
100
AcDbPolyline
 90
        2
 70
     0
 43
0.1143
 10
18.2258
 20
71.9631
 42
1.0
 10
18.3401
 20
71.9631
  0
LWPOLYLINE
  5
360
330
146C
100
AcDbEntity
  8
21
100
AcDbPolyline
 90
        2
 70
     0
 43
0.2286
 10
18.2829
 20
72.3253
 10
17.9207
 20
72.6876
  0
LWPOLYLINE
  5
364
330
146C
100
AcDbEntity
  8
21
100
AcDbPolyline
 90
        2
 70
     0
 43
0.1143
 10
17.9611
 20
72.72799999999998
 42
1.0
 10
17.8803
 20
72.64709999999998
  0
LWPOLYLINE
  5
368
330
146C
100
AcDbEntity
  8
21
100
AcDbPolyline
 90
        2
 70
     0
 43
0.1143
 10
18.2425
 20
72.28489999999999
 42
1.0
 10
18.3233
 20
72.36579999999998
  0
LWPOLYLINE
  5
36C
330
146C
100
AcDbEntity
  8
21
100
AcDbPolyline
 90
        2
 70
     0
 43
0.2286
 10
17.9207
 20
72.6876
 10
17.1963
 20
72.6876
  0
LWPOLYLINE
  5
370
330
146C
100
AcDbEntity
  8
21
100
AcDbPolyline
 90
        2
 70
     0
 43
0.1143
 10
17.1963
 20
72.74469999999998
 42
1.0
 10
17.1963
 20
72.63039999999998
  0
LWPOLYLINE
  5
374
330
146C
100
AcDbEntity
  8
21
100
AcDbPolyline
 90
        2
 70
     0
 43
0.1143
 10
17.9207
 20
72.63039999999998
 42
1.0
 10
17.9207
 20
72.74469999999998
  0
LWPOLYLINE
  5
378
330
146C
100
AcDbEntity
  8
21
100
AcDbPolyline
 90
        2
 70
     0
 43
0.2286
 10
17.1963
 20
72.6876
 10
16.8341
 20
72.3253
  0
LWPOLYLINE
  5
37C
330
146C
100
AcDbEntity
  8
21
100
AcDbPolyline
 90
        2
 70
     0
 43
0.1143
 10
16.7937
 20
72.36579999999998
 42
1.0
 10
16.8745
 20
72.28489999999999
  0
LWPOLYLINE
  5
380
330
146C
100
AcDbEntity
  8
21
100
AcDbPolyline
 90
        2
 70
     0
 43
0.1143
 10
17.2367
 20
72.64709999999998
 42
1.0
 10
17.1559
 20
72.72799999999998
  0
LWPOLYLINE
  5
384
330
146C
100
AcDbEntity
  8
21
100
AcDbPolyline
 90
        2
 70
     0
 43
0.2286
 10
21.2538
 20
72.3253
 10
21.6161
 20
72.6876
  0
LWPOLYLINE
  5
388
330
146C
100
AcDbEntity
  8
21
100
AcDbPolyline
 90
        2
 70
     0
 43
0.1143
 10
21.6565
 20
72.64709999999998
 42
1.0
 10
21.5756
 20
72.72799999999998
  0
LWPOLYLINE
  5
38C
330
146C
100
AcDbEntity
  8
21
100
AcDbPolyline
 90
        2
 70
     0
 43
0.1143
 10
21.2134
 20
72.36579999999998
 42
1.0
 10
21.2943
 20
72.28489999999999
  0
LWPOLYLINE
  5
390
330
146C
100
AcDbEntity
  8
21
100
AcDbPolyline
 90
        2
 70
     0
 43
0.2286
 10
21.6161
 20
72.6876
 10
22.3405
 20
72.6876
  0
LWPOLYLINE
  5
394
330
146C
100
AcDbEntity
  8
21
100
AcDbPolyline
 90
        2
 70
     0
 43
0.1143
 10
22.3405
 20
72.63039999999998
 42
1.0
 10
22.3405
 20
72.74469999999998
  0
LWPOLYLINE
  5
398
330
146C
100
AcDbEntity
  8
21
100
AcDbPolyline
 90
        2
 70
     0
 43
0.1143
 10
21.6161
 20
72.74469999999998
 42
1.0
 10
21.6161
 20
72.63039999999998
  0
LWPOLYLINE
  5
39C
330
146C
100
AcDbEntity
  8
21
100
AcDbPolyline
 90
        2
 70
     0
 43
0.2286
 10
22.3405
 20
72.6876
 10
22.7027
 20
72.3253
  0
LWPOLYLINE
  5
3A0
330
146C
100
AcDbEntity
  8
21
100
AcDbPolyline
 90
        2
 70
     0
 43
0.1143
 10
22.6623
 20
72.28489999999999
 42
1.0
 10
22.7431
 20
72.36579999999998
  0
LWPOLYLINE
  5
3A4
330
146C
100
AcDbEntity
  8
21
100
AcDbPolyline
 90
        2
 70
     0
 43
0.1143
 10
22.3809
 20
72.72799999999998
 42
1.0
 10
22.3001
 20
72.64709999999998
  0
LWPOLYLINE
  5
3A8
330
146C
100
AcDbEntity
  8
21
100
AcDbPolyline
 90
        2
 70
     0
 43
0.2286
 10
22.7027
 20
72.3253
 10
22.7027
 20
71.9631
  0
LWPOLYLINE
  5
3AC
330
146C
100
AcDbEntity
  8
21
100
AcDbPolyline
 90
        2
 70
     0
 43
0.1143
 10
22.6455
 20
71.9631
 42
1.0
 10
22.7598
 20
71.9631
  0
LWPOLYLINE
  5
3B0
330
146C
100
AcDbEntity
  8
21
100
AcDbPolyline
 90
        2
 70
     0
 43
0.1143
 10
22.7598
 20
72.3253
 42
1.0
 10
22.6455
 20
72.3253
  0
LWPOLYLINE
  5
3B4
330
146C
100
AcDbEntity
  8
21
100
AcDbPolyline
 90
        2
 70
     0
 43
0.2286
 10
22.7027
 20
71.9631
 10
22.3405
 20
71.6009
  0
LWPOLYLINE
  5
3B8
330
146C
100
AcDbEntity
  8
21
100
AcDbPolyline
 90
        2
 70
     0
 43
0.1143
 10
22.3001
 20
71.6413
 42
1.0
 10
22.3809
 20
71.5605
  0
LWPOLYLINE
  5
3BC
330
146C
100
AcDbEntity
  8
21
100
AcDbPolyline
 90
        2
 70
     0
 43
0.1143
 10
22.7431
 20
71.9227
 42
1.0
 10
22.6623
 20
72.0035
  0
LWPOLYLINE
  5
3C0
330
146C
100
AcDbEntity
  8
21
100
AcDbPolyline
 90
        2
 70
     0
 43
0.2286
 10
22.3405
 20
71.6009
 10
21.9783
 20
71.6009
  0
LWPOLYLINE
  5
3C4
330
146C
100
AcDbEntity
  8
21
100
AcDbPolyline
 90
        2
 70
     0
 43
0.1143
 10
21.9783
 20
71.6581
 42
1.0
 10
21.9783
 20
71.5438
  0
LWPOLYLINE
  5
3C8
330
146C
100
AcDbEntity
  8
21
100
AcDbPolyline
 90
        2
 70
     0
 43
0.1143
 10
22.3405
 20
71.5438
 42
1.0
 10
22.3405
 20
71.6581
  0
LWPOLYLINE
  5
3CC
330
146C
100
AcDbEntity
  8
21
100
AcDbPolyline
 90
        2
 70
     0
 43
0.2286
 10
22.3405
 20
71.6009
 10
22.7027
 20
71.2387
  0
LWPOLYLINE
  5
3D0
330
146C
100
AcDbEntity
  8
21
100
AcDbPolyline
 90
        2
 70
     0
 43
0.1143
 10
22.6623
 20
71.1983
 42
1.0
 10
22.7431
 20
71.27909999999999
  0
LWPOLYLINE
  5
3D4
330
146C
100
AcDbEntity
  8
21
100
AcDbPolyline
 90
        2
 70
     0
 43
0.1143
 10
22.3809
 20
71.6413
 42
1.0
 10
22.3001
 20
71.5605
  0
LWPOLYLINE
  5
3D8
330
146C
100
AcDbEntity
  8
21
100
AcDbPolyline
 90
        2
 70
     0
 43
0.2286
 10
22.7027
 20
71.2387
 10
22.7027
 20
70.87649999999998
  0
LWPOLYLINE
  5
3DC
330
146C
100
AcDbEntity
  8
21
100
AcDbPolyline
 90
        2
 70
     0
 43
0.1143
 10
22.6455
 20
70.87649999999998
 42
1.0
 10
22.7598
 20
70.87649999999998
  0
LWPOLYLINE
  5
3E0
330
146C
100
AcDbEntity
  8
21
100
AcDbPolyline
 90
        2
 70
     0
 43
0.1143
 10
22.7598
 20
71.2387
 42
1.0
 10
22.6455
 20
71.2387
  0
LWPOLYLINE
  5
3E4
330
146C
100
AcDbEntity
  8
21
100
AcDbPolyline
 90
        2
 70
     0
 43
0.2286
 10
22.7027
 20
70.87649999999998
 10
22.3405
 20
70.5143
  0
LWPOLYLINE
  5
3E8
330
146C
100
AcDbEntity
  8
21
100
AcDbPolyline
 90
        2
 70
     0
 43
0.1143
 10
22.3001
 20
70.55469999999999
 42
1.0
 10
22.3809
 20
70.4739
  0
LWPOLYLINE
  5
3EC
330
146C
100
AcDbEntity
  8
21
100
AcDbPolyline
 90
        2
 70
     0
 43
0.1143
 10
22.7431
 20
70.8361
 42
1.0
 10
22.6623
 20
70.91689999999998
  0
LWPOLYLINE
  5
3F0
330
146C
100
AcDbEntity
  8
21
100
AcDbPolyline
 90
        2
 70
     0
 43
0.2286
 10
22.3405
 20
70.5143
 10
21.6161
 20
70.5143
  0
LWPOLYLINE
  5
3F4
330
146C
100
AcDbEntity
  8
21
100
AcDbPolyline
 90
        2
 70
     0
 43
0.1143
 10
21.6161
 20
70.5714
 42
1.0
 10
21.6161
 20
70.4572
  0
LWPOLYLINE
  5
3F8
330
146C
100
AcDbEntity
  8
21
100
AcDbPolyline
 90
        2
 70
     0
 43
0.1143
 10
22.3405
 20
70.4572
 42
1.0
 10
22.3405
 20
70.5714
  0
LWPOLYLINE
  5
3FC
330
146C
100
AcDbEntity
  8
21
100
AcDbPolyline
 90
        2
 70
     0
 43
0.2286
 10
21.6161
 20
70.5143
 10
21.2538
 20
70.87649999999998
  0
LWPOLYLINE
  5
400
330
146C
100
AcDbEntity
  8
21
100
AcDbPolyline
 90
        2
 70
     0
 43
0.1143
 10
21.2943
 20
70.91689999999998
 42
1.0
 10
21.2134
 20
70.8361
  0
LWPOLYLINE
  5
404
330
146C
100
AcDbEntity
  8
21
100
AcDbPolyline
 90
        2
 70
     0
 43
0.1143
 10
21.5756
 20
70.4739
 42
1.0
 10
21.6565
 20
70.55469999999999
  0
LWPOLYLINE
  5
408
330
146C
100
AcDbEntity
  8
21
100
AcDbPolyline
 90
        2
 70
     0
 43
0.2286
 10
26.7603
 20
70.5143
 10
26.7603
 20
72.6876
  0
LWPOLYLINE
  5
40C
330
146C
100
AcDbEntity
  8
21
100
AcDbPolyline
 90
        2
 70
     0
 43
0.1143
 10
26.8174
 20
72.6876
 42
1.0
 10
26.7031
 20
72.6876
  0
LWPOLYLINE
  5
410
330
146C
100
AcDbEntity
  8
21
100
AcDbPolyline
 90
        2
 70
     0
 43
0.1143
 10
26.7031
 20
70.5143
 42
1.0
 10
26.8174
 20
70.5143
  0
LWPOLYLINE
  5
414
330
146C
100
AcDbEntity
  8
21
100
AcDbPolyline
 90
        2
 70
     0
 43
0.2286
 10
26.7603
 20
72.6876
 10
25.6736
 20
71.6009
  0
LWPOLYLINE
  5
418
330
146C
100
AcDbEntity
  8
21
100
AcDbPolyline
 90
        2
 70
     0
 43
0.1143
 10
25.6332
 20
71.6413
 42
1.0
 10
25.714
 20
71.5605
  0
LWPOLYLINE
  5
41C
330
146C
100
AcDbEntity
  8
21
100
AcDbPolyline
 90
        2
 70
     0
 43
0.1143
 10
26.8007
 20
72.64709999999998
 42
1.0
 10
26.7198
 20
72.72799999999998
  0
LWPOLYLINE
  5
420
330
146C
100
AcDbEntity
  8
21
100
AcDbPolyline
 90
        2
 70
     0
 43
0.2286
 10
25.6736
 20
71.6009
 10
27.1225
 20
71.6009
  0
LWPOLYLINE
  5
424
330
146C
100
AcDbEntity
  8
21
100
AcDbPolyline
 90
        2
 70
     0
 43
0.1143
 10
27.1225
 20
71.5438
 42
1.0
 10
27.1225
 20
71.6581
  0
LWPOLYLINE
  5
428
330
146C
100
AcDbEntity
  8
21
100
AcDbPolyline
 90
        2
 70
     0
 43
0.1143
 10
25.6736
 20
71.6581
 42
1.0
 10
25.6736
 20
71.5438
  0
LWPOLYLINE
  5
42C
330
146C
100
AcDbEntity
  8
21
100
AcDbPolyline
 90
        2
 70
     0
 43
0.2286
 10
31.5422
 20
72.6876
 10
30.0934
 20
72.6876
  0
LWPOLYLINE
  5
430
330
146C
100
AcDbEntity
  8
21
100
AcDbPolyline
 90
        2
 70
     0
 43
0.1143
 10
30.0934
 20
72.74469999999998
 42
1.0
 10
30.0934
 20
72.63039999999998
  0
LWPOLYLINE
  5
434
330
146C
100
AcDbEntity
  8
21
100
AcDbPolyline
 90
        2
 70
     0
 43
0.1143
 10
31.5422
 20
72.63039999999998
 42
1.0
 10
31.5422
 20
72.74469999999998
  0
LWPOLYLINE
  5
438
330
146C
100
AcDbEntity
  8
21
100
AcDbPolyline
 90
        2
 70
     0
 43
0.2286
 10
30.0934
 20
72.6876
 10
30.0934
 20
71.6009
  0
LWPOLYLINE
  5
43C
330
146C
100
AcDbEntity
  8
21
100
AcDbPolyline
 90
        2
 70
     0
 43
0.1143
 10
30.0363
 20
71.6009
 42
1.0
 10
30.1506
 20
71.6009
  0
LWPOLYLINE
  5
440
330
146C
100
AcDbEntity
  8
21
100
AcDbPolyline
 90
        2
 70
     0
 43
0.1143
 10
30.1506
 20
72.6876
 42
1.0
 10
30.0363
 20
72.6876
  0
LWPOLYLINE
  5
444
330
146C
100
AcDbEntity
  8
21
100
AcDbPolyline
 90
        2
 70
     0
 43
0.2286
 10
30.0934
 20
71.6009
 10
30.8178
 20
71.9631
  0
LWPOLYLINE
  5
448
330
146C
100
AcDbEntity
  8
21
100
AcDbPolyline
 90
        2
 70
     0
 43
0.1143
 10
30.8434
 20
71.91200000000001
 42
1.0
 10
30.7923
 20
72.01430000000001
  0
LWPOLYLINE
  5
44C
330
146C
100
AcDbEntity
  8
21
100
AcDbPolyline
 90
        2
 70
     0
 43
0.1143
 10
30.0678
 20
71.652
 42
1.0
 10
30.119
 20
71.54980000000001
  0
LWPOLYLINE
  5
450
330
146C
100
AcDbEntity
  8
21
100
AcDbPolyline
 90
        2
 70
     0
 43
0.2286
 10
30.8178
 20
71.9631
 10
31.18
 20
71.9631
  0
LWPOLYLINE
  5
454
330
146C
100
AcDbEntity
  8
21
100
AcDbPolyline
 90
        2
 70
     0
 43
0.1143
 10
31.18
 20
71.906
 42
1.0
 10
31.18
 20
72.02030000000002
  0
LWPOLYLINE
  5
458
330
146C
100
AcDbEntity
  8
21
100
AcDbPolyline
 90
        2
 70
     0
 43
0.1143
 10
30.8178
 20
72.02030000000002
 42
1.0
 10
30.8178
 20
71.906
  0
LWPOLYLINE
  5
45C
330
146C
100
AcDbEntity
  8
21
100
AcDbPolyline
 90
        2
 70
     0
 43
0.2286
 10
31.18
 20
71.9631
 10
31.5422
 20
71.6009
  0
LWPOLYLINE
  5
460
330
146C
100
AcDbEntity
  8
21
100
AcDbPolyline
 90
        2
 70
     0
 43
0.1143
 10
31.5018
 20
71.5605
 42
1.0
 10
31.5826
 20
71.6413
  0
LWPOLYLINE
  5
464
330
146C
100
AcDbEntity
  8
21
100
AcDbPolyline
 90
        2
 70
     0
 43
0.1143
 10
31.2204
 20
72.0035
 42
1.0
 10
31.1396
 20
71.9227
  0
LWPOLYLINE
  5
468
330
146C
100
AcDbEntity
  8
21
100
AcDbPolyline
 90
        2
 70
     0
 43
0.2286
 10
31.5422
 20
71.6009
 10
31.5422
 20
70.87649999999998
  0
LWPOLYLINE
  5
46C
330
146C
100
AcDbEntity
  8
21
100
AcDbPolyline
 90
        2
 70
     0
 43
0.1143
 10
31.4851
 20
70.87649999999998
 42
1.0
 10
31.5994
 20
70.87649999999998
  0
LWPOLYLINE
  5
470
330
146C
100
AcDbEntity
  8
21
100
AcDbPolyline
 90
        2
 70
     0
 43
0.1143
 10
31.5994
 20
71.6009
 42
1.0
 10
31.4851
 20
71.6009
  0
LWPOLYLINE
  5
474
330
146C
100
AcDbEntity
  8
21
100
AcDbPolyline
 90
        2
 70
     0
 43
0.2286
 10
31.5422
 20
70.87649999999998
 10
31.18
 20
70.5143
  0
LWPOLYLINE
  5
478
330
146C
100
AcDbEntity
  8
21
100
AcDbPolyline
 90
        2
 70
     0
 43
0.1143
 10
31.1396
 20
70.55469999999999
 42
1.0
 10
31.2204
 20
70.4739
  0
LWPOLYLINE
  5
47C
330
146C
100
AcDbEntity
  8
21
100
AcDbPolyline
 90
        2
 70
     0
 43
0.1143
 10
31.5826
 20
70.8361
 42
1.0
 10
31.5018
 20
70.91689999999998
  0
LWPOLYLINE
  5
480
330
146C
100
AcDbEntity
  8
21
100
AcDbPolyline
 90
        2
 70
     0
 43
0.2286
 10
31.18
 20
70.5143
 10
30.4556
 20
70.5143
  0
LWPOLYLINE
  5
484
330
146C
100
AcDbEntity
  8
21
100
AcDbPolyline
 90
        2
 70
     0
 43
0.1143
 10
30.4556
 20
70.5714
 42
1.0
 10
30.4556
 20
70.4572
  0
LWPOLYLINE
  5
488
330
146C
100
AcDbEntity
  8
21
100
AcDbPolyline
 90
        2
 70
     0
 43
0.1143
 10
31.18
 20
70.4572
 42
1.0
 10
31.18
 20
70.5714
  0
LWPOLYLINE
  5
48C
330
146C
100
AcDbEntity
  8
21
100
AcDbPolyline
 90
        2
 70
     0
 43
0.2286
 10
30.4556
 20
70.5143
 10
30.0934
 20
70.87649999999998
  0
LWPOLYLINE
  5
490
330
146C
100
AcDbEntity
  8
21
100
AcDbPolyline
 90
        2
 70
     0
 43
0.1143
 10
30.1338
 20
70.91689999999998
 42
1.0
 10
30.053
 20
70.8361
  0
LWPOLYLINE
  5
494
330
146C
100
AcDbEntity
  8
21
100
AcDbPolyline
 90
        2
 70
     0
 43
0.1143
 10
30.4152
 20
70.4739
 42
1.0
 10
30.496
 20
70.55469999999999
  0
LWPOLYLINE
  5
498
330
146C
100
AcDbEntity
  8
21
100
AcDbPolyline
 90
        2
 70
     0
 43
0.2286
 10
35.962
 20
72.6876
 10
35.2376
 20
72.3253
  0
LWPOLYLINE
  5
49C
330
146C
100
AcDbEntity
  8
21
100
AcDbPolyline
 90
        2
 70
     0
 43
0.1143
 10
35.212
 20
72.37649999999998
 42
1.0
 10
35.2632
 20
72.27419999999999
  0
LWPOLYLINE
  5
4A0
330
146C
100
AcDbEntity
  8
21
100
AcDbPolyline
 90
        2
 70
     0
 43
0.1143
 10
35.9876
 20
72.63639999999998
 42
1.0
 10
35.9365
 20
72.73869999999998
  0
LWPOLYLINE
  5
4A4
330
146C
100
AcDbEntity
  8
21
100
AcDbPolyline
 90
        2
 70
     0
 43
0.2286
 10
35.2376
 20
72.3253
 10
34.5132
 20
71.6009
  0
LWPOLYLINE
  5
4A8
330
146C
100
AcDbEntity
  8
21
100
AcDbPolyline
 90
        2
 70
     0
 43
0.1143
 10
34.4728
 20
71.6413
 42
1.0
 10
34.55360000000001
 20
71.5605
  0
LWPOLYLINE
  5
4AC
330
146C
100
AcDbEntity
  8
21
100
AcDbPolyline
 90
        2
 70
     0
 43
0.1143
 10
35.278
 20
72.28489999999999
 42
1.0
 10
35.1972
 20
72.36579999999998
  0
LWPOLYLINE
  5
4B0
330
146C
100
AcDbEntity
  8
21
100
AcDbPolyline
 90
        2
 70
     0
 43
0.2286
 10
34.5132
 20
71.6009
 10
34.5132
 20
70.87649999999998
  0
LWPOLYLINE
  5
4B4
330
146C
100
AcDbEntity
  8
21
100
AcDbPolyline
 90
        2
 70
     0
 43
0.1143
 10
34.45600000000001
 20
70.87649999999998
 42
1.0
 10
34.5703
 20
70.87649999999998
  0
LWPOLYLINE
  5
4B8
330
146C
100
AcDbEntity
  8
21
100
AcDbPolyline
 90
        2
 70
     0
 43
0.1143
 10
34.5703
 20
71.6009
 42
1.0
 10
34.45600000000001
 20
71.6009
  0
LWPOLYLINE
  5
4BC
330
146C
100
AcDbEntity
  8
21
100
AcDbPolyline
 90
        2
 70
     0
 43
0.2286
 10
34.5132
 20
70.87649999999998
 10
34.8754
 20
70.5143
  0
LWPOLYLINE
  5
4C0
330
146C
100
AcDbEntity
  8
21
100
AcDbPolyline
 90
        2
 70
     0
 43
0.1143
 10
34.835
 20
70.4739
 42
1.0
 10
34.9158
 20
70.55469999999999
  0
LWPOLYLINE
  5
4C4
330
146C
100
AcDbEntity
  8
21
100
AcDbPolyline
 90
        2
 70
     0
 43
0.1143
 10
34.55360000000001
 20
70.91689999999998
 42
1.0
 10
34.4728
 20
70.8361
  0
LWPOLYLINE
  5
4C8
330
146C
100
AcDbEntity
  8
21
100
AcDbPolyline
 90
        2
 70
     0
 43
0.2286
 10
34.8754
 20
70.5143
 10
35.5998
 20
70.5143
  0
LWPOLYLINE
  5
4CC
330
146C
100
AcDbEntity
  8
21
100
AcDbPolyline
 90
        2
 70
     0
 43
0.1143
 10
35.5998
 20
70.4572
 42
1.0
 10
35.5998
 20
70.5714
  0
LWPOLYLINE
  5
4D0
330
146C
100
AcDbEntity
  8
21
100
AcDbPolyline
 90
        2
 70
     0
 43
0.1143
 10
34.8754
 20
70.5714
 42
1.0
 10
34.8754
 20
70.4572
  0
LWPOLYLINE
  5
4D4
330
146C
100
AcDbEntity
  8
21
100
AcDbPolyline
 90
        2
 70
     0
 43
0.2286
 10
35.5998
 20
70.5143
 10
35.962
 20
70.87649999999998
  0
LWPOLYLINE
  5
4D8
330
146C
100
AcDbEntity
  8
21
100
AcDbPolyline
 90
        2
 70
     0
 43
0.1143
 10
36.0024
 20
70.8361
 42
1.0
 10
35.9216
 20
70.91689999999998
  0
LWPOLYLINE
  5
4DC
330
146C
100
AcDbEntity
  8
21
100
AcDbPolyline
 90
        2
 70
     0
 43
0.1143
 10
35.5594
 20
70.55469999999999
 42
1.0
 10
35.6402
 20
70.4739
  0
LWPOLYLINE
  5
4E0
330
146C
100
AcDbEntity
  8
21
100
AcDbPolyline
 90
        2
 70
     0
 43
0.2286
 10
35.962
 20
70.87649999999998
 10
35.962
 20
71.2387
  0
LWPOLYLINE
  5
4E4
330
146C
100
AcDbEntity
  8
21
100
AcDbPolyline
 90
        2
 70
     0
 43
0.1143
 10
36.0192
 20
71.2387
 42
1.0
 10
35.9049
 20
71.2387
  0
LWPOLYLINE
  5
4E8
330
146C
100
AcDbEntity
  8
21
100
AcDbPolyline
 90
        2
 70
     0
 43
0.1143
 10
35.9049
 20
70.87649999999998
 42
1.0
 10
36.0192
 20
70.87649999999998
  0
LWPOLYLINE
  5
4EC
330
146C
100
AcDbEntity
  8
21
100
AcDbPolyline
 90
        2
 70
     0
 43
0.2286
 10
35.962
 20
71.2387
 10
35.5998
 20
71.6009
  0
LWPOLYLINE
  5
4F0
330
146C
100
AcDbEntity
  8
21
100
AcDbPolyline
 90
        2
 70
     0
 43
0.1143
 10
35.6402
 20
71.6413
 42
1.0
 10
35.5594
 20
71.5605
  0
LWPOLYLINE
  5
4F4
330
146C
100
AcDbEntity
  8
21
100
AcDbPolyline
 90
        2
 70
     0
 43
0.1143
 10
35.9216
 20
71.1983
 42
1.0
 10
36.0024
 20
71.27909999999999
  0
LWPOLYLINE
  5
4F8
330
146C
100
AcDbEntity
  8
21
100
AcDbPolyline
 90
        2
 70
     0
 43
0.2286
 10
35.5998
 20
71.6009
 10
34.5132
 20
71.6009
  0
LWPOLYLINE
  5
4FC
330
146C
100
AcDbEntity
  8
21
100
AcDbPolyline
 90
        2
 70
     0
 43
0.1143
 10
34.5132
 20
71.6581
 42
1.0
 10
34.5132
 20
71.5438
  0
LWPOLYLINE
  5
500
330
146C
100
AcDbEntity
  8
21
100
AcDbPolyline
 90
        2
 70
     0
 43
0.1143
 10
35.5998
 20
71.5438
 42
1.0
 10
35.5998
 20
71.6581
  0
TEXT
  5
504
330
146C
100
AcDbEntity
  8
21
100
AcDbText
 10
39.47627703774744
 20
64.48276309800018
 30
0.0
 40
1.385913698418335
  1
reset
100
AcDbText
  0
TEXT
  5
505
330
146C
100
AcDbEntity
  8
21
100
AcDbText
 10
86.5
 20
15.1
 30
0.0
 40
2.5
  1
USB
100
AcDbText
  0
TEXT
  5
506
330
146C
100
AcDbEntity
  8
21
100
AcDbText
 10
14.9
 20
24.7
 30
0.0
 40
2.5
  1
4.5kW
100
AcDbText
  0
TEXT
  5
507
330
146C
100
AcDbEntity
  8
21
100
AcDbText
 10
40.0
 20
22.0
 30
0.0
 40
2.5
  1
23kW MAX
100
AcDbText
  0
TEXT
  5
508
330
146C
100
AcDbEntity
  8
21
100
AcDbText
 10
16.0
 20
21.0
 30
0.0
 40
2.5
  1
MAX
100
AcDbText
  0
TEXT
  5
509
330
146C
100
AcDbEntity
  8
21
100
AcDbText
 10
58.28922504734205
 20
70.91920443151433
 30
0.0
 40
1.698945067374211
  1
UART
100
AcDbText
  0
TEXT
  5
50B
330
146C
100
AcDbEntity
  8
21
100
AcDbText
 10
11.11802824297267
 20
77.38818545284328
 30
0.0
 40
3.575239886103418
  1
Monitor Elctrico
100
AcDbText
  0
TEXT
  5
50D
330
146C
100
AcDbEntity
  8
21
100
AcDbText
 10
88.29999999999998
 20
4.299999999999998
 30
0.0
 40
2.5
  1
C.C.
100
AcDbText
  0
TEXT
  5
50E
330
146C
100
AcDbEntity
  8
21
100
AcDbText
 10
88.09999999999998
 20
18.9
 30
0.0
 40
2.5
  1
5V
100
AcDbText
  0
CIRCLE
  5
50F
330
146C
100
AcDbEntity
  8
20
100
AcDbCircle
 10
6.0
 20
26.2
 30
0.0
 40
1.85
  0
CIRCLE
  5
510
330
146C
100
AcDbEntity
  8
20
100
AcDbCircle
 10
102.5
 20
26.2
 30
0.0
 40
1.85
  0
CIRCLE
  5
511
330
146C
100
AcDbEntity
  8
20
100
AcDbCircle
 10
6.0
 20
4.7
 30
0.0
 40
1.85
  0
CIRCLE
  5
512
330
146C
100
AcDbEntity
  8
20
100
AcDbCircle
 10
102.5
 20
4.7
 30
0.0
 40
1.85
  0
CIRCLE
  5
513
330
146C
100
AcDbEntity
  8
20
100
AcDbCircle
 10
36.7
 20
15.9
 30
0.0
 40
3.6
  0
CIRCLE
  5
514
330
146C
100
AcDbEntity
  8
20
100
AcDbCircle
 10
50.1
 20
15.9
 30
0.0
 40
3.6
  0
CIRCLE
  5
515
330
146C
100
AcDbEntity
  8
20
100
AcDbCircle
 10
63.2
 20
15.9
 30
0.0
 40
3.6
  0
CIRCLE
  5
516
330
146C
100
AcDbEntity
  8
20
100
AcDbCircle
 10
18.9
 20
16.0
 30
0.0
 40
3.6
  0
CIRCLE
  5
517
330
146C
100
AcDbEntity
  8
20
100
AcDbCircle
 10
6.0
 20
80.59999999999998
 30
0.0
 40
1.85
  0
CIRCLE
  5
518
330
146C
100
AcDbEntity
  8
20
100
AcDbCircle
 10
102.5
 20
80.59999999999998
 30
0.0
 40
1.85
  0
CIRCLE
  5
519
330
146C
100
AcDbEntity
  8
20
100
AcDbCircle
 10
6.0
 20
59.1
 30
0.0
 40
1.85
  0
CIRCLE
  5
51A
330
146C
100
AcDbEntity
  8
20
100
AcDbCircle
 10
102.5
 20
59.2
 30
0.0
 40
1.85
  0
CIRCLE
  5
51B
330
146C
100
AcDbEntity
  8
20
100
AcDbCircle
 10
42.47007251559501
 20
67.5108887038636
 30
0.0
 40
0.7780160836364303
  0
LWPOLYLINE
  5
530
330
146C
100
AcDbEntity
  8
21
100
AcDbPolyline
 90
        2
 70
     0
 43
0.1
 10
67.01036561500996
 20
22.99897608440403
 10
61.01036561500996
 20
22.99897608440403
  0
LWPOLYLINE
  5
8D1
330
146C
100
AcDbEntity
  8
0
  6
Continuous
100
AcDbPolyline
 90
        4
 70
     1
 43
0.0
 39
1.0
 10
68.47604198802674
 20
79.77289907184797
 10
84.89998778048358
 20
79.77289907184797
 10
84.89998778048358
 20
62.54494770731593
 10
68.47604198802674
 20
62.54494770731593
  0
INSERT
  5
8E1
330
146C
100
AcDbEntity
  8
0
  6
Continuous
100
AcDbBlockReference
  2
*U16
 10
-0.6402952458106484
 20
-2.004800765127129
 30
0.0
  0
LWPOLYLINE
  5
14C6
330
146C
100
AcDbEntity
  8
0
100
AcDbPolyline
 90
        5
 70
     1
 43
0.0716569910561538
 10
31.68096345792023
 20
59.48169341120498
 10
31.70448986240265
 20
59.48169341120498
 10
32.1517495125303
 20
57.8710633780195
 10
31.20233526848264
 20
57.8710633780195
 10
31.68096345792023
 20
59.48169341120498
  0
LWPOLYLINE
  5
14C7
330
146C
100
AcDbEntity
  8
0
100
AcDbPolyline
 90
       41
 70
     1
 43
0.0716569910561538
 10
30.64533732376262
 20
60.90473132443847
 10
29.02098355462906
 20
55.95567353940038
 10
29.01174840900981
 20
55.93106368207992
 10
28.99523865147827
 20
55.82075786457242
 10
29.01793956808413
 20
55.72892233830325
 10
29.02856772449505
 20
55.71328966164057
 10
29.03888632295227
 20
55.69760539198563
 10
29.11085854719127
 20
55.64302000614697
 10
29.20238451550673
 20
55.61949360166457
 10
29.23287597394775
 20
55.61949360166457
 10
30.42560276961641
 20
55.61949360166457
 10
30.48127160829305
 20
55.61949360166457
 10
30.64894883322265
 20
55.68413962099896
 10
30.75894509277643
 20
55.83448160052049
 10
30.77070829501767
 20
55.87730378411788
 10
30.93559949836387
 20
56.47934241110366
 10
32.43453070325003
 20
56.47934241110366
 10
32.60695448346999
 20
55.87730378411788
 10
32.61871768571123
 20
55.83448160052049
 10
32.72866235227272
 20
55.68413962099896
 10
32.89633957720238
 20
55.61949360166457
 10
32.95231797383272
 20
55.61949360166457
 10
34.14504476950137
 20
55.61949360166457
 10
34.17522666998863
 20
55.61949360166457
 10
34.26649467334264
 20
55.64302000614697
 10
34.3384668975817
 20
55.69760539198563
 10
34.34904346100032
 20
55.71328966164057
 10
34.35946524544212
 20
55.72892233830325
 10
34.38237253401709
 20
55.82075786457242
 10
34.36591436947785
 20
55.93106368207992
 10
34.35693718882007
 20
55.95567353940038
 10
32.7326350126788
 20
60.90473132443847
 10
32.71808578885416
 20
60.94647005519786
 10
32.60494235677086
 20
61.09258140935191
 10
32.44763532329071
 20
61.15495733702573
 10
32.3953200291127
 20
61.15495733702573
 10
30.98260071433643
 20
61.15495733702573
 10
30.92997586220466
 20
61.15495733702573
 10
30.7726688287245
 20
61.09258140935191
 10
30.65957698963357
 20
60.94647005519786
 10
30.64533732376262
 20
60.90473132443847
  0
LWPOLYLINE
  5
14C8
330
146C
100
AcDbEntity
  8
0
100
AcDbPolyline
 90
       45
 70
     1
 43
0.0716569910561538
 10
38.11584782780389
 20
55.61949360166457
 10
39.26152181450758
 20
55.61949360166457
 10
39.31440463160081
 20
55.61949360166457
 10
39.47310467587263
 20
55.69002122211961
 10
39.54389026128908
 20
55.84820533646857
 10
39.54389026128908
 20
55.90083018860031
 10
39.54389026128908
 20
60.87341437812085
 10
39.54389026128908
 20
60.92629719521403
 10
39.47310467587263
 20
61.08448130956301
 10
39.31440463160081
 20
61.1546993720643
 10
39.26152181450758
 20
61.1546993720643
 10
38.11584782780389
 20
61.1546993720643
 10
38.06260385976467
 20
61.1546993720643
 10
37.90395540848513
 20
61.08448130956301
 10
37.8333761950378
 20
60.92629719521403
 10
37.8333761950378
 20
60.87341437812085
 10
37.8333761950378
 20
59.17688201277909
 10
36.57775754177257
 20
59.17688201277909
 10
36.57775754177257
 20
60.87341437812085
 10
36.57775754177257
 20
60.92629719521403
 10
36.50692036336383
 20
61.08448130956301
 10
36.34822031909195
 20
61.1546993720643
 10
36.29528590900648
 20
61.1546993720643
 10
35.14961192230274
 20
61.1546993720643
 10
35.09641954725586
 20
61.1546993720643
 10
34.93746153802258
 20
61.08448130956301
 10
34.86693391756754
 20
60.92629719521403
 10
34.86693391756754
 20
60.87341437812085
 10
34.86693391756754
 20
55.90083018860031
 10
34.86693391756754
 20
55.84820533646857
 10
34.93746153802258
 20
55.69002122211961
 10
35.09641954725586
 20
55.61949360166457
 10
35.14961192230274
 20
55.61949360166457
 10
36.29528590900648
 20
55.61949360166457
 10
36.34822031909195
 20
55.61949360166457
 10
36.50692036336383
 20
55.69002122211961
 10
36.57775754177257
 20
55.84820533646857
 10
36.57775754177257
 20
55.90083018860031
 10
36.57775754177257
 20
57.67573230922457
 10
37.8333761950378
 20
57.67573230922457
 10
37.8333761950378
 20
55.90083018860031
 10
37.8333761950378
 20
55.84820533646857
 10
37.90395540848513
 20
55.69002122211961
 10
38.06260385976467
 20
55.61949360166457
 10
38.11584782780389
 20
55.61949360166457
  0
LWPOLYLINE
  5
14C9
330
146C
100
AcDbEntity
  8
0
100
AcDbPolyline
 90
       49
 70
     1
 43
0.0716569910561538
 10
40.21877819338274
 20
58.38725126584129
 10
40.21877819338274
 20
58.21653005436681
 10
40.26077488910354
 20
57.70395367600503
 10
40.38728090618891
 20
57.11558719197507
 10
40.59803827967741
 20
56.622977301628
 10
40.80827972324303
 20
56.31367731287321
 10
40.89361453248412
 20
56.22519533110263
 10
40.97652447108774
 20
56.13955096390782
 10
41.26425858906699
 20
55.91930047983871
 10
41.70176716365259
 20
55.70064937853053
 10
42.20619184923319
 20
55.56939680615482
 10
42.63441368520725
 20
55.52543957672714
 10
42.77711990187046
 20
55.52543957672714
 10
42.91967133955674
 20
55.52543957672714
 10
43.34758361757716
 20
55.56939680615482
 10
43.8517503381963
 20
55.70064937853053
 10
44.28925891278189
 20
55.91930047983871
 10
44.57730258871484
 20
56.13929299894642
 10
44.66041889928763
 20
56.22519533110263
 10
44.74549574356731
 20
56.31367731287321
 10
44.95542762917918
 20
56.622977301628
 10
45.16644296762907
 20
57.11558719197507
 10
45.29300057770675
 20
57.70395367600503
 10
45.3353068313813
 20
58.21653005436681
 10
45.3353068313813
 20
58.38725126584129
 10
45.3353068313813
 20
58.55828203526954
 10
45.29300057770675
 20
59.07075522764671
 10
45.16644296762907
 20
59.65886374671524
 10
44.95542762917918
 20
60.15147363706233
 10
44.74549574356731
 20
60.46082521880939
 10
44.66041889928763
 20
60.54899764262626
 10
44.57730258871484
 20
60.63495156777481
 10
44.28925891278189
 20
60.85525364483615
 10
43.8517503381963
 20
61.07385315315207
 10
43.34758361757716
 20
61.20515731852004
 10
42.91967133955674
 20
61.24875339700176
 10
42.77711990187046
 20
61.24875339700176
 10
42.63441368520725
 20
61.24875339700176
 10
42.20619184923319
 20
61.20515731852004
 10
41.70176716365259
 20
61.07385315315207
 10
41.26425858906699
 20
60.85525364483615
 10
40.97652447108774
 20
60.63495156777481
 10
40.89361453248412
 20
60.54899764262626
 10
40.80827972324303
 20
60.46082521880939
 10
40.59803827967741
 20
60.15147363706233
 10
40.38728090618891
 20
59.65886374671524
 10
40.26077488910354
 20
59.07075522764671
 10
40.21877819338274
 20
58.55828203526954
 10
40.21877819338274
 20
58.38725126584129
  0
LWPOLYLINE
  5
14CA
330
146C
100
AcDbEntity
  8
0
100
AcDbPolyline
 90
       41
 70
     1
 43
0.0716569910561538
 10
41.95307662907786
 20
58.38725126584129
 10
41.95307662907786
 20
58.47459820178156
 10
41.96571691218795
 20
58.73627785865633
 10
42.00405050545649
 20
59.03216366941674
 10
42.06787103691428
 20
59.27568259300684
 10
42.12942147671154
 20
59.42179394716092
 10
42.15717850656139
 20
59.46600914155005
 10
42.19107510249338
 20
59.52090408534241
 10
42.41411160814587
 20
59.71257205168502
 10
42.68621304946245
 20
59.79465650241209
 10
42.77711990187046
 20
59.79465650241209
 10
42.86787197530159
 20
59.79465650241209
 10
43.13992182362582
 20
59.71257205168502
 10
43.36270036431696
 20
59.52090408534241
 10
43.3969065182026
 20
59.46600914155005
 10
43.42435399009874
 20
59.42179394716092
 10
43.48590442989601
 20
59.27568259300684
 10
43.54972496135386
 20
59.03216366941674
 10
43.58805855462239
 20
58.73627785865633
 10
43.6009568026939
 20
58.47459820178156
 10
43.6009568026939
 20
58.38725126584129
 10
43.6009568026939
 20
58.3001622948625
 10
43.58805855462239
 20
58.03848263798767
 10
43.54972496135386
 20
57.74233886226582
 10
43.48590442989601
 20
57.49881993867575
 10
43.42435399009874
 20
57.35270858452167
 10
43.3969065182026
 20
57.30823542517112
 10
43.36270036431696
 20
57.25359844634019
 10
43.13992182362582
 20
57.06213685196672
 10
42.86787197530159
 20
56.9798976222628
 10
42.77711990187046
 20
56.9798976222628
 10
42.68621304946245
 20
56.9798976222628
 10
42.41411160814587
 20
57.06213685196672
 10
42.19107510249338
 20
57.25359844634019
 10
42.15717850656139
 20
57.30823542517112
 10
42.12942147671154
 20
57.35270858452167
 10
42.06787103691428
 20
57.49881993867575
 10
42.00405050545649
 20
57.74233886226582
 10
41.96571691218795
 20
58.03848263798767
 10
41.95307662907786
 20
58.3001622948625
 10
41.95307662907786
 20
58.38725126584129
  0
LWPOLYLINE
  5
14CB
330
146C
100
AcDbEntity
  8
0
100
AcDbPolyline
 90
       20
 70
     1
 43
0.0716569910561538
 10
47.70497296707893
 20
59.74765528643951
 10
48.27012260458023
 20
59.74765528643951
 10
48.35045289356955
 20
59.74765528643951
 10
48.59175331849136
 20
59.71737019996763
 10
48.77733331174423
 20
59.64658461455119
 10
48.80364573781012
 20
59.62641175456733
 10
48.8296486059223
 20
59.6062388945835
 10
48.92122616723
 20
59.45145991772537
 10
48.96064321333651
 20
59.23987705636034
 10
48.96064321333651
 20
59.16898828495934
 10
48.96064321333651
 20
59.10465182357865
 10
48.92034908636114
 20
58.91122969549832
 10
48.82629506142368
 20
58.75474814989473
 10
48.79967307740409
 20
58.73127333840461
 10
48.7727931284231
 20
58.70805649187587
 10
48.58669720524736
 20
58.62571407618736
 10
48.34905988277782
 20
58.5904244694637
 10
48.27012260458023
 20
58.5904244694637
 10
47.70497296707893
 20
58.5904244694637
 10
47.70497296707893
 20
59.74765528643951
  0
LWPOLYLINE
  5
14CC
330
146C
100
AcDbEntity
  8
0
100
AcDbPolyline
 90
       49
 70
     1
 43
0.0716569910561538
 10
46.01014317048267
 20
60.87341437812085
 10
46.01014317048267
 20
55.90083018860031
 10
46.01014317048267
 20
55.84820533646857
 10
46.08067079093771
 20
55.69002122211961
 10
46.23937083520949
 20
55.61949360166457
 10
46.29256321025642
 20
55.61949360166457
 10
47.42260452029748
 20
55.61949360166457
 10
47.47548733739066
 20
55.61949360166457
 10
47.63418738166254
 20
55.69002122211961
 10
47.70497296707893
 20
55.84820533646857
 10
47.70497296707893
 20
55.90083018860031
 10
47.70497296707893
 20
57.26144058116767
 10
48.10528299422632
 20
57.26144058116767
 10
48.91333243941025
 20
55.8462448027617
 10
48.93546583310095
 20
55.80842713941601
 10
49.0779140848027
 20
55.67629748617147
 10
49.24868688926946
 20
55.61949360166457
 10
49.30580033173012
 20
55.61949360166457
 10
50.45147431843386
 20
55.61949360166457
 10
50.48227533482864
 20
55.61949360166457
 10
50.57493634897437
 20
55.64606399269186
 10
50.6398403332702
 20
55.70766602548141
 10
50.64763087510536
 20
55.72500127088952
 10
50.65552460292511
 20
55.74264607425135
 10
50.66109664609204
 20
55.83948612077222
 10
50.6227630528235
 20
55.94783140457289
 10
50.60852338695255
 20
55.97135780905535
 10
49.66689968474011
 20
57.51925076362102
 10
49.78360303329115
 20
57.57383614945962
 10
50.10605923507885
 20
57.79857522385762
 10
50.42015737211622
 20
58.16638166586478
 10
50.60821382899885
 20
58.62318601956537
 10
50.67120887258008
 20
59.03273119233194
 10
50.67120887258008
 20
59.16898828495934
 10
50.67120887258008
 20
59.29363695432238
 10
50.63370076718811
 20
59.66644791658132
 10
50.52195034589655
 20
60.08687921072021
 10
50.33559645775941
 20
60.43059172532977
 10
50.147746372846
 20
60.64160706377967
 10
50.07469069576891
 20
60.69763705340233
 10
49.97537418561828
 20
60.77404627497793
 10
49.33097771196575
 20
61.04083363808903
 10
48.55285220230772
 20
61.15495733702573
 10
48.29364900906265
 20
61.15495733702573
 10
46.29256321025642
 20
61.15495733702573
 10
46.23937083520949
 20
61.15495733702573
 10
46.08067079093771
 20
61.08473927452445
 10
46.01014317048267
 20
60.92629719521403
 10
46.01014317048267
 20
60.87341437812085
  0
LWPOLYLINE
  5
14CD
330
146C
100
AcDbEntity
  8
0
100
AcDbPolyline
 90
       20
 70
     1
 43
0.0716569910561538
 10
53.02524233161509
 20
59.74765528643951
 10
53.59039196911632
 20
59.74765528643951
 10
53.67072225810571
 20
59.74765528643951
 10
53.91197109003522
 20
59.71737019996763
 10
54.09755108328809
 20
59.64658461455119
 10
54.12386350935398
 20
59.62641175456733
 10
54.14986637746611
 20
59.6062388945835
 10
54.24144393877381
 20
59.45145991772537
 10
54.28096417086496
 20
59.23987705636034
 10
54.28096417086496
 20
59.16898828495934
 10
54.28096417086496
 20
59.10465182357865
 10
54.24061845089724
 20
58.91122969549832
 10
54.14656442595983
 20
58.75474814989473
 10
54.11994244194019
 20
58.73127333840461
 10
54.0930624929592
 20
58.70805649187587
 10
53.90696656978346
 20
58.62571407618736
 10
53.66927765432169
 20
58.5904244694637
 10
53.59039196911632
 20
58.5904244694637
 10
53.02524233161509
 20
58.5904244694637
 10
53.02524233161509
 20
59.74765528643951
  0
LWPOLYLINE
  5
14CE
330
146C
100
AcDbEntity
  8
0
100
AcDbPolyline
 90
       49
 70
     1
 43
0.0716569910561538
 10
51.33041253501878
 20
60.87341437812085
 10
51.33041253501878
 20
55.90083018860031
 10
51.33041253501878
 20
55.84820533646857
 10
51.40088856248152
 20
55.69002122211961
 10
51.55964019974565
 20
55.61949360166457
 10
51.61278098180028
 20
55.61949360166457
 10
52.74282229184135
 20
55.61949360166457
 10
52.79570510893453
 20
55.61949360166457
 10
52.95440515320635
 20
55.69002122211961
 10
53.02524233161509
 20
55.84820533646857
 10
53.02524233161509
 20
55.90083018860031
 10
53.02524233161509
 20
57.26144058116767
 10
53.42550076577018
 20
57.26144058116767
 10
54.23385976890782
 20
55.8462448027617
 10
54.25599316259852
 20
55.80842713941601
 10
54.39844141430026
 20
55.67629748617147
 10
54.56921421876703
 20
55.61949360166457
 10
54.62632766122769
 20
55.61949360166457
 10
55.77200164793143
 20
55.61949360166457
 10
55.80280266432615
 20
55.61949360166457
 10
55.89546367847188
 20
55.64606399269186
 10
55.960058104814
 20
55.70766602548141
 10
55.96790023964152
 20
55.72500127088952
 10
55.97579396746127
 20
55.74264607425135
 10
55.9816239755896
 20
55.83948612077222
 10
55.94329038232107
 20
55.94783140457289
 10
55.92905071645012
 20
55.97135780905535
 10
54.98711745628392
 20
57.51925076362102
 10
55.10387239782724
 20
57.57383614945962
 10
55.42658656457641
 20
57.79857522385762
 10
55.74037514366009
 20
58.16638166586478
 10
55.92874115849642
 20
58.62318601956537
 10
55.99173620207764
 20
59.03273119233194
 10
55.99173620207764
 20
59.16898828495934
 10
55.99173620207764
 20
59.29363695432238
 10
55.95422809668568
 20
59.66644791658132
 10
55.84247767539412
 20
60.08687921072021
 10
55.65612378725697
 20
60.43059172532977
 10
55.46827370234351
 20
60.64160706377967
 10
55.39521802526647
 20
60.69763705340233
 10
55.29559195716214
 20
60.77404627497793
 10
54.65150504146325
 20
61.04083363808903
 10
53.87306997385152
 20
61.15495733702573
 10
53.61386678060646
 20
61.15495733702573
 10
51.61278098180028
 20
61.15495733702573
 10
51.55964019974565
 20
61.15495733702573
 10
51.40088856248152
 20
61.08473927452445
 10
51.33041253501878
 20
60.92629719521403
 10
51.33041253501878
 20
60.87341437812085
  0
LWPOLYLINE
  5
14CF
330
146C
100
AcDbEntity
  8
0
100
AcDbPolyline
 90
        5
 70
     1
 43
0.0716569910561538
 10
59.03629026986894
 20
59.48169341120498
 10
59.05981667435137
 20
59.48169341120498
 10
59.50707632447901
 20
57.8710633780195
 10
58.55766208043141
 20
57.8710633780195
 10
59.03629026986894
 20
59.48169341120498
  0
LWPOLYLINE
  5
14D0
330
146C
100
AcDbEntity
  8
0
100
AcDbPolyline
 90
       41
 70
     1
 43
0.0716569910561538
 10
58.00066413571133
 20
60.90473132443847
 10
56.3760524016163
 20
55.95567353940038
 10
56.36681725599712
 20
55.93106368207992
 10
56.35025590547328
 20
55.82075786457242
 10
56.3732663800329
 20
55.72892233830325
 10
56.38384294345152
 20
55.71328966164057
 10
56.39426472789333
 20
55.69760539198563
 10
56.46618535914004
 20
55.64302000614697
 10
56.55740176950175
 20
55.61949360166457
 10
56.58794482093506
 20
55.61949360166457
 10
57.78087798857282
 20
55.61949360166457
 10
57.83665001323405
 20
55.61949360166457
 10
58.00422405217907
 20
55.68413962099896
 10
58.11432349771749
 20
55.83448160052049
 10
58.12603510696638
 20
55.87730378411788
 10
58.29087471732029
 20
56.47934241110366
 10
59.78980592220651
 20
56.47934241110366
 10
59.96228129541876
 20
55.87730378411788
 10
59.97399290466771
 20
55.83448160052049
 10
60.08373119926009
 20
55.68413962099896
 10
60.25166638915109
 20
55.61949360166457
 10
60.30764478578149
 20
55.61949360166457
 10
61.50037158145008
 20
55.61949360166457
 10
61.5305534819374
 20
55.61949360166457
 10
61.6218214852914
 20
55.64302000614697
 10
61.69379370953047
 20
55.69760539198563
 10
61.70437027294909
 20
55.71328966164057
 10
61.71479205739084
 20
55.72892233830325
 10
61.73769934596586
 20
55.82075786457242
 10
61.72124118142662
 20
55.93106368207992
 10
61.71226400076884
 20
55.95567353940038
 10
60.08796182462757
 20
60.90473132443847
 10
60.07330941481834
 20
60.94647005519786
 10
59.96026916871958
 20
61.09258140935191
 10
59.80270417027807
 20
61.15495733702573
 10
59.75038887610001
 20
61.15495733702573
 10
58.3379275262852
 20
61.15495733702573
 10
58.28525108116114
 20
61.15495733702573
 10
58.12768608271958
 20
61.09258140935191
 10
58.01490380158227
 20
60.94647005519786
 10
58.00066413571133
 20
60.90473132443847
  0
LWPOLYLINE
  5
14D1
330
146C
100
AcDbEntity
  8
0
100
AcDbPolyline
 90
       33
 70
     1
 43
0.0716569910561538
 10
61.61005828305022
 20
59.65354966850978
 10
62.61462543585165
 20
59.65354966850978
 10
62.61462543585165
 20
55.90083018860031
 10
62.61462543585165
 20
55.84820533646857
 10
62.68520464929892
 20
55.69002122211961
 10
62.84395628656304
 20
55.61949360166457
 10
62.89709706861768
 20
55.61949360166457
 10
64.04277105532142
 20
55.61949360166457
 10
64.0956538724146
 20
55.61949360166457
 10
64.25435391668642
 20
55.69002122211961
 10
64.32519109509517
 20
55.84820533646857
 10
64.32519109509517
 20
55.90083018860031
 10
64.32519109509517
 20
59.65354966850978
 10
65.32980984088888
 20
59.65354966850978
 10
65.38269265798206
 20
59.65354966850978
 10
65.54139270225395
 20
59.72412888195709
 10
65.61217828767033
 20
59.8825709612675
 10
65.61217828767033
 20
59.93514422040698
 10
65.61217828767033
 20
60.87341437812085
 10
65.61217828767033
 20
60.92629719521403
 10
65.54139270225395
 20
61.08448130956301
 10
65.38269265798206
 20
61.1546993720643
 10
65.32980984088888
 20
61.1546993720643
 10
61.61005828305022
 20
61.1546993720643
 10
61.55691750099558
 20
61.1546993720643
 10
61.39821745672375
 20
61.08448130956301
 10
61.32758665028413
 20
60.92629719521403
 10
61.32758665028413
 20
60.87341437812085
 10
61.32758665028413
 20
59.93514422040698
 10
61.32758665028413
 20
59.8825709612675
 10
61.39821745672375
 20
59.72412888195709
 10
61.55691750099558
 20
59.65354966850978
 10
61.61005828305022
 20
59.65354966850978
  0
LWPOLYLINE
  5
14D2
330
146C
100
AcDbEntity
  8
0
100
AcDbPolyline
 90
       45
 70
     1
 43
0.0716569910561538
 10
69.91245419471155
 20
58.02759651661535
 10
69.91245419471155
 20
58.81717567056085
 10
69.91245419471155
 20
58.87011008064632
 10
69.84362914300195
 20
59.02829419499531
 10
69.68910813110525
 20
59.09851225749659
 10
69.63787628976522
 20
59.09851225749659
 10
67.87220931476023
 20
59.09851225749659
 10
67.87220931476023
 20
59.74765528643951
 10
69.75576627713886
 20
59.74765528643951
 10
69.80864909423203
 20
59.74765528643951
 10
69.96734913850386
 20
59.81813131390225
 10
70.03813472392031
 20
59.97631542825121
 10
70.03813472392031
 20
60.02888868739069
 10
70.03813472392031
 20
60.87341437812085
 10
70.03813472392031
 20
60.92629719521403
 10
69.96734913850386
 20
61.08473927452445
 10
69.80864909423203
 20
61.15495733702573
 10
69.75576627713886
 20
61.15495733702573
 10
66.47543223460033
 20
61.15495733702573
 10
66.42229145254569
 20
61.15495733702573
 10
66.26353981528158
 20
61.08473927452445
 10
66.19306378781889
 20
60.92629719521403
 10
66.19306378781889
 20
60.87341437812085
 10
66.19306378781889
 20
55.90083018860031
 10
66.19306378781889
 20
55.84820533646857
 10
66.26353981528158
 20
55.69002122211961
 10
66.42229145254569
 20
55.61949360166457
 10
66.47543223460033
 20
55.61949360166457
 10
69.80276749311141
 20
55.61949360166457
 10
69.8556503102046
 20
55.61949360166457
 10
70.01435035447648
 20
55.69002122211961
 10
70.08518753288521
 20
55.84820533646857
 10
70.08518753288521
 20
55.90083018860031
 10
70.08518753288521
 20
56.74525269334589
 10
70.08518753288521
 20
56.79823869642365
 10
70.01435035447648
 20
56.95637121778037
 10
69.8556503102046
 20
57.02658928028165
 10
69.80276749311141
 20
57.02658928028165
 10
67.87220931476023
 20
57.02658928028165
 10
67.87220931476023
 20
57.75379250655333
 10
69.63787628976522
 20
57.75379250655333
 10
69.68910813110525
 20
57.75379250655333
 10
69.84362914300195
 20
57.82241118629378
 10
69.91245419471155
 20
57.97636467527531
 10
69.91245419471155
 20
58.02759651661535
  0
LWPOLYLINE
  5
14D3
330
146C
100
AcDbEntity
  8
0
100
AcDbPolyline
 90
       96
 70
     1
 43
0.0716569910561538
 10
72.57274365595643
 20
57.31210489959258
 10
72.53575148048733
 20
57.35358566539054
 10
72.44897206746222
 20
57.49825241576061
 10
72.36085123663773
 20
57.73924328272866
 10
72.30796841954449
 20
58.03569661640423
 10
72.29032361618269
 20
58.29938839997817
 10
72.29032361618269
 20
58.38725126584129
 10
72.29032361618269
 20
58.47599121257329
 10
72.30709133867563
 20
58.74215945977693
 10
72.35775565710051
 20
59.04000580424426
 10
72.44231657145732
 20
59.28156419412747
 10
72.52543288203011
 20
59.42519908465178
 10
72.56098045371524
 20
59.46600914155005
 10
72.59487704964718
 20
59.50521981568744
 10
72.71942253302566
 20
59.60288535008491
 10
72.92486582830864
 20
59.70086044243609
 10
73.17653644467995
 20
59.75967645364216
 10
73.40045003120136
 20
59.77897223275713
 10
73.47520827702382
 20
59.77897223275713
 10
73.57313177638272
 20
59.77897223275713
 10
73.8673150183977
 20
59.74399218398722
 10
74.17073340603187
 20
59.6616497682987
 10
74.22841437140764
 20
59.63812336381628
 10
74.25446883251211
 20
59.62780476535906
 10
74.36946961231772
 20
59.59813879479458
 10
74.46383319520887
 20
59.5984483527483
 10
74.47946587187155
 20
59.60288535008491
 10
74.49515014152646
 20
59.60768349836749
 10
74.56371722827461
 20
59.65664524804694
 10
74.61948925293583
 20
59.74120616240376
 10
74.62862121257043
 20
59.76323637010989
 10
74.95061307742762
 20
60.45881309211026
 10
74.9595386650931
 20
60.48239108958497
 10
74.98363259249069
 20
60.5834617614733
 10
74.9791440021618
 20
60.66183151675582
 10
74.97408788891775
 20
60.67405905592758
 10
74.96882540370458
 20
60.68638978108396
 10
74.83138167225454
 20
60.81996403811252
 10
74.80919668557155
 20
60.83425529697575
 10
74.70451450422323
 20
60.90338990663901
 10
74.08901010625081
 20
61.14520626148371
 10
73.41076862965858
 20
61.24875339700176
 10
73.18489450943028
 20
61.24875339700176
 10
73.03733855149218
 20
61.24875339700176
 10
72.59565094453146
 20
61.2053636904892
 10
72.07616110520334
 20
61.0749366059901
 10
71.62637339845369
 20
60.85747214350445
 10
71.33162263352355
 20
60.63882104219624
 10
71.24649419625157
 20
60.55291871003999
 10
71.15945681826506
 20
60.46526221614602
 10
70.94421085444773
 20
60.15658134329865
 10
70.72844896070748
 20
59.66366189499786
 10
70.59910532904641
 20
59.07385080718388
 10
70.55602518048752
 20
58.55910752314608
 10
70.55602518048752
 20
58.38725126584129
 10
70.55602518048752
 20
58.21653005436681
 10
70.59993081692297
 20
57.70395367600503
 10
70.73231843512892
 20
57.11589674992879
 10
70.95313644211316
 20
56.622977301628
 10
71.17349011216683
 20
56.31341934791177
 10
71.26217846590654
 20
56.22550488905637
 10
71.34926743688535
 20
56.13929299894642
 10
71.64959024498242
 20
55.91930047983871
 10
72.10562070379868
 20
55.70064937853053
 10
72.63042462133225
 20
55.56939680615482
 10
73.0754657727916
 20
55.52543957672714
 10
73.22410518356767
 20
55.52543957672714
 10
73.45333284829454
 20
55.52543957672714
 10
74.14189292334398
 20
55.63125680390578
 10
74.76585857205131
 20
55.87756174907934
 10
74.87193376419137
 20
55.94783140457289
 10
74.89406715788212
 20
55.96238062839756
 10
75.03151088933211
 20
56.09564532747239
 10
75.03682496753757
 20
56.10797605262877
 10
75.04182948778932
 20
56.12056474274658
 10
75.04631807811822
 20
56.19919246299048
 10
75.02227574371286
 20
56.2996956119637
 10
75.01329856305514
 20
56.3229124584924
 10
74.68351615636279
 20
57.02689883823535
 10
74.67293959294417
 20
57.04903223192605
 10
74.54550490199764
 20
57.18255489596234
 10
74.53069771321153
 20
57.18699189329893
 10
74.51558096647173
 20
57.19179004158153
 10
74.42348747524116
 20
57.19204800654296
 10
74.30926059031989
 20
57.16238203597851
 10
74.2832577222077
 20
57.152011844529
 10
74.21917922578845
 20
57.12600897641684
 10
73.89703258195445
 20
57.03468938007057
 10
73.60393279277744
 20
56.99553029892547
 10
73.50647363034912
 20
56.99553029892547
 10
73.43068352468097
 20
56.99553029892547
 10
73.20398391657611
 20
57.01544519394786
 10
72.94730877995309
 20
57.07477713507683
 10
72.73706733638746
 20
57.17383568026599
 10
72.6079816696878
 20
57.27268785348605
 10
72.57274365595643
 20
57.31210489959258
  0
ENDSEC
  0
SECTION
  2
OBJECTS
  0
DICTIONARY
  5
1409
330
0
100
AcDbDictionary
281
     1
  3
ACAD_CIP_PREVIOUS_PRODUCT_INFO
350
149D
  3
ACAD_COLOR
350
145F
  3
ACAD_DETAILVIEWSTYLE
350
1466
  3
ACAD_GROUP
350
140A
  3
ACAD_LAYOUT
350
145E
  3
ACAD_MATERIAL
350
140D
  3
ACAD_MLEADERSTYLE
350
1462
  3
ACAD_MLINESTYLE
350
145B
  3
ACAD_PLOTSETTINGS
350
145D
  3
ACAD_PLOTSTYLENAME
350
140B
  3
ACAD_SCALELIST
350
143F
  3
ACAD_SECTIONVIEWSTYLE
350
1464
  3
ACAD_TABLESTYLE
350
1460
  3
ACAD_VISUALSTYLE
350
1426
  3
ACDB_RECOMPOSE_DATA
350
1531
  3
AcDbVariableDictionary
350
14EF
  0
DICTIONARY
  5
1512
330
13FF
100
AcDbDictionary
280
     1
281
     1
  3
ACAD_LAYERSTATES
360
1513
  0
DICTIONARY
  5
14E3
330
1451
100
AcDbDictionary
280
     1
281
     1
  3
ADSK_XREC_LAYER_RECONCILED
360
14E4
  0
DICTIONARY
  5
14E5
330
1471
100
AcDbDictionary
280
     1
281
     1
  3
ADSK_XREC_LAYER_RECONCILED
360
14E6
  0
DICTIONARY
  5
14E7
330
1472
100
AcDbDictionary
280
     1
281
     1
  3
ADSK_XREC_LAYER_RECONCILED
360
14E8
  0
DICTIONARY
  5
14E9
330
1473
100
AcDbDictionary
280
     1
281
     1
  3
ADSK_XREC_LAYER_RECONCILED
360
14EA
  0
DICTIONARY
  5
14EB
330
1474
100
AcDbDictionary
280
     1
281
     1
  3
ADSK_XREC_LAYER_RECONCILED
360
14EC
  0
DICTIONARY
  5
14ED
330
1475
100
AcDbDictionary
280
     1
281
     1
  3
ADSK_XREC_LAYER_RECONCILED
360
14EE
  0
XRECORD
  5
149D
102
{ACAD_REACTORS
330
1409
102
}
330
1409
100
AcDbXrecord
280
     1
300
ACD
300
2017
300
ACD_F_S
  0
DICTIONARY
  5
145F
102
{ACAD_REACTORS
330
1409
102
}
330
1409
100
AcDbDictionary
281
     1
  0
DICTIONARY
  5
1466
102
{ACAD_REACTORS
330
1409
102
}
330
1409
100
AcDbDictionary
281
     1
  3
Imperial24
350
1467
  0
DICTIONARY
  5
140A
102
{ACAD_REACTORS
330
1409
102
}
330
1409
100
AcDbDictionary
281
     1
  0
DICTIONARY
  5
145E
102
{ACAD_REACTORS
330
1409
102
}
330
1409
100
AcDbDictionary
281
     1
  3
Layout1
350
146B
  3
Model
350
146F
  0
DICTIONARY
  5
140D
102
{ACAD_REACTORS
330
1409
102
}
330
1409
100
AcDbDictionary
281
     1
  3
ByBlock
350
1416
  3
ByLayer
350
140E
  3
Global
350
141E
  0
DICTIONARY
  5
1462
102
{ACAD_REACTORS
330
1409
102
}
330
1409
100
AcDbDictionary
281
     1
  3
Standard
350
1463
  0
DICTIONARY
  5
145B
102
{ACAD_REACTORS
330
1409
102
}
330
1409
100
AcDbDictionary
281
     1
  3
Standard
350
145C
  0
DICTIONARY
  5
145D
102
{ACAD_REACTORS
330
1409
102
}
330
1409
100
AcDbDictionary
281
     1
  0
ACDBDICTIONARYWDFLT
  5
140B
102
{ACAD_REACTORS
330
1409
102
}
330
1409
100
AcDbDictionary
281
     1
  3
Normal
350
140C
100
AcDbDictionaryWithDefault
340
140C
  0
DICTIONARY
  5
143F
102
{ACAD_REACTORS
330
1409
102
}
330
1409
100
AcDbDictionary
281
     1
  3
A0
350
1440
  3
A1
350
1441
  3
A2
350
1442
  3
A3
350
1443
  3
A4
350
1444
  3
A5
350
1445
  3
A6
350
1446
  3
A7
350
1447
  3
A8
350
1448
  3
A9
350
1449
  3
B0
350
144A
  3
B1
350
144B
  3
B2
350
144C
  3
B3
350
144D
  3
B4
350
144E
  3
B5
350
144F
  3
B6
350
1450
  0
DICTIONARY
  5
1464
102
{ACAD_REACTORS
330
1409
102
}
330
1409
100
AcDbDictionary
281
     1
  3
Imperial24
350
1465
  0
DICTIONARY
  5
1460
102
{ACAD_REACTORS
330
1409
102
}
330
1409
100
AcDbDictionary
281
     1
  3
Standard
350
1461
  0
DICTIONARY
  5
1426
102
{ACAD_REACTORS
330
1409
102
}
330
1409
100
AcDbDictionary
281
     1
  3
2dWireframe
350
142C
  3
Basic
350
142B
  3
Brighten
350
1432
  3
ColorChange
350
1436
  3
Conceptual
350
142F
  3
Dim
350
1431
  3
EdgeColorOff
350
143E
  3
Facepattern
350
1435
  3
Flat
350
1427
  3
FlatWithEdges
350
1428
  3
Gouraud
350
1429
  3
GouraudWithEdges
350
142A
  3
Hidden
350
142E
  3
JitterOff
350
143C
  3
Linepattern
350
1434
  3
OverhangOff
350
143D
  3
Realistic
350
1430
  3
Shaded
350
143B
  3
Shaded with edges
350
143A
  3
Shades of Gray
350
1437
  3
Sketchy
350
1438
  3
Thicken
350
1433
  3
Wireframe
350
142D
  3
X-Ray
350
1439
  0
XRECORD
  5
1531
102
{ACAD_REACTORS
330
1409
102
}
330
1409
100
AcDbXrecord
280
     1
 90
        1
330
1461
330
1465
330
1467
  0
DICTIONARY
  5
14EF
102
{ACAD_REACTORS
330
1409
102
}
330
1409
100
AcDbDictionary
281
     1
  3
CANNOSCALE
350
14F5
  3
CMLEADERSTYLE
350
14F1
  3
CTABLESTYLE
350
14F0
  3
CVIEWDETAILSTYLE
350
14F2
  3
CVIEWSECTIONSTYLE
350
14F3
  3
LAYEREVAL
350
14F7
  3
LAYERNOTIFY
350
14F8
  3
LIGHTINGUNITS
350
14F6
  3
MSLTSCALE
350
14F4
  0
DICTIONARY
  5
1513
102
{ACAD_REACTORS
330
1512
102
}
330
1512
100
AcDbDictionary
281
     1
  0
XRECORD
  5
14E4
102
{ACAD_REACTORS
330
14E3
102
}
330
14E3
100
AcDbXrecord
280
     1
290
     1
  0
XRECORD
  5
14E6
102
{ACAD_REACTORS
330
14E5
102
}
330
14E5
100
AcDbXrecord
280
     1
290
     1
  0
XRECORD
  5
14E8
102
{ACAD_REACTORS
330
14E7
102
}
330
14E7
100
AcDbXrecord
280
     1
290
     1
  0
XRECORD
  5
14EA
102
{ACAD_REACTORS
330
14E9
102
}
330
14E9
100
AcDbXrecord
280
     1
290
     1
  0
XRECORD
  5
14EC
102
{ACAD_REACTORS
330
14EB
102
}
330
14EB
100
AcDbXrecord
280
     1
290
     1
  0
XRECORD
  5
14EE
102
{ACAD_REACTORS
330
14ED
102
}
330
14ED
100
AcDbXrecord
280
     1
290
     1
  0
ACDBDETAILVIEWSTYLE
  5
1467
102
{ACAD_XDICTIONARY
360
152F
102
}
102
{ACAD_REACTORS
330
1466
102
}
330
1466
100
AcDbModelDocViewStyle
 70
     0
  3
Imperial24
290
     0
100
AcDbDetailViewStyle
 70
     0
 71
     0
 90
        3
 71
     1
340
1452
 62
   256
 40
0.24
340
0
 62
   256
 40
0.24
300

 40
0.36
280
     3
 71
     2
340
1459
 90
       25
 62
   256
 71
     3
340
1452
 62
   256
 40
0.24
 90
        1
 40
0.75
 90
        1
300
%<\AcVar ViewType \f "%tc1">% %<\AcVar ViewDetailId>%\PSCALE %<\AcVar ViewScale \f "%sn">%
 71
     4
340
1459
 90
       25
 62
   256
340
1459
 90
       25
 62
   256
280
     0
  0
LAYOUT
  5
146B
102
{ACAD_REACTORS
330
145E
102
}
330
145E
100
AcDbPlotSettings
  1

  2
Canon MP280 series Printer
  4

  6

 40
0.0
 41
0.0
 42
0.0
 43
0.0
 44
0.0
 45
0.0
 46
0.0
 47
0.0
 48
0.0
 49
0.0
140
0.0
141
0.0
142
1.0
143
1.0
 70
   688
 72
     0
 73
     0
 74
     5
  7

 75
    16
147
1.0
 76
     0
 77
     2
 78
   300
148
0.0
149
0.0
100
AcDbLayout
  1
Layout1
 70
     1
 71
     1
 10
0.0
 20
0.0
 11
12.0
 21
9.0
 12
0.0
 22
0.0
 32
0.0
 14
1.000000000000000E+20
 24
1.000000000000000E+20
 34
1.000000000000000E+20
 15
-1.000000000000000E+20
 25
-1.000000000000000E+20
 35
-1.000000000000000E+20
146
0.0
 13
0.0
 23
0.0
 33
0.0
 16
1.0
 26
0.0
 36
0.0
 17
0.0
 27
1.0
 37
0.0
 76
     0
330
1468
  0
LAYOUT
  5
146F
102
{ACAD_REACTORS
330
145E
102
}
330
145E
100
AcDbPlotSettings
  1

  2
Canon MP280 series Printer
  4

  6

 40
0.0
 41
0.0
 42
0.0
 43
0.0
 44
0.0
 45
0.0
 46
0.0
 47
0.0
 48
0.0
 49
0.0
140
0.0
141
0.0
142
1.0
143
1.0
 70
  1712
 72
     0
 73
     0
 74
     0
  7

 75
     0
147
1.0
 76
     0
 77
     2
 78
   300
148
0.0
149
0.0
100
AcDbLayout
  1
Model
 70
     1
 71
     0
 10
0.0
 20
0.0
 11
12.0
 21
9.0
 12
0.0
 22
0.0
 32
0.0
 14
0.0
 24
0.0
 34
0.0
 15
0.0
 25
0.0
 35
0.0
146
0.0
 13
0.0
 23
0.0
 33
0.0
 16
1.0
 26
0.0
 36
0.0
 17
0.0
 27
1.0
 37
0.0
 76
     0
330
146C
331
1470
  0
MATERIAL
  5
1416
102
{ACAD_XDICTIONARY
360
1417
102
}
102
{ACAD_REACTORS
330
140D
102
}
330
140D
100
AcDbMaterial
  1
ByBlock
 72
     0
 43
0.0208333333333333
 43
0.0
 43
0.0
 43
0.0
 43
0.0
 43
0.0208333333333333
 43
0.0
 43
0.0
 43
0.0
 43
0.0
 43
1.0
 43
0.0
 43
0.0
 43
0.0
 43
0.0
 43
1.0
 77
     0
 47
0.0208333333333333
 47
0.0
 47
0.0
 47
0.0
 47
0.0
 47
0.0208333333333333
 47
0.0
 47
0.0
 47
0.0
 47
0.0
 47
1.0
 47
0.0
 47
0.0
 47
0.0
 47
0.0
 47
1.0
171
     0
 49
0.0208333333333333
 49
0.0
 49
0.0
 49
0.0
 49
0.0
 49
0.0208333333333333
 49
0.0
 49
0.0
 49
0.0
 49
0.0
 49
1.0
 49
0.0
 49
0.0
 49
0.0
 49
0.0
 49
1.0
175
     0
142
0.0208333333333333
142
0.0
142
0.0
142
0.0
142
0.0
142
0.0208333333333333
142
0.0
142
0.0
142
0.0
142
0.0
142
1.0
142
0.0
142
0.0
142
0.0
142
0.0
142
1.0
179
     0
144
0.0208333333333333
144
0.0
144
0.0
144
0.0
144
0.0
144
0.0208333333333333
144
0.0
144
0.0
144
0.0
144
0.0
144
1.0
144
0.0
144
0.0
144
0.0
144
0.0
144
1.0
147
0.0208333333333333
147
0.0
147
0.0
147
0.0
147
0.0
147
0.0208333333333333
147
0.0
147
0.0
147
0.0
147
0.0
147
1.0
147
0.0
147
0.0
147
0.0
147
0.0
147
1.0
  0
MATERIAL
  5
140E
102
{ACAD_XDICTIONARY
360
140F
102
}
102
{ACAD_REACTORS
330
140D
102
}
330
140D
100
AcDbMaterial
  1
ByLayer
 72
     0
 43
0.0208333333333333
 43
0.0
 43
0.0
 43
0.0
 43
0.0
 43
0.0208333333333333
 43
0.0
 43
0.0
 43
0.0
 43
0.0
 43
1.0
 43
0.0
 43
0.0
 43
0.0
 43
0.0
 43
1.0
 77
     0
 47
0.0208333333333333
 47
0.0
 47
0.0
 47
0.0
 47
0.0
 47
0.0208333333333333
 47
0.0
 47
0.0
 47
0.0
 47
0.0
 47
1.0
 47
0.0
 47
0.0
 47
0.0
 47
0.0
 47
1.0
171
     0
 49
0.0208333333333333
 49
0.0
 49
0.0
 49
0.0
 49
0.0
 49
0.0208333333333333
 49
0.0
 49
0.0
 49
0.0
 49
0.0
 49
1.0
 49
0.0
 49
0.0
 49
0.0
 49
0.0
 49
1.0
175
     0
142
0.0208333333333333
142
0.0
142
0.0
142
0.0
142
0.0
142
0.0208333333333333
142
0.0
142
0.0
142
0.0
142
0.0
142
1.0
142
0.0
142
0.0
142
0.0
142
0.0
142
1.0
179
     0
144
0.0208333333333333
144
0.0
144
0.0
144
0.0
144
0.0
144
0.0208333333333333
144
0.0
144
0.0
144
0.0
144
0.0
144
1.0
144
0.0
144
0.0
144
0.0
144
0.0
144
1.0
147
0.0208333333333333
147
0.0
147
0.0
147
0.0
147
0.0
147
0.0208333333333333
147
0.0
147
0.0
147
0.0
147
0.0
147
1.0
147
0.0
147
0.0
147
0.0
147
0.0
147
1.0
  0
MATERIAL
  5
141E
102
{ACAD_XDICTIONARY
360
141F
102
}
102
{ACAD_REACTORS
330
140D
102
}
330
140D
100
AcDbMaterial
  1
Global
 72
     0
 43
0.0208333333333333
 43
0.0
 43
0.0
 43
0.0
 43
0.0
 43
0.0208333333333333
 43
0.0
 43
0.0
 43
0.0
 43
0.0
 43
1.0
 43
0.0
 43
0.0
 43
0.0
 43
0.0
 43
1.0
 77
     0
 47
0.0208333333333333
 47
0.0
 47
0.0
 47
0.0
 47
0.0
 47
0.0208333333333333
 47
0.0
 47
0.0
 47
0.0
 47
0.0
 47
1.0
 47
0.0
 47
0.0
 47
0.0
 47
0.0
 47
1.0
171
     0
 49
0.0208333333333333
 49
0.0
 49
0.0
 49
0.0
 49
0.0
 49
0.0208333333333333
 49
0.0
 49
0.0
 49
0.0
 49
0.0
 49
1.0
 49
0.0
 49
0.0
 49
0.0
 49
0.0
 49
1.0
175
     0
142
0.0208333333333333
142
0.0
142
0.0
142
0.0
142
0.0
142
0.0208333333333333
142
0.0
142
0.0
142
0.0
142
0.0
142
1.0
142
0.0
142
0.0
142
0.0
142
0.0
142
1.0
179
     0
144
0.0208333333333333
144
0.0
144
0.0
144
0.0
144
0.0
144
0.0208333333333333
144
0.0
144
0.0
144
0.0
144
0.0
144
1.0
144
0.0
144
0.0
144
0.0
144
0.0
144
1.0
147
0.0208333333333333
147
0.0
147
0.0
147
0.0
147
0.0
147
0.0208333333333333
147
0.0
147
0.0
147
0.0
147
0.0
147
1.0
147
0.0
147
0.0
147
0.0
147
0.0
147
1.0
  0
MLEADERSTYLE
  5
1463
102
{ACAD_REACTORS
330
1462
102
}
330
1462
100
AcDbMLeaderStyle
179
     2
170
     2
171
     1
172
     0
 90
        2
 40
0.0
 41
0.0
173
     1
 91
-1056964608
340
1457
 92
       -2
290
     1
 42
0.09
291
     1
 43
0.36
  3
Standard
 44
0.18
300

342
1452
174
     1
178
     6
175
     1
176
     0
 93
-1056964608
 45
0.18
292
     0
297
     0
 46
0.18
 94
-1056964608
 47
1.0
 49
1.0
140
1.0
293
     1
141
0.0
294
     1
177
     0
142
1.0
295
     0
296
     0
143
0.125
271
     0
272
     9
273
     9
298
     0
  0
MLINESTYLE
  5
145C
102
{ACAD_REACTORS
330
145B
102
}
330
145B
100
AcDbMlineStyle
  2
STANDARD
 70
     0
  3

 62
   256
 51
90.0
 52
90.0
 71
     2
 49
0.5
 62
   256
  6
BYLAYER
 49
-0.5
 62
   256
  6
BYLAYER
  0
ACDBPLACEHOLDER
  5
140C
102
{ACAD_REACTORS
330
140B
102
}
330
140B
  0
SCALE
  5
1440
102
{ACAD_REACTORS
330
143F
102
}
330
143F
100
AcDbScale
 70
     0
300
1:1
140
1.0
141
1.0
290
     1
  0
SCALE
  5
1441
102
{ACAD_REACTORS
330
143F
102
}
330
143F
100
AcDbScale
 70
     0
300
1/128" = 1'-0"
140
0.0078125
141
12.0
290
     0
  0
SCALE
  5
1442
102
{ACAD_REACTORS
330
143F
102
}
330
143F
100
AcDbScale
 70
     0
300
1/64" = 1'-0"
140
0.015625
141
12.0
290
     0
  0
SCALE
  5
1443
102
{ACAD_REACTORS
330
143F
102
}
330
143F
100
AcDbScale
 70
     0
300
1/32" = 1'-0"
140
0.03125
141
12.0
290
     0
  0
SCALE
  5
1444
102
{ACAD_REACTORS
330
143F
102
}
330
143F
100
AcDbScale
 70
     0
300
1/16" = 1'-0"
140
0.0625
141
12.0
290
     0
  0
SCALE
  5
1445
102
{ACAD_REACTORS
330
143F
102
}
330
143F
100
AcDbScale
 70
     0
300
3/32" = 1'-0"
140
0.09375
141
12.0
290
     0
  0
SCALE
  5
1446
102
{ACAD_REACTORS
330
143F
102
}
330
143F
100
AcDbScale
 70
     0
300
1/8" = 1'-0"
140
0.125
141
12.0
290
     0
  0
SCALE
  5
1447
102
{ACAD_REACTORS
330
143F
102
}
330
143F
100
AcDbScale
 70
     0
300
3/16" = 1'-0"
140
0.1875
141
12.0
290
     0
  0
SCALE
  5
1448
102
{ACAD_REACTORS
330
143F
102
}
330
143F
100
AcDbScale
 70
     0
300
1/4" = 1'-0"
140
0.25
141
12.0
290
     0
  0
SCALE
  5
1449
102
{ACAD_REACTORS
330
143F
102
}
330
143F
100
AcDbScale
 70
     0
300
3/8" = 1'-0"
140
0.375
141
12.0
290
     0
  0
SCALE
  5
144A
102
{ACAD_REACTORS
330
143F
102
}
330
143F
100
AcDbScale
 70
     0
300
1/2" = 1'-0"
140
0.5
141
12.0
290
     0
  0
SCALE
  5
144B
102
{ACAD_REACTORS
330
143F
102
}
330
143F
100
AcDbScale
 70
     0
300
3/4" = 1'-0"
140
0.75
141
12.0
290
     0
  0
SCALE
  5
144C
102
{ACAD_REACTORS
330
143F
102
}
330
143F
100
AcDbScale
 70
     0
300
1" = 1'-0"
140
1.0
141
12.0
290
     0
  0
SCALE
  5
144D
102
{ACAD_REACTORS
330
143F
102
}
330
143F
100
AcDbScale
 70
     0
300
1-1/2" = 1'-0"
140
1.5
141
12.0
290
     0
  0
SCALE
  5
144E
102
{ACAD_REACTORS
330
143F
102
}
330
143F
100
AcDbScale
 70
     0
300
3" = 1'-0"
140
3.0
141
12.0
290
     0
  0
SCALE
  5
144F
102
{ACAD_REACTORS
330
143F
102
}
330
143F
100
AcDbScale
 70
     0
300
6" = 1'-0"
140
6.0
141
12.0
290
     0
  0
SCALE
  5
1450
102
{ACAD_REACTORS
330
143F
102
}
330
143F
100
AcDbScale
 70
     0
300
1'-0" = 1'-0"
140
12.0
141
12.0
290
     0
  0
ACDBSECTIONVIEWSTYLE
  5
1465
102
{ACAD_XDICTIONARY
360
152D
102
}
102
{ACAD_REACTORS
330
1464
102
}
330
1464
100
AcDbModelDocViewStyle
 70
     0
  3
Imperial24
290
     0
100
AcDbSectionViewStyle
 70
     0
 71
     0
 90
       78
 71
     1
340
1452
 62
   256
 40
0.24
340
0
340
0
 62
   256
 40
0.24
300
I, O, Q, S, X, Z
 40
0.48
 90
        3
 40
0.18
 90
        1
 71
     2
340
1459
 90
       25
 62
   256
340
1459
 90
       50
 62
   256
 40
0.24
 40
0.0
 40
0.24
 71
     3
340
1452
 62
   256
 40
0.24
 90
        1
 40
0.75
 90
        1
300
%<\AcVar ViewType \f "%tc1">% %<\AcVar ViewSectionStartId>%-%<\AcVar ViewSectionEndId>%\PSCALE %<\AcVar ViewScale \f "%sn">%
 71
     4
 62
   256
 62
   257
300
ANSI31
 40
1.0
 90
        0
290
     0
290
     0
 90
        6
 40
0.0
 40
1.570796326794896
 40
0.2617993877991494
 40
1.308996938995747
 40
-0.2617993877991494
 40
1.832595714594046
  0
TABLESTYLE
  5
1461
102
{ACAD_XDICTIONARY
360
152B
102
}
102
{ACAD_REACTORS
330
1460
102
}
330
1460
100
AcDbTableStyle
280
     0
  3
Standard
 70
     0
 71
     0
 40
0.06
 41
0.06
280
     0
281
     0
  7
STANDARD
140
0.18
170
     2
 62
     0
 63
     7
283
     0
 90
      512
 91
        0
  1

274
    -2
284
     1
 64
     0
275
    -2
285
     1
 65
     0
276
    -2
286
     1
 66
     0
277
    -2
287
     1
 67
     0
278
    -2
288
     1
 68
     0
279
    -2
289
     1
 69
     0
  7
STANDARD
140
0.25
170
     5
 62
     0
 63
     7
283
     0
 90
      512
 91
        0
  1

274
    -2
284
     1
 64
     0
275
    -2
285
     1
 65
     0
276
    -2
286
     1
 66
     0
277
    -2
287
     1
 67
     0
278
    -2
288
     1
 68
     0
279
    -2
289
     1
 69
     0
  7
STANDARD
140
0.18
170
     5
 62
     0
 63
     7
283
     0
 90
      512
 91
        0
  1

274
    -2
284
     1
 64
     0
275
    -2
285
     1
 65
     0
276
    -2
286
     1
 66
     0
277
    -2
287
     1
 67
     0
278
    -2
288
     1
 68
     0
279
    -2
289
     1
 69
     0
  0
VISUALSTYLE
  5
142C
102
{ACAD_REACTORS
330
1426
102
}
330
1426
100
AcDbVisualStyle
  2
2dWireframe
 70
     4
177
     3
291
     0
 70
    58
 90
        0
176
     1
 90
        2
176
     1
 90
        0
176
     1
 90
        0
176
     1
 40
0.6
176
     1
 40
30.0
176
     1
 62
     7
420
 16777215
176
     1
 90
        1
176
     1
 90
        4
176
     1
 62
     7
176
     1
 62
   257
176
     1
 90
        1
176
     1
 90
        1
176
     1
 40
1.0
176
     1
 90
        0
176
     1
 62
   257
176
     1
 40
1.0
176
     1
 90
        1
176
     1
 90
        6
176
     1
 90
        2
176
     1
 62
     7
176
     1
 90
        5
176
     1
 90
        0
176
     1
 90
        0
176
     1
290
     0
176
     1
 90
        1
176
     1
 40
0.0
176
     1
 90
        0
176
     1
290
     1
176
     1
290
     1
176
     1
290
     0
176
     1
290
     0
176
     1
290
     0
176
     1
290
     0
176
     1
290
     0
176
     1
290
     0
176
     1
290
     0
176
     1
 90
       50
176
     1
 40
0.0
176
     1
 40
1.0
176
     1
 90
        0
176
     1
 62
    18
420
        0
176
     1
 90
       50
176
     1
 90
        3
176
     1
 62
     5
420
      255
176
     1
290
     0
176
     1
 90
       50
176
     1
 90
       50
176
     1
 90
       50
176
     1
290
     0
176
     1
 90
       50
176
     1
 62
   256
176
     0
 40
1.0
176
     0
 90
        2
176
     1
  1
strokes_ogs.tif
176
     1
290
     0
176
     1
 40
1.0
176
     1
 40
1.0
176
     1
  0
VISUALSTYLE
  5
142B
102
{ACAD_REACTORS
330
1426
102
}
330
1426
100
AcDbVisualStyle
  2
Basic
 70
     7
177
     3
291
     1
 70
    58
 90
        1
176
     1
 90
        0
176
     1
 90
        1
176
     1
 90
        0
176
     1
 40
0.6
176
     1
 40
30.0
176
     1
 62
     7
420
 16777215
176
     1
 90
        0
176
     1
 90
        4
176
     1
 62
     7
176
     1
 62
   257
176
     1
 90
        1
176
     1
 90
        1
176
     1
 40
1.0
176
     1
 90
        8
176
     1
 62
     7
176
     1
 40
1.0
176
     1
 90
        1
176
     1
 90
        6
176
     1
 90
        2
176
     1
 62
     7
176
     1
 90
        5
176
     1
 90
        0
176
     1
 90
        0
176
     1
290
     0
176
     1
 90
        1
176
     1
 40
0.0
176
     1
 90
        0
176
     1
290
     0
176
     1
290
     1
176
     1
290
     1
176
     1
290
     0
176
     1
290
     0
176
     1
290
     0
176
     1
290
     0
176
     1
290
     0
176
     1
290
     0
176
     1
 90
       50
176
     1
 40
0.0
176
     1
 40
1.0
176
     1
 90
        0
176
     1
 62
    18
420
        0
176
     1
 90
       50
176
     1
 90
        3
176
     1
 62
     5
420
      255
176
     1
290
     0
176
     1
 90
       50
176
     1
 90
       50
176
     1
 90
       50
176
     1
290
     0
176
     1
 90
       50
176
     1
 62
   256
176
     0
 40
1.0
176
     0
 90
        2
176
     1
  1
strokes_ogs.tif
176
     1
290
     0
176
     1
 40
1.0
176
     1
 40
1.0
176
     1
  0
VISUALSTYLE
  5
1432
102
{ACAD_REACTORS
330
1426
102
}
330
1426
100
AcDbVisualStyle
  2
Brighten
 70
    12
177
     3
291
     1
 70
    58
 90
        2
176
     1
 90
        2
176
     1
 90
        0
176
     1
 90
        0
176
     1
 40
0.6
176
     1
 40
30.0
176
     1
 62
     7
420
 16777215
176
     1
 90
        1
176
     1
 90
        4
176
     1
 62
     7
176
     1
 62
   257
176
     1
 90
        1
176
     1
 90
        1
176
     1
 40
1.0
176
     1
 90
        8
176
     1
 62
     7
176
     1
 40
1.0
176
     1
 90
        1
176
     1
 90
        6
176
     1
 90
        2
176
     1
 62
     7
176
     1
 90
        5
176
     1
 90
        0
176
     1
 90
        0
176
     1
290
     0
176
     1
 90
        1
176
     1
 40
50.0
176
     1
 90
        0
176
     1
290
     0
176
     1
290
     1
176
     1
290
     1
176
     1
290
     0
176
     1
290
     0
176
     1
290
     0
176
     1
290
     0
176
     1
290
     0
176
     1
290
     0
176
     1
 90
       50
176
     1
 40
0.0
176
     1
 40
1.0
176
     1
 90
        0
176
     1
 62
    18
420
        0
176
     1
 90
       50
176
     1
 90
        3
176
     1
 62
     5
420
      255
176
     1
290
     0
176
     1
 90
       50
176
     1
 90
       50
176
     1
 90
       50
176
     1
290
     0
176
     1
 90
       50
176
     1
 62
   256
176
     0
 40
1.0
176
     0
 90
        2
176
     1
  1
strokes_ogs.tif
176
     1
290
     0
176
     1
 40
1.0
176
     1
 40
1.0
176
     1
  0
VISUALSTYLE
  5
1436
102
{ACAD_REACTORS
330
1426
102
}
330
1426
100
AcDbVisualStyle
  2
ColorChange
 70
    16
177
     3
291
     1
 70
    58
 90
        2
176
     1
 90
        2
176
     1
 90
        3
176
     1
 90
        0
176
     1
 40
0.6
176
     1
 40
30.0
176
     1
 62
     8
420
  8421504
176
     1
 90
        1
176
     1
 90
        4
176
     1
 62
     7
176
     1
 62
   257
176
     1
 90
        1
176
     1
 90
        1
176
     1
 40
1.0
176
     1
 90
        8
176
     1
 62
     8
420
  8421504
176
     1
 40
1.0
176
     1
 90
        1
176
     1
 90
        6
176
     1
 90
        2
176
     1
 62
     7
176
     1
 90
        5
176
     1
 90
        0
176
     1
 90
        0
176
     1
290
     0
176
     1
 90
        1
176
     1
 40
0.0
176
     1
 90
        0
176
     1
290
     0
176
     1
290
     1
176
     1
290
     1
176
     1
290
     0
176
     1
290
     0
176
     1
290
     0
176
     1
290
     0
176
     1
290
     0
176
     1
290
     0
176
     1
 90
       50
176
     1
 40
0.0
176
     1
 40
1.0
176
     1
 90
        0
176
     1
 62
    18
420
        0
176
     1
 90
       50
176
     1
 90
        3
176
     1
 62
     5
420
      255
176
     1
290
     0
176
     1
 90
       50
176
     1
 90
       50
176
     1
 90
       50
176
     1
290
     0
176
     1
 90
       50
176
     1
 62
   256
176
     0
 40
1.0
176
     0
 90
        2
176
     1
  1
strokes_ogs.tif
176
     1
290
     0
176
     1
 40
1.0
176
     1
 40
1.0
176
     1
  0
VISUALSTYLE
  5
142F
102
{ACAD_REACTORS
330
1426
102
}
330
1426
100
AcDbVisualStyle
  2
Conceptual
 70
     9
177
     3
291
     0
 70
    58
 90
        3
176
     1
 90
        2
176
     1
 90
        0
176
     1
 90
        0
176
     1
 40
0.6
176
     1
 40
30.0
176
     1
 62
     7
420
 16777215
176
     1
 90
        2
176
     1
 90
        2
176
     1
 62
     7
176
     1
 62
   257
176
     1
 90
        1
176
     1
 90
        1
176
     1
 40
179.0
176
     1
 90
        8
176
     1
 62
     7
176
     1
 40
1.0
176
     1
 90
        1
176
     1
 90
        6
176
     1
 90
        2
176
     1
 62
     7
176
     1
 90
        3
176
     1
 90
        0
176
     1
 90
        0
176
     1
290
     0
176
     1
 90
        1
176
     1
 40
0.0
176
     1
 90
        0
176
     1
290
     0
176
     1
290
     1
176
     1
290
     1
176
     1
290
     0
176
     1
290
     0
176
     1
290
     0
176
     1
290
     0
176
     1
290
     0
176
     1
290
     0
176
     1
 90
       50
176
     1
 40
0.0
176
     1
 40
1.0
176
     1
 90
        0
176
     1
 62
    18
420
        0
176
     1
 90
       50
176
     1
 90
        3
176
     1
 62
     5
420
      255
176
     1
290
     0
176
     1
 90
       50
176
     1
 90
       50
176
     1
 90
       50
176
     1
290
     0
176
     1
 90
       50
176
     1
 62
   256
176
     0
 40
1.0
176
     0
 90
        2
176
     1
  1
strokes_ogs.tif
176
     1
290
     0
176
     1
 40
1.0
176
     1
 40
1.0
176
     1
  0
VISUALSTYLE
  5
1431
102
{ACAD_REACTORS
330
1426
102
}
330
1426
100
AcDbVisualStyle
  2
Dim
 70
    11
177
     3
291
     1
 70
    58
 90
        2
176
     1
 90
        2
176
     1
 90
        0
176
     1
 90
        0
176
     1
 40
0.6
176
     1
 40
30.0
176
     1
 62
     7
420
 16777215
176
     1
 90
        1
176
     1
 90
        4
176
     1
 62
     7
176
     1
 62
   257
176
     1
 90
        1
176
     1
 90
        1
176
     1
 40
1.0
176
     1
 90
        8
176
     1
 62
     7
176
     1
 40
1.0
176
     1
 90
        1
176
     1
 90
        6
176
     1
 90
        2
176
     1
 62
     7
176
     1
 90
        5
176
     1
 90
        0
176
     1
 90
        0
176
     1
290
     0
176
     1
 90
        1
176
     1
 40
-50.0
176
     1
 90
        0
176
     1
290
     0
176
     1
290
     1
176
     1
290
     1
176
     1
290
     0
176
     1
290
     0
176
     1
290
     0
176
     1
290
     0
176
     1
290
     0
176
     1
290
     0
176
     1
 90
       50
176
     1
 40
0.0
176
     1
 40
1.0
176
     1
 90
        0
176
     1
 62
    18
420
        0
176
     1
 90
       50
176
     1
 90
        3
176
     1
 62
     5
420
      255
176
     1
290
     0
176
     1
 90
       50
176
     1
 90
       50
176
     1
 90
       50
176
     1
290
     0
176
     1
 90
       50
176
     1
 62
   256
176
     0
 40
1.0
176
     0
 90
        2
176
     1
  1
strokes_ogs.tif
176
     1
290
     0
176
     1
 40
1.0
176
     1
 40
1.0
176
     1
  0
VISUALSTYLE
  5
143E
102
{ACAD_REACTORS
330
1426
102
}
330
1426
100
AcDbVisualStyle
  2
EdgeColorOff
 70
    22
177
     3
291
     1
 70
    58
 90
        2
176
     0
 90
        2
176
     0
 90
        0
176
     0
 90
        0
176
     0
 40
0.6
176
     0
 40
30.0
176
     0
 62
     7
420
 16777215
176
     0
 90
        1
176
     0
 90
        4
176
     0
 62
     7
176
     0
 62
   257
176
     0
 90
        1
176
     0
 90
        1
176
     0
 40
1.0
176
     0
 90
        8
176
     2
 62
     7
176
     0
 40
1.0
176
     0
 90
        1
176
     0
 90
        6
176
     0
 90
        2
176
     0
 62
     7
176
     0
 90
        5
176
     0
 90
        0
176
     0
 90
        0
176
     0
290
     0
176
     0
 90
        1
176
     0
 40
0.0
176
     0
 90
        0
176
     0
290
     0
176
     1
290
     1
176
     1
290
     1
176
     1
290
     0
176
     1
290
     0
176
     1
290
     0
176
     1
290
     0
176
     1
290
     0
176
     1
290
     0
176
     1
 90
       50
176
     0
 40
0.0
176
     0
 40
1.0
176
     0
 90
        0
176
     0
 62
    18
420
        0
176
     0
 90
       50
176
     0
 90
        3
176
     0
 62
     5
420
      255
176
     0
290
     0
176
     1
 90
       50
176
     0
 90
       50
176
     0
 90
       50
176
     0
290
     0
176
     1
 90
       50
176
     0
 62
   256
176
     0
 40
1.0
176
     0
 90
        2
176
     0
  1
strokes_ogs.tif
176
     0
290
     0
176
     1
 40
1.0
176
     0
 40
1.0
176
     0
  0
VISUALSTYLE
  5
1435
102
{ACAD_REACTORS
330
1426
102
}
330
1426
100
AcDbVisualStyle
  2
Facepattern
 70
    15
177
     3
291
     1
 70
    58
 90
        2
176
     1
 90
        2
176
     1
 90
        0
176
     1
 90
        0
176
     1
 40
0.6
176
     1
 40
30.0
176
     1
 62
     7
420
 16777215
176
     1
 90
        1
176
     1
 90
        4
176
     1
 62
     7
176
     1
 62
   257
176
     1
 90
        1
176
     1
 90
        1
176
     1
 40
1.0
176
     1
 90
        8
176
     1
 62
     7
176
     1
 40
1.0
176
     1
 90
        1
176
     1
 90
        6
176
     1
 90
        2
176
     1
 62
     7
176
     1
 90
        5
176
     1
 90
        0
176
     1
 90
        0
176
     1
290
     0
176
     1
 90
        1
176
     1
 40
0.0
176
     1
 90
        0
176
     1
290
     0
176
     1
290
     1
176
     1
290
     1
176
     1
290
     0
176
     1
290
     0
176
     1
290
     0
176
     1
290
     0
176
     1
290
     0
176
     1
290
     0
176
     1
 90
       50
176
     1
 40
0.0
176
     1
 40
1.0
176
     1
 90
        0
176
     1
 62
    18
420
        0
176
     1
 90
       50
176
     1
 90
        3
176
     1
 62
     5
420
      255
176
     1
290
     0
176
     1
 90
       50
176
     1
 90
       50
176
     1
 90
       50
176
     1
290
     0
176
     1
 90
       50
176
     1
 62
   256
176
     0
 40
1.0
176
     0
 90
        2
176
     1
  1
strokes_ogs.tif
176
     1
290
     0
176
     1
 40
1.0
176
     1
 40
1.0
176
     1
  0
VISUALSTYLE
  5
1427
102
{ACAD_REACTORS
330
1426
102
}
330
1426
100
AcDbVisualStyle
  2
Flat
 70
     0
177
     3
291
     1
 70
    58
 90
        2
176
     1
 90
        1
176
     1
 90
        1
176
     1
 90
        2
176
     1
 40
0.6
176
     1
 40
30.0
176
     1
 62
     7
420
 16777215
176
     1
 90
        0
176
     1
 90
        0
176
     1
 62
     7
176
     1
 62
   257
176
     1
 90
        1
176
     1
 90
        1
176
     1
 40
1.0
176
     1
 90
        8
176
     1
 62
     7
176
     1
 40
1.0
176
     1
 90
        1
176
     1
 90
        6
176
     1
 90
        2
176
     1
 62
     7
176
     1
 90
        5
176
     1
 90
        0
176
     1
 90
        0
176
     1
290
     0
176
     1
 90
       13
176
     1
 40
0.0
176
     1
 90
        0
176
     1
290
     0
176
     1
290
     1
176
     1
290
     1
176
     1
290
     0
176
     1
290
     0
176
     1
290
     0
176
     1
290
     0
176
     1
290
     0
176
     1
290
     0
176
     1
 90
       50
176
     1
 40
0.0
176
     1
 40
1.0
176
     1
 90
        0
176
     1
 62
    18
420
        0
176
     1
 90
       50
176
     1
 90
        3
176
     1
 62
     5
420
      255
176
     1
290
     0
176
     1
 90
       50
176
     1
 90
       50
176
     1
 90
       50
176
     1
290
     0
176
     1
 90
       50
176
     1
 62
   256
176
     0
 40
1.0
176
     0
 90
        2
176
     1
  1
strokes_ogs.tif
176
     1
290
     0
176
     1
 40
1.0
176
     1
 40
1.0
176
     1
  0
VISUALSTYLE
  5
1428
102
{ACAD_REACTORS
330
1426
102
}
330
1426
100
AcDbVisualStyle
  2
FlatWithEdges
 70
     1
177
     3
291
     1
 70
    58
 90
        2
176
     1
 90
        1
176
     1
 90
        1
176
     1
 90
        2
176
     1
 40
0.6
176
     1
 40
30.0
176
     1
 62
     7
420
 16777215
176
     1
 90
        1
176
     1
 90
        0
176
     1
 62
     7
176
     1
 62
   257
176
     1
 90
        1
176
     1
 90
        1
176
     1
 40
1.0
176
     1
 90
        0
176
     1
 62
   257
176
     1
 40
1.0
176
     1
 90
        1
176
     1
 90
        6
176
     1
 90
        2
176
     1
 62
     7
176
     1
 90
        5
176
     1
 90
        0
176
     1
 90
        0
176
     1
290
     0
176
     1
 90
       13
176
     1
 40
0.0
176
     1
 90
        0
176
     1
290
     0
176
     1
290
     1
176
     1
290
     1
176
     1
290
     0
176
     1
290
     0
176
     1
290
     0
176
     1
290
     0
176
     1
290
     0
176
     1
290
     0
176
     1
 90
       50
176
     1
 40
0.0
176
     1
 40
1.0
176
     1
 90
        0
176
     1
 62
    18
420
        0
176
     1
 90
       50
176
     1
 90
        3
176
     1
 62
     5
420
      255
176
     1
290
     0
176
     1
 90
       50
176
     1
 90
       50
176
     1
 90
       50
176
     1
290
     0
176
     1
 90
       50
176
     1
 62
   256
176
     0
 40
1.0
176
     0
 90
        2
176
     1
  1
strokes_ogs.tif
176
     1
290
     0
176
     1
 40
1.0
176
     1
 40
1.0
176
     1
  0
VISUALSTYLE
  5
1429
102
{ACAD_REACTORS
330
1426
102
}
330
1426
100
AcDbVisualStyle
  2
Gouraud
 70
     2
177
     3
291
     1
 70
    58
 90
        2
176
     1
 90
        2
176
     1
 90
        1
176
     1
 90
        2
176
     1
 40
0.6
176
     1
 40
30.0
176
     1
 62
     7
420
 16777215
176
     1
 90
        0
176
     1
 90
        0
176
     1
 62
     7
176
     1
 62
   257
176
     1
 90
        1
176
     1
 90
        1
176
     1
 40
1.0
176
     1
 90
        0
176
     1
 62
     7
176
     1
 40
1.0
176
     1
 90
        1
176
     1
 90
        6
176
     1
 90
        2
176
     1
 62
     7
176
     1
 90
        5
176
     1
 90
        0
176
     1
 90
        0
176
     1
290
     0
176
     1
 90
       13
176
     1
 40
0.0
176
     1
 90
        0
176
     1
290
     0
176
     1
290
     1
176
     1
290
     1
176
     1
290
     0
176
     1
290
     0
176
     1
290
     0
176
     1
290
     0
176
     1
290
     0
176
     1
290
     0
176
     1
 90
       50
176
     1
 40
0.0
176
     1
 40
1.0
176
     1
 90
        0
176
     1
 62
    18
420
        0
176
     1
 90
       50
176
     1
 90
        3
176
     1
 62
     5
420
      255
176
     1
290
     0
176
     1
 90
       50
176
     1
 90
       50
176
     1
 90
       50
176
     1
290
     0
176
     1
 90
       50
176
     1
 62
   256
176
     0
 40
1.0
176
     0
 90
        2
176
     1
  1
strokes_ogs.tif
176
     1
290
     0
176
     1
 40
1.0
176
     1
 40
1.0
176
     1
  0
VISUALSTYLE
  5
142A
102
{ACAD_REACTORS
330
1426
102
}
330
1426
100
AcDbVisualStyle
  2
GouraudWithEdges
 70
     3
177
     3
291
     1
 70
    58
 90
        2
176
     1
 90
        2
176
     1
 90
        1
176
     1
 90
        2
176
     1
 40
0.6
176
     1
 40
30.0
176
     1
 62
     7
420
 16777215
176
     1
 90
        1
176
     1
 90
        0
176
     1
 62
     7
176
     1
 62
   257
176
     1
 90
        1
176
     1
 90
        1
176
     1
 40
1.0
176
     1
 90
        0
176
     1
 62
   257
176
     1
 40
1.0
176
     1
 90
        1
176
     1
 90
        6
176
     1
 90
        2
176
     1
 62
     7
176
     1
 90
        5
176
     1
 90
        0
176
     1
 90
        0
176
     1
290
     0
176
     1
 90
       13
176
     1
 40
0.0
176
     1
 90
        0
176
     1
290
     0
176
     1
290
     1
176
     1
290
     1
176
     1
290
     0
176
     1
290
     0
176
     1
290
     0
176
     1
290
     0
176
     1
290
     0
176
     1
290
     0
176
     1
 90
       50
176
     1
 40
0.0
176
     1
 40
1.0
176
     1
 90
        0
176
     1
 62
    18
420
        0
176
     1
 90
       50
176
     1
 90
        3
176
     1
 62
     5
420
      255
176
     1
290
     0
176
     1
 90
       50
176
     1
 90
       50
176
     1
 90
       50
176
     1
290
     0
176
     1
 90
       50
176
     1
 62
   256
176
     0
 40
1.0
176
     0
 90
        2
176
     1
  1
strokes_ogs.tif
176
     1
290
     0
176
     1
 40
1.0
176
     1
 40
1.0
176
     1
  0
VISUALSTYLE
  5
142E
102
{ACAD_REACTORS
330
1426
102
}
330
1426
100
AcDbVisualStyle
  2
Hidden
 70
     6
177
     3
291
     0
 70
    58
 90
        1
176
     1
 90
        2
176
     1
 90
        2
176
     1
 90
        0
176
     1
 40
0.6
176
     1
 40
30.0
176
     1
 62
     7
420
 16777215
176
     1
 90
        2
176
     1
 90
        2
176
     1
 62
     7
176
     1
 62
   257
176
     1
 90
        2
176
     1
 90
        1
176
     1
 40
40.0
176
     1
 90
        0
176
     1
 62
   257
176
     1
 40
1.0
176
     1
 90
        1
176
     1
 90
        6
176
     1
 90
        2
176
     1
 62
     7
176
     1
 90
        3
176
     1
 90
        0
176
     1
 90
        0
176
     1
290
     0
176
     1
 90
        1
176
     1
 40
0.0
176
     1
 90
        0
176
     1
290
     0
176
     1
290
     1
176
     1
290
     1
176
     1
290
     0
176
     1
290
     0
176
     1
290
     0
176
     1
290
     0
176
     1
290
     0
176
     1
290
     0
176
     1
 90
       50
176
     1
 40
0.0
176
     1
 40
1.0
176
     1
 90
        0
176
     1
 62
    18
420
        0
176
     1
 90
       50
176
     1
 90
        3
176
     1
 62
     5
420
      255
176
     1
290
     0
176
     1
 90
       50
176
     1
 90
       50
176
     1
 90
       50
176
     1
290
     0
176
     1
 90
       50
176
     1
 62
   256
176
     0
 40
1.0
176
     0
 90
        2
176
     1
  1
strokes_ogs.tif
176
     1
290
     0
176
     1
 40
1.0
176
     1
 40
1.0
176
     1
  0
VISUALSTYLE
  5
143C
102
{ACAD_REACTORS
330
1426
102
}
330
1426
100
AcDbVisualStyle
  2
JitterOff
 70
    20
177
     3
291
     1
 70
    58
 90
        2
176
     0
 90
        2
176
     0
 90
        0
176
     0
 90
        0
176
     0
 40
0.6
176
     0
 40
30.0
176
     0
 62
     7
420
 16777215
176
     0
 90
        1
176
     0
 90
        4
176
     0
 62
     7
176
     0
 62
   257
176
     0
 90
        1
176
     0
 90
        1
176
     0
 40
1.0
176
     0
 90
       10
176
     2
 62
     7
176
     0
 40
1.0
176
     0
 90
        1
176
     0
 90
        6
176
     0
 90
        2
176
     0
 62
     7
176
     0
 90
        5
176
     0
 90
        0
176
     0
 90
        0
176
     0
290
     0
176
     0
 90
        1
176
     0
 40
0.0
176
     0
 90
        0
176
     0
290
     0
176
     1
290
     1
176
     1
290
     1
176
     1
290
     0
176
     1
290
     0
176
     1
290
     0
176
     1
290
     0
176
     1
290
     0
176
     1
290
     0
176
     1
 90
       50
176
     0
 40
0.0
176
     0
 40
1.0
176
     0
 90
        0
176
     0
 62
    18
420
        0
176
     0
 90
       50
176
     0
 90
        3
176
     0
 62
     5
420
      255
176
     0
290
     0
176
     1
 90
       50
176
     0
 90
       50
176
     0
 90
       50
176
     0
290
     0
176
     1
 90
       50
176
     0
 62
   256
176
     0
 40
1.0
176
     0
 90
        2
176
     0
  1
strokes_ogs.tif
176
     0
290
     0
176
     1
 40
1.0
176
     0
 40
1.0
176
     0
  0
VISUALSTYLE
  5
1434
102
{ACAD_REACTORS
330
1426
102
}
330
1426
100
AcDbVisualStyle
  2
Linepattern
 70
    14
177
     3
291
     1
 70
    58
 90
        2
176
     1
 90
        2
176
     1
 90
        0
176
     1
 90
        0
176
     1
 40
0.6
176
     1
 40
30.0
176
     1
 62
     7
420
 16777215
176
     1
 90
        1
176
     1
 90
        4
176
     1
 62
     7
176
     1
 62
   257
176
     1
 90
        7
176
     1
 90
        7
176
     1
 40
1.0
176
     1
 90
        8
176
     1
 62
     7
176
     1
 40
1.0
176
     1
 90
        1
176
     1
 90
        6
176
     1
 90
        2
176
     1
 62
     7
176
     1
 90
        5
176
     1
 90
        0
176
     1
 90
        0
176
     1
290
     0
176
     1
 90
        1
176
     1
 40
0.0
176
     1
 90
        0
176
     1
290
     0
176
     1
290
     1
176
     1
290
     1
176
     1
290
     0
176
     1
290
     0
176
     1
290
     0
176
     1
290
     0
176
     1
290
     0
176
     1
290
     0
176
     1
 90
       50
176
     1
 40
0.0
176
     1
 40
1.0
176
     1
 90
        0
176
     1
 62
    18
420
        0
176
     1
 90
       50
176
     1
 90
        3
176
     1
 62
     5
420
      255
176
     1
290
     0
176
     1
 90
       50
176
     1
 90
       50
176
     1
 90
       50
176
     1
290
     0
176
     1
 90
       50
176
     1
 62
   256
176
     0
 40
1.0
176
     0
 90
        2
176
     1
  1
strokes_ogs.tif
176
     1
290
     0
176
     1
 40
1.0
176
     1
 40
1.0
176
     1
  0
VISUALSTYLE
  5
143D
102
{ACAD_REACTORS
330
1426
102
}
330
1426
100
AcDbVisualStyle
  2
OverhangOff
 70
    21
177
     3
291
     1
 70
    58
 90
        2
176
     0
 90
        2
176
     0
 90
        0
176
     0
 90
        0
176
     0
 40
0.6
176
     0
 40
30.0
176
     0
 62
     7
420
 16777215
176
     0
 90
        1
176
     0
 90
        4
176
     0
 62
     7
176
     0
 62
   257
176
     0
 90
        1
176
     0
 90
        1
176
     0
 40
1.0
176
     0
 90
        9
176
     2
 62
     7
176
     0
 40
1.0
176
     0
 90
        1
176
     0
 90
        6
176
     0
 90
        2
176
     0
 62
     7
176
     0
 90
        5
176
     0
 90
        0
176
     0
 90
        0
176
     0
290
     0
176
     0
 90
        1
176
     0
 40
0.0
176
     0
 90
        0
176
     0
290
     0
176
     1
290
     1
176
     1
290
     1
176
     1
290
     0
176
     1
290
     0
176
     1
290
     0
176
     1
290
     0
176
     1
290
     0
176
     1
290
     0
176
     1
 90
       50
176
     0
 40
0.0
176
     0
 40
1.0
176
     0
 90
        0
176
     0
 62
    18
420
        0
176
     0
 90
       50
176
     0
 90
        3
176
     0
 62
     5
420
      255
176
     0
290
     0
176
     1
 90
       50
176
     0
 90
       50
176
     0
 90
       50
176
     0
290
     0
176
     1
 90
       50
176
     0
 62
   256
176
     0
 40
1.0
176
     0
 90
        2
176
     0
  1
strokes_ogs.tif
176
     0
290
     0
176
     1
 40
1.0
176
     0
 40
1.0
176
     0
  0
VISUALSTYLE
  5
1430
102
{ACAD_REACTORS
330
1426
102
}
330
1426
100
AcDbVisualStyle
  2
Realistic
 70
     8
177
     3
291
     0
 70
    58
 90
        2
176
     1
 90
        3
176
     1
 90
        0
176
     1
 90
        2
176
     1
 40
0.6
176
     1
 40
30.0
176
     1
 62
     7
420
 16777215
176
     1
 90
        0
176
     1
 90
        0
176
     1
 62
     7
176
     1
 62
   257
176
     1
 90
        1
176
     1
 90
        1
176
     1
 40
1.0
176
     1
 90
        8
176
     1
 62
   257
176
     1
 40
1.0
176
     1
 90
        1
176
     1
 90
        6
176
     1
 90
        2
176
     1
 62
     7
176
     1
 90
        3
176
     1
 90
        0
176
     1
 90
        0
176
     1
290
     0
176
     1
 90
       13
176
     1
 40
0.0
176
     1
 90
        0
176
     1
290
     0
176
     1
290
     1
176
     1
290
     1
176
     1
290
     0
176
     1
290
     0
176
     1
290
     0
176
     1
290
     0
176
     1
290
     0
176
     1
290
     0
176
     1
 90
       50
176
     1
 40
0.0
176
     1
 40
1.0
176
     1
 90
        0
176
     1
 62
    18
420
        0
176
     1
 90
       50
176
     1
 90
        3
176
     1
 62
     5
420
      255
176
     1
290
     0
176
     1
 90
       50
176
     1
 90
       50
176
     1
 90
       50
176
     1
290
     0
176
     1
 90
       50
176
     1
 62
   256
176
     0
 40
1.0
176
     0
 90
        2
176
     1
  1
strokes_ogs.tif
176
     1
290
     0
176
     1
 40
1.0
176
     1
 40
1.0
176
     1
  0
VISUALSTYLE
  5
143B
102
{ACAD_REACTORS
330
1426
102
}
330
1426
100
AcDbVisualStyle
  2
Shaded
 70
    27
177
     3
291
     0
 70
    58
 90
        2
176
     1
 90
        2
176
     1
 90
        1
176
     1
 90
        2
176
     1
 40
0.6
176
     1
 40
30.0
176
     1
 62
     7
420
 16777215
176
     1
 90
        0
176
     1
 90
        4
176
     1
 62
     7
176
     1
 62
   257
176
     1
 90
        1
176
     1
 90
        1
176
     1
 40
1.0
176
     1
 90
        8
176
     1
 62
   257
176
     1
 40
1.0
176
     1
 90
        1
176
     1
 90
        6
176
     1
 90
        2
176
     1
 62
     8
420
  7895160
176
     1
 90
        3
176
     1
 90
        0
176
     1
 90
        0
176
     1
290
     0
176
     1
 90
        5
176
     1
 40
0.0
176
     1
 90
        0
176
     1
290
     0
176
     1
290
     1
176
     1
290
     1
176
     1
290
     0
176
     1
290
     0
176
     1
290
     0
176
     1
290
     0
176
     1
290
     0
176
     1
290
     0
176
     1
 90
       50
176
     1
 40
0.0
176
     1
 40
1.0
176
     1
 90
        0
176
     1
 62
    18
420
        0
176
     1
 90
       50
176
     1
 90
        3
176
     1
 62
     5
420
      255
176
     1
290
     0
176
     1
 90
       50
176
     1
 90
       50
176
     1
 90
       50
176
     1
290
     0
176
     1
 90
       50
176
     1
 62
   256
176
     0
 40
1.0
176
     0
 90
        2
176
     1
  1
strokes_ogs.tif
176
     1
290
     0
176
     1
 40
1.0
176
     1
 40
1.0
176
     1
  0
VISUALSTYLE
  5
143A
102
{ACAD_REACTORS
330
1426
102
}
330
1426
100
AcDbVisualStyle
  2
Shaded with edges
 70
    26
177
     3
291
     0
 70
    58
 90
        2
176
     1
 90
        2
176
     1
 90
        1
176
     1
 90
        2
176
     1
 40
0.6
176
     1
 40
30.0
176
     1
 62
     7
420
 16777215
176
     1
 90
        1
176
     1
 90
        2
176
     1
 62
     7
176
     1
 62
   257
176
     1
 90
        2
176
     1
 90
        1
176
     1
 40
1.0
176
     1
 90
        8
176
     1
 62
   257
176
     1
 40
1.0
176
     1
 90
        1
176
     1
 90
        6
176
     1
 90
        2
176
     1
 62
     7
176
     1
 90
        3
176
     1
 90
        0
176
     1
 90
        0
176
     1
290
     0
176
     1
 90
        5
176
     1
 40
0.0
176
     1
 90
        0
176
     1
290
     0
176
     1
290
     1
176
     1
290
     1
176
     1
290
     0
176
     1
290
     0
176
     1
290
     0
176
     1
290
     0
176
     1
290
     0
176
     1
290
     0
176
     1
 90
       50
176
     1
 40
0.0
176
     1
 40
1.0
176
     1
 90
        0
176
     1
 62
    18
420
        0
176
     1
 90
       50
176
     1
 90
        3
176
     1
 62
     5
420
      255
176
     1
290
     0
176
     1
 90
       50
176
     1
 90
       50
176
     1
 90
       50
176
     1
290
     0
176
     1
 90
       50
176
     1
 62
   256
176
     0
 40
1.0
176
     0
 90
        2
176
     1
  1
strokes_ogs.tif
176
     1
290
     0
176
     1
 40
1.0
176
     1
 40
1.0
176
     1
  0
VISUALSTYLE
  5
1437
102
{ACAD_REACTORS
330
1426
102
}
330
1426
100
AcDbVisualStyle
  2
Shades of Gray
 70
    23
177
     3
291
     0
 70
    58
 90
        2
176
     1
 90
        2
176
     1
 90
        3
176
     1
 90
        0
176
     1
 40
0.6
176
     1
 40
30.0
176
     1
 62
     7
420
 16777215
176
     1
 90
        2
176
     1
 90
        2
176
     1
 62
     7
176
     1
 62
     7
176
     1
 90
        1
176
     1
 90
        1
176
     1
 40
40.0
176
     1
 90
        8
176
     1
 62
     7
176
     1
 40
1.0
176
     1
 90
        1
176
     1
 90
        6
176
     1
 90
        2
176
     1
 62
     7
176
     1
 90
        3
176
     1
 90
        0
176
     1
 90
        0
176
     1
290
     0
176
     1
 90
        1
176
     1
 40
0.0
176
     1
 90
        0
176
     1
290
     0
176
     1
290
     1
176
     1
290
     1
176
     1
290
     0
176
     1
290
     0
176
     1
290
     0
176
     1
290
     0
176
     1
290
     0
176
     1
290
     0
176
     1
 90
       50
176
     1
 40
0.0
176
     1
 40
1.0
176
     1
 90
        0
176
     1
 62
    18
420
        0
176
     1
 90
       50
176
     1
 90
        3
176
     1
 62
     5
420
      255
176
     1
290
     0
176
     1
 90
       50
176
     1
 90
       50
176
     1
 90
       50
176
     1
290
     0
176
     1
 90
       50
176
     1
 62
   256
176
     0
 40
1.0
176
     0
 90
        2
176
     1
  1
strokes_ogs.tif
176
     1
290
     0
176
     1
 40
1.0
176
     1
 40
1.0
176
     1
  0
VISUALSTYLE
  5
1438
102
{ACAD_REACTORS
330
1426
102
}
330
1426
100
AcDbVisualStyle
  2
Sketchy
 70
    24
177
     3
291
     0
 70
    58
 90
        1
176
     1
 90
        2
176
     1
 90
        2
176
     1
 90
        0
176
     1
 40
0.6
176
     1
 40
30.0
176
     1
 62
     7
420
 16777215
176
     1
 90
        2
176
     1
 90
        2
176
     1
 62
     7
176
     1
 62
     7
176
     1
 90
        1
176
     1
 90
        1
176
     1
 40
40.0
176
     1
 90
       11
176
     1
 62
     7
176
     1
 40
1.0
176
     1
 90
        1
176
     1
 90
        6
176
     1
 90
        2
176
     1
 62
     7
176
     1
 90
        6
176
     1
 90
        0
176
     1
 90
        0
176
     1
290
     0
176
     1
 90
        1
176
     1
 40
0.0
176
     1
 90
        0
176
     1
290
     0
176
     1
290
     1
176
     1
290
     1
176
     1
290
     0
176
     1
290
     0
176
     1
290
     0
176
     1
290
     0
176
     1
290
     0
176
     1
290
     0
176
     1
 90
       50
176
     1
 40
0.0
176
     1
 40
1.0
176
     1
 90
        0
176
     1
 62
    18
420
        0
176
     1
 90
       50
176
     1
 90
        3
176
     1
 62
     5
420
      255
176
     1
290
     0
176
     1
 90
       50
176
     1
 90
       50
176
     1
 90
       50
176
     1
290
     0
176
     1
 90
       50
176
     1
 62
   256
176
     0
 40
1.0
176
     0
 90
        2
176
     1
  1
strokes_ogs.tif
176
     1
290
     0
176
     1
 40
1.0
176
     1
 40
1.0
176
     1
  0
VISUALSTYLE
  5
1433
102
{ACAD_REACTORS
330
1426
102
}
330
1426
100
AcDbVisualStyle
  2
Thicken
 70
    13
177
     3
291
     1
 70
    58
 90
        2
176
     1
 90
        2
176
     1
 90
        0
176
     1
 90
        0
176
     1
 40
0.6
176
     1
 40
30.0
176
     1
 62
     7
420
 16777215
176
     1
 90
        1
176
     1
 90
        4
176
     1
 62
     7
176
     1
 62
   257
176
     1
 90
        1
176
     1
 90
        1
176
     1
 40
1.0
176
     1
 90
       12
176
     1
 62
     7
176
     1
 40
1.0
176
     1
 90
        1
176
     1
 90
        6
176
     1
 90
        2
176
     1
 62
     7
176
     1
 90
        5
176
     1
 90
        0
176
     1
 90
        0
176
     1
290
     0
176
     1
 90
        1
176
     1
 40
0.0
176
     1
 90
        0
176
     1
290
     0
176
     1
290
     1
176
     1
290
     1
176
     1
290
     0
176
     1
290
     0
176
     1
290
     0
176
     1
290
     0
176
     1
290
     0
176
     1
290
     0
176
     1
 90
       50
176
     1
 40
0.0
176
     1
 40
1.0
176
     1
 90
        0
176
     1
 62
    18
420
        0
176
     1
 90
       50
176
     1
 90
        3
176
     1
 62
     5
420
      255
176
     1
290
     0
176
     1
 90
       50
176
     1
 90
       50
176
     1
 90
       50
176
     1
290
     0
176
     1
 90
       50
176
     1
 62
   256
176
     0
 40
1.0
176
     0
 90
        2
176
     1
  1
strokes_ogs.tif
176
     1
290
     0
176
     1
 40
1.0
176
     1
 40
1.0
176
     1
  0
VISUALSTYLE
  5
142D
102
{ACAD_REACTORS
330
1426
102
}
330
1426
100
AcDbVisualStyle
  2
Wireframe
 70
     5
177
     3
291
     0
 70
    58
 90
        0
176
     1
 90
        2
176
     1
 90
        0
176
     1
 90
        0
176
     1
 40
0.6
176
     1
 40
30.0
176
     1
 62
     7
420
 16777215
176
     1
 90
        1
176
     1
 90
        4
176
     1
 62
     7
176
     1
 62
   257
176
     1
 90
        1
176
     1
 90
        1
176
     1
 40
1.0
176
     1
 90
        0
176
     1
 62
   257
176
     1
 40
1.0
176
     1
 90
        1
176
     1
 90
        6
176
     1
 90
        2
176
     1
 62
     7
176
     1
 90
        3
176
     1
 90
        0
176
     1
 90
        0
176
     1
290
     0
176
     1
 90
        1
176
     1
 40
0.0
176
     1
 90
        0
176
     1
290
     0
176
     1
290
     1
176
     1
290
     1
176
     1
290
     0
176
     1
290
     0
176
     1
290
     0
176
     1
290
     0
176
     1
290
     0
176
     1
290
     0
176
     1
 90
       50
176
     1
 40
0.0
176
     1
 40
1.0
176
     1
 90
        0
176
     1
 62
    18
420
        0
176
     1
 90
       50
176
     1
 90
        3
176
     1
 62
     5
420
      255
176
     1
290
     0
176
     1
 90
       50
176
     1
 90
       50
176
     1
 90
       50
176
     1
290
     0
176
     1
 90
       50
176
     1
 62
   256
176
     0
 40
1.0
176
     0
 90
        2
176
     1
  1
strokes_ogs.tif
176
     1
290
     0
176
     1
 40
1.0
176
     1
 40
1.0
176
     1
  0
VISUALSTYLE
  5
1439
102
{ACAD_REACTORS
330
1426
102
}
330
1426
100
AcDbVisualStyle
  2
X-Ray
 70
    25
177
     3
291
     0
 70
    58
 90
        2
176
     1
 90
        2
176
     1
 90
        1
176
     1
 90
        1
176
     1
 40
0.5
176
     1
 40
30.0
176
     1
 62
     7
420
 16777215
176
     1
 90
        1
176
     1
 90
        0
176
     1
 62
     7
176
     1
 62
   257
176
     1
 90
        1
176
     1
 90
        1
176
     1
 40
1.0
176
     1
 90
        8
176
     1
 62
     7
176
     1
 40
1.0
176
     1
 90
        1
176
     1
 90
        6
176
     1
 90
        2
176
     1
 62
     7
176
     1
 90
        3
176
     1
 90
        0
176
     1
 90
        0
176
     1
290
     0
176
     1
 90
       13
176
     1
 40
0.0
176
     1
 90
        0
176
     1
290
     0
176
     1
290
     1
176
     1
290
     1
176
     1
290
     0
176
     1
290
     0
176
     1
290
     0
176
     1
290
     0
176
     1
290
     0
176
     1
290
     0
176
     1
 90
       50
176
     1
 40
0.0
176
     1
 40
1.0
176
     1
 90
        0
176
     1
 62
    18
420
        0
176
     1
 90
       50
176
     1
 90
        3
176
     1
 62
     5
420
      255
176
     1
290
     0
176
     1
 90
       50
176
     1
 90
       50
176
     1
 90
       50
176
     1
290
     0
176
     1
 90
       50
176
     1
 62
   256
176
     0
 40
1.0
176
     0
 90
        2
176
     1
  1
strokes_ogs.tif
176
     1
290
     0
176
     1
 40
1.0
176
     1
 40
1.0
176
     1
  0
DICTIONARYVAR
  5
14F5
102
{ACAD_REACTORS
330
14EF
102
}
330
14EF
100
DictionaryVariables
280
     0
  1
1:1
  0
DICTIONARYVAR
  5
14F1
102
{ACAD_REACTORS
330
14EF
102
}
330
14EF
100
DictionaryVariables
280
     0
  1
STANDARD
  0
DICTIONARYVAR
  5
14F0
102
{ACAD_REACTORS
330
14EF
102
}
330
14EF
100
DictionaryVariables
280
     0
  1
STANDARD
  0
DICTIONARYVAR
  5
14F2
102
{ACAD_REACTORS
330
14EF
102
}
330
14EF
100
DictionaryVariables
280
     0
  1
Imperial24
  0
DICTIONARYVAR
  5
14F3
102
{ACAD_REACTORS
330
14EF
102
}
330
14EF
100
DictionaryVariables
280
     0
  1
Imperial24
  0
DICTIONARYVAR
  5
14F7
102
{ACAD_REACTORS
330
14EF
102
}
330
14EF
100
DictionaryVariables
280
     0
  1
1
  0
DICTIONARYVAR
  5
14F8
102
{ACAD_REACTORS
330
14EF
102
}
330
14EF
100
DictionaryVariables
280
     0
  1
15
  0
DICTIONARYVAR
  5
14F6
102
{ACAD_REACTORS
330
14EF
102
}
330
14EF
100
DictionaryVariables
280
     0
  1
0
  0
DICTIONARYVAR
  5
14F4
102
{ACAD_REACTORS
330
14EF
102
}
330
14EF
100
DictionaryVariables
280
     0
  1
0
  0
DICTIONARY
  5
152F
330
1467
100
AcDbDictionary
280
     1
281
     1
  3
ACAD_XREC_ROUNDTRIP
360
1530
  0
DICTIONARY
  5
1417
330
1416
100
AcDbDictionary
280
     1
281
     1
  3
BUMPTILE
360
1419
  3
DIFFUSETILE
360
1418
  3
OPACITYTILE
360
141C
  3
REFLECTIONTILE
360
141B
  3
REFRACTIONTILE
360
141D
  3
SPECULARTILE
360
141A
  0
DICTIONARY
  5
140F
330
140E
100
AcDbDictionary
280
     1
281
     1
  3
BUMPTILE
360
1411
  3
DIFFUSETILE
360
1410
  3
OPACITYTILE
360
1414
  3
REFLECTIONTILE
360
1413
  3
REFRACTIONTILE
360
1415
  3
SPECULARTILE
360
1412
  0
DICTIONARY
  5
141F
330
141E
100
AcDbDictionary
280
     1
281
     1
  3
BUMPTILE
360
1421
  3
DIFFUSETILE
360
1420
  3
OPACITYTILE
360
1424
  3
REFLECTIONTILE
360
1423
  3
REFRACTIONTILE
360
1425
  3
SPECULARTILE
360
1422
  0
DICTIONARY
  5
152D
330
1465
100
AcDbDictionary
280
     1
281
     1
  3
ACAD_XREC_ROUNDTRIP
360
152E
  0
DICTIONARY
  5
152B
330
1461
100
AcDbDictionary
280
     1
281
     1
  3
ACAD_ROUNDTRIP_2008_TABLESTYLE_CELLSTYLEMAP
360
152C
  0
XRECORD
  5
1530
102
{ACAD_REACTORS
330
152F
102
}
330
152F
100
AcDbXrecord
280
     1
102
DISPLAYNAME
  1
Imperial24
102
FLAGS
 90
        0
  0
XRECORD
  5
1419
102
{ACAD_REACTORS
330
1417
102
}
330
1417
100
AcDbXrecord
280
     1
270
     1
271
     1
  0
XRECORD
  5
1418
102
{ACAD_REACTORS
330
1417
102
}
330
1417
100
AcDbXrecord
280
     1
270
     1
271
     1
  0
XRECORD
  5
141C
102
{ACAD_REACTORS
330
1417
102
}
330
1417
100
AcDbXrecord
280
     1
270
     1
271
     1
  0
XRECORD
  5
141B
102
{ACAD_REACTORS
330
1417
102
}
330
1417
100
AcDbXrecord
280
     1
270
     1
271
     1
  0
XRECORD
  5
141D
102
{ACAD_REACTORS
330
1417
102
}
330
1417
100
AcDbXrecord
280
     1
270
     1
271
     1
  0
XRECORD
  5
141A
102
{ACAD_REACTORS
330
1417
102
}
330
1417
100
AcDbXrecord
280
     1
270
     1
271
     1
  0
XRECORD
  5
1411
102
{ACAD_REACTORS
330
140F
102
}
330
140F
100
AcDbXrecord
280
     1
270
     1
271
     1
  0
XRECORD
  5
1410
102
{ACAD_REACTORS
330
140F
102
}
330
140F
100
AcDbXrecord
280
     1
270
     1
271
     1
  0
XRECORD
  5
1414
102
{ACAD_REACTORS
330
140F
102
}
330
140F
100
AcDbXrecord
280
     1
270
     1
271
     1
  0
XRECORD
  5
1413
102
{ACAD_REACTORS
330
140F
102
}
330
140F
100
AcDbXrecord
280
     1
270
     1
271
     1
  0
XRECORD
  5
1415
102
{ACAD_REACTORS
330
140F
102
}
330
140F
100
AcDbXrecord
280
     1
270
     1
271
     1
  0
XRECORD
  5
1412
102
{ACAD_REACTORS
330
140F
102
}
330
140F
100
AcDbXrecord
280
     1
270
     1
271
     1
  0
XRECORD
  5
1421
102
{ACAD_REACTORS
330
141F
102
}
330
141F
100
AcDbXrecord
280
     1
270
     1
271
     1
  0
XRECORD
  5
1420
102
{ACAD_REACTORS
330
141F
102
}
330
141F
100
AcDbXrecord
280
     1
270
     1
271
     1
  0
XRECORD
  5
1424
102
{ACAD_REACTORS
330
141F
102
}
330
141F
100
AcDbXrecord
280
     1
270
     1
271
     1
  0
XRECORD
  5
1423
102
{ACAD_REACTORS
330
141F
102
}
330
141F
100
AcDbXrecord
280
     1
270
     1
271
     1
  0
XRECORD
  5
1425
102
{ACAD_REACTORS
330
141F
102
}
330
141F
100
AcDbXrecord
280
     1
270
     1
271
     1
  0
XRECORD
  5
1422
102
{ACAD_REACTORS
330
141F
102
}
330
141F
100
AcDbXrecord
280
     1
270
     1
271
     1
  0
XRECORD
  5
152E
102
{ACAD_REACTORS
330
152D
102
}
330
152D
100
AcDbXrecord
280
     1
102
DISPLAYNAME
  1
Imperial24
102
FLAGS
 90
        0
  0
CELLSTYLEMAP
  5
152C
102
{ACAD_REACTORS
330
152B
102
}
330
152B
100
AcDbCellStyleMap
 90
        3
300
CELLSTYLE
  1
TABLEFORMAT_BEGIN
 90
        5
170
     1
 91
        0
 92
    32768
 62
   257
 93
        1
300
CONTENTFORMAT
  1
CONTENTFORMAT_BEGIN
 90
        0
 91
        0
 92
      512
 93
        0
300

 40
0.0
140
1.0
 94
        5
 62
     0
340
1452
144
0.25
309
CONTENTFORMAT_END
171
     0
 94
        0
309
TABLEFORMAT_END
  1
CELLSTYLE_BEGIN
 90
        1
 91
        1
300
_TITLE
309
CELLSTYLE_END
300
CELLSTYLE
  1
TABLEFORMAT_BEGIN
 90
        5
170
     1
 91
        0
 92
        0
 62
   257
 93
        1
300
CONTENTFORMAT
  1
CONTENTFORMAT_BEGIN
 90
        0
 91
        0
 92
      512
 93
        0
300

 40
0.0
140
1.0
 94
        5
 62
     0
340
1452
144
0.18
309
CONTENTFORMAT_END
171
     0
 94
        0
309
TABLEFORMAT_END
  1
CELLSTYLE_BEGIN
 90
        2
 91
        1
300
_HEADER
309
CELLSTYLE_END
300
CELLSTYLE
  1
TABLEFORMAT_BEGIN
 90
        5
170
     1
 91
        0
 92
        0
 62
   257
 93
        1
300
CONTENTFORMAT
  1
CONTENTFORMAT_BEGIN
 90
        0
 91
        0
 92
      512
 93
        0
300

 40
0.0
140
1.0
 94
        2
 62
     0
340
1452
144
0.18
309
CONTENTFORMAT_END
171
     0
 94
        0
309
TABLEFORMAT_END
  1
CELLSTYLE_BEGIN
 90
        3
 91
        2
300
_DATA
309
CELLSTYLE_END
  0
ENDSEC
  0
SECTION
  2
ACDSDATA
 70
     2
 71
     8
  0
ACDSSCHEMA
 90
        0
  1
AcDb_Thumbnail_Schema
  2
AcDbDs::ID
280
    10
 91
        8
  2
Thumbnail_Data
280
    15
 91
        0
101
ACDSRECORD
 95
        0
 90
        1
  2
AcDbDs::TreatedAsObjectData
280
     1
291
     1
101
ACDSRECORD
 95
        0
 90
        2
  2
AcDbDs::Legacy
280
     1
291
     1
101
ACDSRECORD
  1
AcDbDs::ID
 90
        3
  2
AcDs:Indexable
280
     1
291
     1
101
ACDSRECORD
  1
AcDbDs::ID
 90
        4
  2
AcDbDs::HandleAttribute
280
     7
282
     1
  0
ACDSSCHEMA
 90
        1
  1
AcDbDs::TreatedAsObjectDataSchema
  2
AcDbDs::TreatedAsObjectData
280
     1
 91
        0
  0
ACDSSCHEMA
 90
        2
  1
AcDbDs::LegacySchema
  2
AcDbDs::Legacy
280
     1
 91
        0
  0
ACDSSCHEMA
 90
        3
  1
AcDbDs::IndexedPropertySchema
  2
AcDs:Indexable
280
     1
 91
        0
  0
ACDSSCHEMA
 90
        4
  1
AcDbDs::HandleAttributeSchema
  2
AcDbDs::HandleAttribute
280
     7
 91
        1
284
     1
  0
ACDSRECORD
 90
        0
  2
AcDbDs::ID
280
    10
320
146F
  2
Thumbnail_Data
280
    15
 94
     1748
310
89504E470D0A1A0A0000000D494844520000010000000084080300000048FA052E00000300504C5445212830000000C8C8C80000000000000000000000000000000000000000000000000000330000660000990000CC0000FF0033000033330033660033990033CC0033FF0066000066330066660066990066CC0066FF0099
310
000099330099660099990099CC0099FF00CC0000CC3300CC6600CC9900CCCC00CCFF00FF0000FF3300FF6600FF9900FFCC00FFFF3300003300333300663300993300CC3300FF3333003333333333663333993333CC3333FF3366003366333366663366993366CC3366FF3399003399333399663399993399CC3399FF33CC00
310
33CC3333CC6633CC9933CCCC33CCFF33FF0033FF3333FF6633FF9933FFCC33FFFF6600006600336600666600996600CC6600FF6633006633336633666633996633CC6633FF6666006666336666666666996666CC6666FF6699006699336699666699996699CC6699FF66CC0066CC3366CC6666CC9966CCCC66CCFF66FF0066
310
FF3366FF6666FF9966FFCC66FFFF9900009900339900669900999900CC9900FF9933009933339933669933999933CC9933FF9966009966339966669966999966CC9966FF9999009999339999669999999999CC9999FF99CC0099CC3399CC6699CC9999CCCC99CCFF99FF0099FF3399FF6699FF9999FFCC99FFFFCC0000CC00
310
33CC0066CC0099CC00CCCC00FFCC3300CC3333CC3366CC3399CC33CCCC33FFCC6600CC6633CC6666CC6699CC66CCCC66FFCC9900CC9933CC9966CC9999CC99CCCC99FFCCCC00CCCC33CCCC66CCCC99CCCCCCCCCCFFCCFF00CCFF33CCFF66CCFF99CCFFCCCCFFFFFF0000FF0033FF0066FF0099FF00CCFF00FFFF3300FF3333
310
FF3366FF3399FF33CCFF33FFFF6600FF6633FF6666FF6699FF66CCFF66FFFF9900FF9933FF9966FF9999FF99CCFF99FFFFCC00FFCC33FFCC66FFCC99FFCCCCFFCCFFFFFF00FFFF33FFFF66FFFF99FFFFCCFFFFFF0000000D0D0D1A1A1A2828283535354343435050505D5D5D6B6B6B787878868686939393A1A1A1AEAEAEBB
310
BBBBC9C9C9D6D6D6E4E4E4F1F1F1FFFFFF000000000000000000000000000000000000000000000000000000000000B21171F60000031A4944415478DAED9CDB9683200C45F3FFFF9AC7BCCFAA60B846B18E35E8D96BD57110AD1CC2B504A2EF903A809703F372E0E57C0D88470BFE448D37B5CF253B74ECEA45D45F1A5E9F
310
4905E04200DA11E0136F6E01C2EB534C34EB390D584030009ADD029A0C1FB58081C4CC6001C79F60F022019E6501B2C91B0418899D4BF185009694F30870AA0E08D7645E017865B356B4EF17CB725E2280986567D24AF0683FC0BB00973E57F20B0F17C0B420F9AEF4CD26C0C037FA1260AF782FB9F739C44F276F9B10A3DA
310
904609B95D0091FD5E9A84C32A41FA13CE4201172DEA12A38AD175945C7AB95D80FDF6AF93F85200A1CC46484DC0183E48A765F06C019ACDEBEB87ECAE0450999A54EE0CA6C47D1D100BB5667B3CD55181D402440B38349E74DC0A14599FAAB86407291199004247BA4E37093068A6DDAC2F8A8096FD540464A075B93DFD63
310
6F98356AA98AA3A6C1ABDBBF639DE79B04D8EBFDFF0C02000000000000000000000000000000000000C075BC7C7D809B950977BD88DCAF83DCB84AAEBF4E30794DAE7E841727DFD94AD1E0301A5C617F2000795B29CA99F32433BDC202AA3A207901FF408029568A96A8CB50F02A0E9EC51CFD8BBBB169A828F911A09F20F5
310
954A9FCCA99AD5E3BC72A86236B5F12B8026A82F402C24EA4E9E85F73CCAA61480D97EE924448C13B74E306E182C00CE8AC046824E92AA0FBF025C33CAC80560F22EC0BF8C4EA4F78FDDBA3A12C05AEADFCAD284148EE55D01CCEEA52701BAD75A599A9032A023406A443D0B20FD8BAD2C4D88D8F74B56BFD29402B4A1AD0B
310
6435C6EE0A40D618E32D024C6001FD3AE07F0458F79B9AB115385F076C4F02BAEF079C6F05261260549663FD00D9FCE60776852100048000EF16A0D94065F656E081EF624F89B583D6B865A8F6E2748EB4B8AFEEE5D573C2F6EF0D6E7E1730062C4CD564B1FE970288EA09D075DEB87A3AD7DD2972B48708AFE376AE05A042
310
188D479B0250B919693D47EAF2B741EE4DE5EA8F455CC42BCB04D543BD668ABD2E2773EC2273695331C32E32974B8066905CEF22F3E43779FD1A21EC220300000000000000000000000000000000000000000000C03F7F0ABA89D2B8570C810000000049454E44AE426082DD4C8DA53DC50B0054D8CDDEE3590AAEDE65CF55
310
8E917A9C1AA3F4BF050A57F231FE6AC4BF5902CA0F3FE59C93BFA9B1B49D3C57353CDD7E32E4A07447FEEC5DF9007331EBE0716AECD7F7E06E6A6CA730E889804C2D7FF3DDC7262A1004BDAD7F8527672B1C93F33A0000000049454E44AE426082
  0
ENDSEC
  0
EOF
